<?xml version="1.0" encoding="utf-8"?>
<!-- Generator: Adobe Illustrator 21.0.0, SVG Export Plug-In . SVG Version: 6.00 Build 0)  -->
<svg version="1.1" xmlns="http://www.w3.org/2000/svg" xmlns:xlink="http://www.w3.org/1999/xlink" x="0px" y="0px"
	 viewBox="0 0 1920 930" style="enable-background:new 0 0 1920 930;" xml:space="preserve">
<style type="text/css">
	.st0{opacity:0.5;}
	.st1{fill:#FFFFFF;}
	.st2{fill:#4569A8;}
	.st3{fill:#3C5B95;}
	.st4{fill:none;stroke:#3C5B95;stroke-width:0.5;stroke-miterlimit:10;}
	.st5{fill:#2D4581;}
	.st6{fill:#0E2359;}
	.st7{fill:#000130;}
	.st8{fill:none;stroke:#000130;stroke-width:0.1;stroke-miterlimit:10;}
	.st9{opacity:0.11;fill:#FFFFFF;}
	.st10{fill:#CEDEF8;}
	.st11{fill:none;stroke:#CEDEF8;stroke-miterlimit:10;}
</style>

<g id="Camada_6">
	<circle class="st9" cx="1378.5" cy="184.5" r="79.5"/>
	<circle class="st9" cx="1379" cy="185" r="61"/>
	<g id="XMLID_5_">
		<g>
			<path class="st10" d="M1392,136.4c0.9-0.2,2.7-0.7,4.1-0.6l-0.1,1.2c0.4,2-2.1,3.9-3.4,5c-0.8,0.6-1.4,1.4-2.2,2
				c-0.9,0.7-1.8,0.9-2.4,1.9c-1.1,1.6-2.2,3.1-3.6,4.5c-1.7,1.8-2.4,3.4-3.4,5.6c-1.6,3.6-3.9,7.1-4.9,10.9
				c-0.7,2.6-0.6,5.1-0.6,7.8c0,2.3-0.2,4.2-1.1,6.3c-0.8,1.9-0.9,3.9-0.9,6c0,5.4-0.7,11,1.8,16c2.1,4.3,4.8,8.3,7.7,12.1
				c2.7,3.5,7.8,4.6,11.6,6.5c1.7,0.9,3.1,1.5,5,2c0.8,0.2,2,0.3,1.9,1.3c-6.7,1.7-14.7-0.2-21.1-2.4c-2.3-0.8-4.5-1.4-6.7-2.5
				c-3.1-1.6-5.8-3.5-8.7-5.4c-1-0.7-2.1-1.1-2.9-2.1c-0.7-0.8-1.3-1.9-1.8-2.8c-1.5-2.8-2.5-5.5-3.1-8.6c-0.5-2.5-1.2-4.8-1.2-7.5
				c0.1-4.5,0.8-9.2,1.4-13.7c0.4-3.4,1.1-6.7,1.7-10c0.4-2.2,1.1-4,1.8-6c0.7-1.8,1.1-3.5,2.1-5.2c1.4-2.3,2.4-4.9,3.4-7.4
				c0.9-2.4,2-4.1,3.8-5.9c3.9-3.7,10-4.7,14.8-7C1387.3,137.4,1389.6,136.8,1392,136.4z"/>
		</g>
		<g>
			<path class="st11" d="M1396,137c0.4,2-2.1,3.9-3.4,5c-0.8,0.6-1.4,1.4-2.2,2c-0.9,0.7-1.8,0.9-2.4,1.9c-1.1,1.6-2.2,3.1-3.6,4.5
				c-1.7,1.8-2.4,3.4-3.4,5.6c-1.6,3.6-3.9,7.1-4.9,10.9c-0.7,2.6-0.6,5.1-0.6,7.8c0,2.3-0.2,4.2-1.1,6.3c-0.8,1.9-0.9,3.9-0.9,6
				c0,5.4-0.7,11,1.8,16c2.1,4.3,4.8,8.3,7.7,12.1c2.7,3.5,7.8,4.6,11.6,6.5c1.7,0.9,3.1,1.5,5,2c0.8,0.2,2,0.3,1.9,1.3
				c-6.7,1.7-14.7-0.2-21.1-2.4c-2.3-0.8-4.5-1.4-6.7-2.5c-3.1-1.6-5.8-3.5-8.7-5.4c-1-0.7-2.1-1.1-2.9-2.1
				c-0.7-0.8-1.3-1.9-1.8-2.8c-1.5-2.8-2.5-5.5-3.1-8.6c-0.5-2.5-1.2-4.8-1.2-7.5c0.1-4.5,0.8-9.2,1.4-13.7c0.4-3.4,1.1-6.7,1.7-10
				c0.4-2.2,1.1-4,1.8-6c0.7-1.8,1.1-3.5,2.1-5.2c1.4-2.3,2.4-4.9,3.4-7.4c0.9-2.4,2-4.1,3.8-5.9c3.9-3.7,10-4.7,14.8-7
				c2.2-1.1,4.5-1.7,7-2.1c0.9-0.2,2.7-0.7,4.1-0.6c0.6,0.1,1.1,0.3,1.4,0.7"/>
		</g>
	</g>
</g>
</svg>
