<svg version="1.1" id="Camada_1" xmlns="http://www.w3.org/2000/svg" xmlns:xlink="http://www.w3.org/1999/xlink" x="0px" y="0px"
	 viewBox="0 0 598 296" style="enable-background:new 0 0 598 296;" xml:space="preserve">
	 <defs>
	 <style>


	 #Camada_1{

	 fill:rgba(255, 255, 255, 0);
	 stroke-dasharray:18800;
	 stroke-dashoffset:0;
	 -webkit-animation: dash 14s linear forwards;
	 -o-animaiton: dash 14s linear forwards;
	 -moz-animation: dash 14s linear forwards;
	 animation: dash 18s linear forwards;
	 }

	 @-webkit-keyframes dash{
	 from{
	 stroke-dashoffset: 18800;

	 }
	 to{
	 stroke-dashoffset: 0;
	 fill:rgba(255, 255, 255, 1);
	 }}



	 </style>
	 </defs>
<style type="text/css">
		.st0{stroke:rgba(255,255,255,1);stroke-width:8;stroke-miterlimit:10;}
</style>
<g transform="translate(0.000000,307.000000) scale(0.100000,-0.100000)">
	<path class="st0" d="M2373,2581c-50,19-80,22-218,25c-88,1-171,0-185-2c-188-34-289-81-391-183c-60-60-80-87-94-130
		c-31-93-5-179,77-257c59-57,108-86,266-156c292-129,351-168,397-262c40-81,42-136,10-231c-51-154-159-267-340-355
		c-170-83-349-116-533-100c-241,23-403,109-478,257c-28,55-29,64-28,183c1,109,4,134,28,200c38,106,81,174,158,252
		c38,37,68,70,68,73c0,13-39,2-86-24c-82-47-168-150-228-271l-51-105v-115c0-114,1-117,38-192c110-224,411-344,772-309
		c196,19,379,82,526,182c137,92,276,252,314,360c21,57,19,149-4,208c-42,112-120,174-368,292c-258,123-272,131-319,172
		c-88,77-107,166-56,248c60,94,155,150,328,195c128,33,269,31,351-5c65-29,129-96,139-146c15-80-31-149-107-161c-45-7-71-30-45-40
		c26-10,116,26,158,64c49,44,68,80,68,129C2539,2464,2476,2541,2373,2581z M5140,1440c-5,0-30-39-56-87c-85-158-142-226-230-278
		c-49-29-124-58-124-48c0,13,173,497,195,549c13,28,40,70,60,93l37,41h-68c-39,0-76-6-85-13c-8-7-47-74-87-150
		c-139-269-275-447-340-447c-44,0-57,34-42,104c16,77,194,429,237,471l36,35h-75c-44,0-80-5-90-12c-8-7-61-101-118-208
		s-119-220-138-250c-65-105-128-153-171-130c-33,17-28,85,15,194c64,162,353,713,456,869c21,32,38,63,38,68s-15,9-34,9
		c-19,0-40,2-48,4c-20,5-51-4-71-22c-10-9-74-131-143-271c-68-140-126-256-128-258c-1-2-19,4-39,12c-53,22-151,18-215-8
		c-113-47-194-140-290-332c-89-179-170-275-231-275c-24,0-43,48-36,92c16,92,167,415,226,482l31,36h-62c-34,0-70-5-81-10
		c-10-6-43-59-73-118c-117-233-224-404-286-456c-67-56-119-23-106,68c10,64,183,409,236,469l42,47h-75c-57,0-80-4-95-17
		c-11-10-62-102-115-204c-146-288-217-379-296-379c-22,0-44,6-51,15c-18,21-14,83,11,193c22,97,22,97,96,177c41,44,99,117,130,162
		l54,82l62,3c47,2,62,7,62,18c0,11-13,16-48,18c-27,2-47,7-45,11c2,4,28,61,58,127c42,93,55,133,58,181c4,56,2,64-21,87
		c-33,33-53,33-108-3c-59-37-104-100-190-265l-70-135l-62-3c-49-2-62-6-65-20c-3-15,5-18,52-18c31,0,56-2,56-4c0-3-20-58-45-124
		c-89-240-120-390-96-465c7-20,28-50,48-68c34-29,40-31,94-27c68,5,106,30,178,119c44,53,44,53,38,21c-20-102,90-174,189-124
		c43,22,106,85,149,151c15,22,28,41,29,41c1,0,2-31,2-69c-1-56,3-75,20-98c25-33,69-48,118-39c40,8,123,78,157,133l23,36l11-58
		c14-67,44-100,101-111c73-14,153,36,221,139c27,40,48,50,38,17c-10-30,13-95,44-129c61-65,159-31,251,87l35,45l7-53
		c8-66,38-99,97-107c90-12,167,45,281,212c43,62,60,81,56,61c-12-51-95-269-119-311l-22-40l-140-36c-187-48-267-75-348-117
		c-113-58-187-161-187-260c0-66,85-122,185-122c54,0,144,24,205,55c101,51,233,196,345,379c38,61,57,82,84,93
		c189,75,278,157,374,342C5156,1410,5164,1440,5140,1440z M2876,1894c50,108,106,203,132,224c26,20,32,14,32-29c0-45-34-138-87-241
		l-35-68h-44c-24,0-44,3-44,6C2830,1790,2851,1838,2876,1894z M2803,1728c12,15,77,16,77,1c0-12-86-137-130-189c-17-19-30-29-30-22
		C2720,1533,2790,1710,2803,1728z M3870,1212c-75-93-146-127-170-83c-56,106,108,398,293,521c53,36,68,41,100,37c21-3,42-8,45-12
		C4153,1660,3956,1319,3870,1212z M4215,541c-74-47-148-66-196-52c-65,19-76,69-34,150c26,52,87,111,145,141c37,19,178,64,320,103
		c47,13,87,19,88,15C4551,868,4308,600,4215,541z"/>
</g>
</svg>
