<svg version="1.1" id="Camada_3" xmlns="http://www.w3.org/2000/svg" xmlns:xlink="http://www.w3.org/1999/xlink" x="0px" y="0px"
	 viewBox="0 0 598 296" style="enable-background:new 0 0 598 296;" xml:space="preserve">
	 <defs>
	 <style>


	 #Camada_3{

	 fill:rgba(255, 255, 255, 0);
	 stroke-dasharray:1800;
	 stroke-dashoffset:0;
	 -webkit-animation: dash 14s linear forwards;
	 -o-animaiton: dash 14s linear forwards;
	 -moz-animation: dash 14s linear forwards;
	 animation: dash 8s linear forwards;
	 }

	 @-webkit-keyframes dash{
	 from{
	 stroke-dashoffset: 1800;

	 }
	 to{
	 stroke-dashoffset: 0;
	 fill:rgba(255, 255, 255, 1);
	 }}



	 </style>
	 </defs>
<style type="text/css">
		.st0{fill:none;stroke:rgba(255,255,255,1);stroke-width:6;stroke-miterlimit:10;}
</style>
<g id="Camada_1">
</g>
<g id="Camada_2">
	<g>
		<path class="st0" d="M249.3,160.7c1.7,0.3,3.3-1.1,4.6-2c0.9-0.6,1.8-1.5,2.7-2.1c0.8-0.5,1.7-0.7,2.5-1.2
			c1.9-1.3,3.5-3.8,4.8-5.6c1.6-2.1,3.7-3.5,5.3-5.7c3-3.9,6.1-7.7,9-11.7c3.2-4.2,5-9.3,8.4-13.3c2.6-3.1,4.2-6.5,6.4-9.9
			c0.5-0.8,1-1.7,1.5-2.5c0.7-1.1,0.9-2.3,1.5-3.4c1.1-2.1,2.7-4,3.7-6.1c0.6-1.3,0.8-2.8,1.5-4.1c0.5-0.9,1.1-1.7,1.5-2.6
			c0.6-1.3,1.2-2.8,1.7-4.1c0.4-1.2,0.3-2.7,0.6-4c0.3-1,0.7-1.7,1-2.6c1-2.5,0.4-5.3,0.5-7.9c0.1-4.4-3.3-8-8-6.6
			c-1.6,0.5-3,2-4,3.3c-2.2,3.2-3.8,6.7-6,9.8c-1.6,2.2-3.2,4.4-4.6,6.7c-0.8,1.3-1.9,2.2-2.7,3.4c-0.9,1.4-1.3,3.1-2,4.5
			c-1.6,3.7-3.6,7.1-5.4,10.7c-2.1,4.3-4,8.8-6,13.2c-1.2,2.6-1.9,5.5-3.3,8c-1.8,3.3-3.2,6.6-4.7,10c-2.8,6.2-4.9,12.5-7.1,18.9
			c-1.8,5.1-3.2,10.4-4.1,15.9c-0.4,2.7,0,5.4-0.1,8.1c-0.2,3.4-0.7,6.7-0.7,10.2c0,4,0.2,6.7,2,10.4c1.1,2.3,3.1,4.5,5.4,5.5
			c4,1.8,8.5,1.3,12.5-0.2c4.1-1.5,6.6-4.5,9.4-7.7c1.1-1.3,2.2-2.8,3.1-4.3c0.9-1.9,1.8-3.8,2.8-5.6c1.3-2,2.7-4,4.1-5.9
			c2-2.9,3.6-6,5.4-9c2.2-3.7,5.1-7.1,7.6-10.6c4.1-5.5,7.8-11.1,11.4-16.9c3.2-5.2,5.5-11.1,9.4-15.8c-2.4,3.5-3.5,7.6-5.6,11.3
			c-2.6,4.7-5.8,9-8.5,13.7c-4.2,7.4-6,15.9-9.5,23.6c-2.6,5.6-5,13.8-4.4,20.1c0.3,2.5,1.2,5.1,3.1,6.9c2,1.9,5.8,1.5,8.3,1.8
			c7.8,1,12.1-5.2,16.4-10.8c5-6.4,9.8-12.8,14.5-19.5c6-8.6,11-17.6,16.6-26.4c2.5-3.9,4.7-7.9,7.1-11.8c1.2-1.8,2.5-3.6,3.7-5.4
			c0.6-0.9,1.7-3.2,2.8-3.6c-1.6,8.5-5.6,15.4-9.3,23c-1.8,3.7-3,7.6-4.7,11.4c-2.2,5-4.7,9.8-6.7,15c-2.2,5.9-4.4,12.2-4.3,18.6
			c0.1,3.8,0.4,7,4.5,8.4c9.9,3.5,18.4-4.1,23.9-11.6c7.1-9.6,13-20.2,18.5-30.8c2.7-5.1,6.3-9.8,9.8-14.3
			c3.8-4.8,9.4-7.9,14.5-11.2c4.5-2.9,9-5.6,14.2-6.9c5.8-1.4,12.3-2.6,18.2-1.4c3.1,0.6,6,1.5,8.8,2.8c2.1,0.9,3.2,2.2,4.6-0.2
			c1.6-2.6,3.5-4.9,5-7.4c2.3-3.7,4.5-7.5,6.7-11.2c3.5-5.9,6.2-12.1,9.8-17.9c2.8-4.4,5.2-8.9,7.4-13.6c1.7-3.5,3.4-6.7,4.7-10.3
			c0.8-2.2,1.6-5.9,3.7-7.2c0.7,2.4-0.6,5.1-1.5,7.3c-1.8,4.2-3.9,8-5.4,12.3c-1.4,4-3.3,7.3-5.5,11c-3.2,5.5-6.3,11.1-9.4,16.6
			c-5.4,9.6-11.7,18.6-17.1,28.2c-3.6,6.6-6.8,13.4-10.5,20c-2.9,5.1-6.2,9.8-8.5,15.2c-2.9,7-6.3,14.6-2.8,22
			c1.8,3.8,4.7,6,8.8,6.9c5.2,1.2,9.1-0.1,13-3.8c8.9-8.5,15.5-19.2,21.8-29.7c4.4-7.3,9.1-14.4,13.7-21.6
			c4.3-6.8,8.2-13.9,12.8-20.4c0.6,1.4,0.2,2.7-1.3,4.1c-1.8,4-3.6,7.9-5.6,11.7c-4.3,8.8-8.4,17.9-12.3,26.9
			c-3.3,7.5-6.3,15-4.9,23.3c0.8,4.6,2.2,8.4,7.2,9c15.1,1.8,26-14.8,33.1-25.5c10.7-16.1,20.1-33,31.3-48.6
			c-0.1,4.7-2.3,10-3.8,14.5c-3.2,9.6-7,19.1-10.9,28.5c-5.3,12.9-10.6,25.8-16.4,38.5c-4.4,9.8-9.1,19.4-13.7,29.1
			c-4.3,9-9.5,16.6-16.9,23.5c-7.7,7.1-17,13.3-26.6,17.6c-3.6,1.6-7.3,2.9-11.1,4.1c-2.6,0.9-5.4,1.9-8.1,2.1
			c-3.7,0.2-9.2-1.5-11.8-4.1c-3.3-3.4-2.7-10-1.9-14.3c0.9-4.7,3.2-7.8,7.2-10.5c1.7-1.2,3.4-2.4,5.1-3.4c3.1-1.8,6.7-2.7,10.2-3.7
			c9.7-2.8,19.5-5.7,28.9-9.4c9.5-3.8,18.6-8.7,28.1-12.5c12.3-4.9,25.2-9,36.8-15.4c11.9-6.5,21.7-16.4,29.1-27.6
			c6.1-9.2,9.8-19.2,12.9-29.7"/>
	</g>
	<g>
		<path class="st0" d="M209.3,58.7c3.9,0,8.4-0.6,11.9-2.6c1.5-0.9,2.9-2.3,4.3-3.4c1.9-1.4,4.5-2.9,5.9-4.8
			c3.8-5.3,5.1-15.3,0.5-20.4c-1.4-1.5-2.4-3.3-3.8-4.8c-1.8-1.8-3.9-3.2-5.9-4.7c-5.4-4-13-5-19.4-6.6c-2.7-0.7-5.5-1.4-8.3-1.8
			c-4.4-0.7-8.8,0.2-13.2,0.5c-11.5,0.8-22.3,5-33.2,8.6c-9.3,3.1-18.7,7.6-26.5,13.5c-4.7,3.5-9.6,7-12.8,12.1
			c-3,4.8-5.3,12.1-3.1,17.7c2.3,5.5,7.8,9.7,12.5,12.9c4.2,2.9,9,5.2,13.6,7.3c8.1,3.6,16.4,6.9,24.6,10.4
			c4.1,1.8,8.4,3.3,12.5,5.1c6.2,2.8,11.9,6.5,17.6,10.2c6.4,4.1,12.3,8.2,17.5,13.9c5.8,6.4,8.8,13.3,10,21.8
			c2,13.9-2.9,30.4-11.3,41.7c-4.5,6-10.1,11.7-15.6,16.8c-4.2,3.8-8.9,7.8-13.9,10.6c-14,7.6-29.5,13.3-45.5,14.8
			c-9.7,0.9-19.5,0.6-29.3,0.7c-9.5,0-19.2-0.5-28.6-2c-6.3-1.1-12.5-2.6-18.7-4.6c-5.6-1.8-11.6-3.6-16.6-6.7
			c-9.2-5.8-16.9-15.2-21-25.2c-2.8-6.8-4-14.6-4.1-22c-0.2-10.8,1.8-23,6.5-32.8c1.9-3.9,4.1-7.7,6.2-11.5c2.4-4.5,5.2-8.1,8.4-12
			c1.6-1.9,3-3.9,4.7-5.7c3.4-3.4,7.8-5.5,11.3-8.8"/>
	</g>
	<g>
		<path class="st0" d="M287.3,96.7c46.2,0,92.4,0,138.7,0"/>
	</g>
</g>
</svg>
