<?xml version="1.0" encoding="utf-8"?>
<!-- Generator: Adobe Illustrator 21.0.0, SVG Export Plug-In . SVG Version: 6.00 Build 0)  -->
<svg version="1.1" xmlns="http://www.w3.org/2000/svg" xmlns:xlink="http://www.w3.org/1999/xlink" x="0px" y="0px"
	 viewBox="0 0 1920 930" style="enable-background:new 0 0 1920 930;" xml:space="preserve">
<style type="text/css">
	.st0{opacity:0.5;}
	.st1{fill:#FFFFFF;}
	.st2{fill:#4569A8;}
	.st3{fill:#3C5B95;}
	.st4{fill:none;stroke:#3C5B95;stroke-width:0.5;stroke-miterlimit:10;}
	.st5{fill:#2D4581;}
	.st6{fill:#0E2359;}
	.st7{fill:#000130;}
	.st8{fill:none;stroke:#000130;stroke-width:0.1;stroke-miterlimit:10;}
	.st9{opacity:0.11;fill:#FFFFFF;}
	.st10{fill:#CEDEF8;}
	.st11{fill:none;stroke:#CEDEF8;stroke-miterlimit:10;}
</style>

<g id="Camada_4">
	<g id="XMLID_3_">
		<g>
			<path class="st5" d="M1406.3,539.5c-0.3,0.1-0.6,0.5-0.7,0.7c-0.3,0.5-0.3,1.1-0.2,1.6c0.1,0.7,0.7,1.1,1.3,1.2
				c0.4,0.1,1,0.3,1.5,0.2c0.4-0.1,0.8-0.5,1-0.9c0.3-0.6-0.2-1.3-0.5-1.8c-0.2-0.4-0.4-0.5-0.8-0.8
				C1407.4,539.6,1407,539.6,1406.3,539.5L1406.3,539.5z M1412.2,540.6c0.3,0,0.3,0.3,0.4,0.5c0.2,0.3,0.4,0.6,0.5,0.9
				c0.3,0.6,0.5,1.2,0.6,1.8c0.2,1.1-0.1,2.2-0.6,3.1c0.3,0.6,1.3,0,1.6-0.1c0.9-0.3,2.1-0.7,2.7-1.5c0.4-0.6,0.8-1,0.9-1.7
				c0.1-0.5-0.3-1.1-0.6-1.5c-0.6-1-1.9-1.5-3-1.5c-0.2,0-0.4-0.1-0.6-0.1c-0.3-0.1-0.6,0-0.9-0.1c-0.3-0.1-0.4-0.1-0.7-0.1
				c-0.1,0-0.2,0-0.3-0.1L1412.2,540.6z M1428.7,549.7c-0.5,0.2-0.9,0.3-1.4,0.3c-0.5,0-0.8-0.1-1.3-0.2c-0.4-0.1-0.7-0.2-1-0.3
				c-0.3-0.1-0.6,0-1-0.1c-0.4,0-0.7-0.1-1.1-0.1c-0.3,0-0.7,0-1,0c-0.4,0-0.7,0.4-0.8,0.8c-0.1,0.3-0.1,0.9,0.1,1.2
				c0.2,0.5,0.8,0.9,1.3,1.1c0.7,0.4,1.5,0.6,2.3,0.7c0.8,0.1,1.7,0.2,2.5,0.2c0.7,0,1.3-0.1,1.9-0.3c0.5-0.1,1-0.2,1.4-0.6
				c0.3-0.3,0.5-0.7,0.3-1.1c-0.2-0.5-0.8-0.8-1.2-1c-0.2-0.1-0.3-0.2-0.5-0.2c-0.1,0-0.2,0-0.3,0
				C1428.7,549.9,1428.7,549.8,1428.7,549.7z M1539.4,577.2c-0.2,0-0.3,0.1-0.5,0.1c-0.2,0.1-0.4,0.1-0.6,0.1
				c-0.4,0.1-0.8,0.1-1.3,0.1c-0.4,0-0.8-0.3-1.1-0.5c-0.4-0.2-0.5,0.1-0.6,0.5c-0.1,0.4-0.1,0.8-0.2,1.2c-0.1,0.4-0.1,0.7,0.2,1
				c0.3,0.3,0.6,0.6,0.9,0.9c0.4,0.5,0.7,1.2,0.9,1.8c0.1,0.4-0.1,1.5,0.5,1.7c0.2,0.1,0.4-0.1,0.5-0.3c0.2-0.4,0.3-1,0.5-1.4
				c0.2-0.4,0.3-0.7,0.5-1.1c0.1-0.3,0.1-0.5,0.3-0.7c0.1-0.2,0.3-0.4,0.4-0.6c0.1-0.3,0.3-0.7,0.3-1c0.1-0.2,0.1-0.5,0.1-0.7
				c0-0.2,0.1-0.5,0.1-0.7C1540.2,577.5,1539.6,577.5,1539.4,577.2L1539.4,577.2z M716.4,499.4c0.2,0.1,0.4,0.3,0.5,0.4
				c0.3,0.3,0.2,0.6,0.1,1c-0.2,0.5-0.5,0.9-0.9,1.4c-0.3,0.3-0.8,0.8-0.8,1.3c0,0.5,0.6,0.9,1,1c0.6,0.2,1.4-0.3,1.9-0.7
				c0.3-0.3,0.8-0.5,1.1-0.9c0.2-0.3,0.3-0.6,0.4-0.9c0.1-0.2,0.2-0.5,0.2-0.7c0.1-0.5-0.1-1.1-0.1-1.6c-0.1-0.5-0.2-1.3,0-1.8
				c0.2-0.3,0.7-0.5,1-0.7c0.7-0.5,1.5-0.8,2.1-1.4c0.6-0.5,1.1-1.6,0.4-2.3c-0.6-0.6-1.4-0.9-2.2-1c-0.8-0.2-1.5-0.3-2.2-0.4
				c-0.6-0.1-1-0.2-1.6-0.2c-0.4,0-0.8,0.8-0.7,1.1c0,0.5,0.6,0.9,0.2,1.4c-0.2,0.3-0.7,0.5-1.1,0.7c-0.5,0.2-0.9,0.6-1.2,1
				c-0.2,0.4-0.3,0.6-0.3,1c0,0.2,0,0.5,0.1,0.7c0.1,0.2,0.4,0.5,0.6,0.7C715.3,498.9,716,499,716.4,499.4z M1587.5,591.4
				C1587.5,591.4,1587.5,591.4,1587.5,591.4c0.1-0.3,0.1-0.7,0-1c-0.2-0.5-0.8-0.7-1.2-1c-0.2,0-0.3,0-0.5,0c0,0,0,0,0,0
				c-1.4,0-2.8,0.1-4.1-0.2c-0.6-0.1-1.1,0-1.7-0.2c-0.3-0.1-0.5-0.1-0.8-0.2c-0.4-0.1-0.8-0.3-1.2-0.5c-0.3-0.1-0.6-0.1-0.9-0.2
				c-0.3-0.1-0.5-0.3-0.8-0.4c-0.4-0.1-0.8-0.1-1.2-0.2c-0.4-0.1-0.8-0.4-1.2-0.5c-0.7-0.2-1.3-0.3-2-0.5c-0.6-0.2-1.2-0.5-1.8-0.6
				c-0.6-0.2-1.1-0.4-1.7-0.6c-2-0.9-4.1-1-6.3-1c-1.7,0-2.9,1-3.8,2.4c-0.1,0.2-0.3,0.5-0.3,0.7c-0.1,0.5,0.2,0.7,0.6,1
				c1,0.8,2.2,1.1,3.5,1.3c0.6,0.1,1.2,0.1,1.8,0.1c1.3,0.1,2.7,0.5,4,0.8c1.8,0.4,3.6,1,5.4,1.6c1.1,0.3,2.2,0.5,3.3,1
				c1.7,0.9,3.5,1.2,5.4,1.3c1.5,0.1,3.6,0.5,4.7-0.9c0.3-0.3,0.3-0.8,0.4-1.2C1587.3,592.1,1587.4,591.8,1587.5,591.4z
				 M754.2,520.1c-0.4,0-0.5-0.1-0.8-0.3c-0.3-0.2-0.7-0.2-1-0.4c-1-0.5-2.9-1.5-3.8-0.4c-0.4,0.4-0.5,1.4-0.4,2
				c0.1,0.3,0.3,0.5,0.5,0.7c0.3,0.3,0.6,0.7,1,0.9c0.7,0.2,1.5,0.2,2.1,0.2c0.6,0,1.2,0,1.8,0c0.7,0,1.5,0,2.2,0c0.5,0,1,0,1.5,0.2
				c0.3,0.1,0.6,0.2,0.9,0.2c0.3,0.1,0.6,0,0.9,0.1c1,0.3,2,0.7,3.1,1c1.5,0.4,3,0.7,4.5,0.4c1.3-0.3,2.6-0.6,3.8-1
				c0.5-0.2,1-0.5,1.4-0.7c0.7-0.3,1.3-0.8,1.7-1.4c0.4-0.5,1.1-2.1,0.1-2.3c-0.4-0.1-0.7,0.2-1.1,0.4c-0.6,0.2-1.2,0.5-1.7,0.9
				c-0.3,0.3-0.5,0.7-0.9,1c-0.4,0.3-0.9,0.4-1.4,0.4c-2.1,0.3-3.8-1.1-5.8-1.7c-1.6-0.5-3.2-0.5-4.8-0.5c-0.5,0-1,0-1.5,0
				c-0.1,0-1-0.1-1.1,0.1c0,0.1,0.1,0.1,0.2,0.1v0.1C755.3,520.1,754.8,520.1,754.2,520.1z M1186.2,535.9c-0.2,0-0.4-0.1-0.7-0.1
				c-0.4,0-0.9,0-1.3,0c-0.5,0-1,0-1.5,0c-0.3,0-0.5,0-0.8,0c-0.3,0-0.5,0.3-0.8,0.4c-0.3,0.1-0.7,0.2-1,0.3
				c-0.4,0.1-0.6,0.7-0.7,1.1c-0.1,0.4,0.3,0.8,0.6,1c0.3,0.2,0.6,0.2,0.9,0.4c0.3,0.2,0.5,0.5,0.9,0.6c0.5,0.2,1.1,0.2,1.6,0.4
				c0.2,0.1,0.5,0.2,0.7,0.3c0.2,0.1,0.5,0,0.7,0c0.4,0,0.6,0,0.9-0.3c0.3-0.3,0.5-0.8,0.7-1.2c0.1-0.4,0.2-0.9,0.3-1.3
				s-0.1-0.7-0.3-1.1L1186.2,535.9z M1218.3,532.8c-1.3-0.5-2.6-0.9-3.9-0.8v0.5c-0.4,0.4-0.6,0.7-0.6,1.3c0,0.2-0.1,0.6,0,0.8
				c0.1,0.2,0.2,0.3,0.3,0.5c0.2,0.4,0.3,0.8,0.7,1c0.2,0.2,0.9,0.4,1,0.8c-0.3,0.3-1.9,0.4-1.6,1.1c0.1,0.2,0.5,0.3,0.7,0.4
				c0.1,0.1,0.2,0.2,0.3,0.3c0.2,0.2,0.5,0.2,0.7,0.4c0.2,0.1,0.3,0.3,0.4,0.3s0.4,0.1,0.5,0.2c0.4,0.3,0.2,0.4,0.1,0.8
				c-0.3,0.7-0.3,1.5-0.7,2.1c-0.5,0.7-1.5,1.2-2.2,1.6c-0.3,0.2-0.6,0.3-0.9,0.5c-0.4,0.2-0.8,0.3-1.2,0.4c-0.5,0.2-1,0.2-1.5,0.3
				c-0.2,0.1-0.5,0.1-0.6,0.2c-0.3,0.4,0.2,0.8,0.4,1c0.5,0.6,1.1,1.2,1.6,1.7c0.4,0.5,0.9,0.8,1.4,1.3c0.4,0.4,0.8,0.8,1.4,1.2
				c1.4,1,2.8,2,4.5,2.6c1.9,0.6,3.8,1.5,5.8,1c0.8-0.2,1.7-0.5,2.3-1c0.5-0.4,1-1.1,1.3-1.7c0.3-0.5,0.9-2.1-0.3-1.7
				c-0.5,0.1-0.9,0.5-1.4,0.7c-0.5,0.2-1,0.4-1.5,0.4c-0.7-0.1-1.4-0.3-2.1-0.5c-1.1-0.3-2-0.8-3-1.2c-0.6-0.3-0.9-0.5-1.3-0.9
				c-0.3-0.4-0.6-0.7-0.8-1.1c-0.2-0.4-0.2-0.9-0.3-1.3c-0.1-1,0-2.1,0.3-3.1c0.3-1,0.8-1.8,1.2-2.6c0.4-0.8,1-1.5,1.4-2.3
				c0.4-0.6,0.8-1.4,0.7-2.1C1221.2,534.3,1219.6,533.3,1218.3,532.8z M970.4,521c-0.3,0-0.4,0.2-0.6,0.4c-0.4,0.3-0.6,0.4-0.5,1
				c0.1,0.6,0.9,1.3,1.5,1.4c0.5,0,0.8,0.1,1-0.4c0.1-0.2,0.3-0.9,0.3-1.1c0-0.1-0.2-0.3-0.2-0.4c-0.1-0.2-0.2-0.3-0.3-0.4
				C971.2,521.2,970.8,521,970.4,521z M987.3,502.8c0.3-0.1,0.7,0.3,0.9,0.4c0.4,0.3,0.9,0.6,1.2,1c0.3,0.4,0.7,0.7,1,1
				c0.3,0.4,0.6,0.9,1,1.4c0.3,0.4,0.5,1,0.7,1.5c0.1,0.4,0.3,0.8,0.4,1.2c0.2,1,0.2,2,0.4,2.9c0.2,0.9,0.6,1.9,1.6,1.9
				c0.7,0,1.3,0.2,1.9,0c0.8-0.2,1.4-0.4,2.1-0.8c0.6-0.3,1.1-0.8,1.4-1.4c0.3-0.5,0.3-1,0.4-1.6c0.2-0.7,0.2-1.3,0.3-2
				c0-0.3,0.1-0.6,0.1-0.9c0.1-0.3,0.3-0.5,0.4-0.8c0.2-0.3,0.4-0.7,0.7-1c0.5-0.5,1.1-1,1.6-1.6c0.7-0.8,1.3-1.7,1.8-2.6
				c0.2-0.5,0.4-1.1,0.7-1.6c0.3-0.5,0.4-1,0.5-1.5c0.1-0.5,0.3-1,0.4-1.6c0.1,1,0.8,2.1,1.3,2.9c0.4,0.7,0.9,1.3,1.3,2
				c0.6,1,1.4,1.9,2.2,2.7c0.5,0.5,1.1,0.9,1.6,1.3c0.2,0.1,0.9,0.5,0.8,0.8c0,0.2-0.6,0.3-0.7,0.3c-0.3,0-0.8-0.1-0.9,0.2
				c0.3,0.6,0.8,1.1,1.3,1.6c0.5,0.5,1.1,0.9,1.5,1.4c0.3,0.3,0.3,0.6,0.3,1c0,0.3,0,0.5,0.4,0.7c1.6,0.7,3.5,0.4,5.1,0.5
				c1,0.1,2.1,0.2,3.1,0.3c0.2,0,0.5,0.1,0.7,0.1l0-0.2c1.6,0,3.4,0.3,4.8-0.8c0.8-0.6,1.3-1.3,1.9-2.2c0.5-0.8,1-1.5,1.2-2.4
				c0.2-0.9,0.3-2-0.4-2.7c-0.1-0.1-0.3-0.3-0.4-0.4c-0.2-0.1-0.4-0.1-0.4-0.3c0-0.2,0.4-0.5,0.5-0.6c0.3-0.2,0.6-0.5,0.8-0.7
				c0.7-0.9,1.5-1.8,2.3-2.6c0.2-0.3,0.5-0.5,0.8-0.7c0.3-0.3,0.5-0.7,0.8-1.1c0.4-0.6,0.7-1.1,1-1.7c0.3-0.6,0.5-1.2,0.8-1.8
				c0.2,0.4,0.1,0.9,0.2,1.4c0.1,0.5,0.3,0.9,0.4,1.4c0.4,1,0.9,1.9,1.5,2.8c1,1.3,1.9,2.5,3.3,3.4c0.4,0.2,0.7,0.5,1,0.8
				c0.2,0.1,0.6,0.3,0.6,0.5c-0.2,0.2-0.4,0.3-0.5,0.5c-0.1,0.2-0.2,0.6-0.2,0.9c-0.1,0.7-0.1,1.6,0.1,2.2c0.4,1.1,0.9,2,1.6,2.8
				c0.4,0.4,0.8,0.8,1.2,1.2c0.3,0.2,0.7,0.4,0.7,0.7c-0.5,0.3-0.7,0.5-0.8,1.2c0,0.7,0.3,1.3,0.6,1.9c0.4,0.7,0.8,1.3,1.5,1.8
				c0.6,0.5,1.2,1,1.8,1.5c0.7,0.6,1.1,1.2,1.3,2.1c0.1,0.6-0.3,0.9-0.4,1.5c-0.1,0.3,0.2,0.4,0.5,0.6c0.7,0.5,1.6,0.8,2.4,1.2
				c1.8,0.9,3.6,1.7,5.3,2.6c1,0.5,2.1,1,3.1,1.5c0.3,0.2,0.7,0.4,1,0.5c0.4-0.6,0.6-1.5,0.8-2.2c0.2-0.7,0.6-1.4,0.7-2.1
				c0.1-0.9,0-1.8-0.1-2.7c0-0.8,0.4-1.9,0.9-2.6c0.5-0.7,1.2-1.2,1.7-1.8c0.6-0.7,1.2-1.3,1.7-2c0.5-0.6,1-1.4,1.4-2.2
				c0.5-0.9,1-1.9,1.4-2.9c0.1-0.1,0.2-0.1,0.2-0.2c0.2-0.2,0.4-0.4,0.6-0.6c0.3-0.3,0.5-0.5,0.8-0.7c0.2-0.2,0.6-0.6,0.9-0.3
				c0.4,0.5,0.2,1.6,0.7,1.9c0.7,0.4,1.2-0.7,1.7-1.1c0.1-0.1,0.3-0.2,0.5-0.3c0.2-0.1,0.3-0.3,0.4-0.4c0.4-0.2,0.6,0.1,0.6,0.5
				c0.1,0.6,0.3,1.4,0.5,2c0.2,0.6,0.4,1.2,0.7,1.8c0.7,1.5,1.9,2.6,2.8,3.9c0.1,0.1,0.3,0.5,0.3,0.6c-0.1,0.1-0.2,0.1-0.3,0.1
				c-0.3,0.1-1.2,0.1-1.4,0.4c0.5,1.3,1.9,1.9,2.8,2.8c0.4,0.5,0.7,0.9,1.3,1.3c0.3,0.2,0.5,0.4,0.8,0.6c0.2,0.1,0.4,0.2,0.5,0.4
				c-0.2,0.2-0.5,0.3-0.7,0.4c-0.5,0.3-1.1,0.6-1.6,1c-0.6,0.5-0.8,1.2-0.9,2c-0.2,1.1,0.1,2,0.6,2.9c0.4,0.8,0.9,1.5,1.8,1.7
				c0.2,0.1,0.6,0.1,0.8,0c0.3-0.2,0.5-0.7,0.6-1c0.3-0.7,0.5-1.5,0.8-2.2c0.3-0.7,0.5-1.5,0.8-2.2c0.2-0.6,0.6-1.2,0.5-1.9
				c-0.1-0.9-0.6-1.7-0.7-2.6c-0.2-1.3,0.4-2.2,1.3-3.2c0.5-0.5,1-1,1.5-1.5c0.3-0.3,0.6-0.5,0.7-0.8c0.1-0.2,0.3-0.5,0.3-0.7
				c0.1-0.4-0.1-0.6-0.3-0.9c-0.3-0.5-0.7-1.1-0.5-1.7c0.4-1.2,1.8-2,2.9-2.7c1.7-1,3.4-2.1,4.8-3.5c0.6-0.6,1.1-1.4,1.5-2.2
				c0.2-0.3,0.2-0.9,0.5-1.2c0.2,1.1,0,2.4,0.5,3.4c0.4,1,1.2,1.7,1.8,2.5c0,0.2,0.1,0.4,0.2,0.6c0.2,0.3,0.5,0.7,0.8,0.9
				c0.3,0.2,0.6,0.3,0.9,0.5c0.3,0.2,0.6,0.5,1,0.7c0.6,0.4,1.2,0.9,1.8,1.3c0.2,0.1,0.3,0.2,0.5,0.3c0.1,0.1,0.2,0.3,0.3,0.3
				c0.2,0.2,0.6,0.3,0.7,0.6c-0.1,0.2-0.4,0.1-0.6,0.1c-0.3,0-0.5,0.2-0.8,0.3c-0.5,0.2-0.7,0.2-0.7,0.8c0,0.5,0,0.9,0.2,1.3
				c0.3,0.5,1,0.8,1.5,1.2s1.1,0.5,1.6,0.8c0.6,0.4,1.3,0.5,1.9,0.8c0.3,0.1,0.5,0.3,0.8,0.4c0.4,0.2,0.9,0.3,1.3,0.4
				c0.9,0.2,1.9,0.3,2.8,0.3c0.7,0,1.6,0,2.2-0.2c1.1-0.4,2.2-1.2,2.9-2.1c0.5-0.7,1.2-1.4,1.5-2.3c0.1-0.4,0.1-0.7,0.2-1.1
				c0.1-0.4,0.2-0.8,0.3-1.2c0.1-0.4,0.2-0.6,0.5-0.9c0.7-0.7,1.7-1.1,2.3-1.9c0.4-0.5,0.7-1.1,1.1-1.7c0.3-0.5,0.6-1,0.9-1.6
				c0.6-1.4,1.4-2.8,1.9-4.3l0.1,0c0.2,0.2,0.2,0.4,0.3,0.6c0.1,0.2,0.3,0.4,0.4,0.6c0.2,0.4,0.4,0.7,0.6,1.1
				c0.2,0.5,0.5,0.8,0.8,1.3c0.3,0.5,0.7,1,1,1.5c0.4,0.6,0.7,1.1,1.2,1.6c0.3,0.4,0.7,0.8,1.1,1.2c0.2,0.2,0.4,0.4,0.7,0.6
				c0.3,0.2,0.6,0.3,0.9,0.5c0.3,0.2,0.7,0.3,1,0.4c0.3,0.1,0.6,0.1,0.9,0.1c0.3,0.1,0.9,0.2,1.1,0.3c-0.4,0.6-1.6,0.2-1.6,0.9
				c0,0.5,0.4,1,0.6,1.4c0.3,0.5,0.7,0.9,0.9,1.4c0.5,0.8,1.1,1.6,1.7,2.3c0.4,0.5,0.8,0.9,1.3,1.3c0.4,0.3,0.7,0.5,1.2,0.7
				c0.3,0.1,0.6,0.2,0.9,0.2c0.2,0,0.5,0,0.7,0.1c-0.5,0.3-1.3,0-1.6,0.5c-0.3,0.3-0.1,0.9,0,1.3c0.1,0.6,0.4,1.1,0.7,1.7
				c0.5,0.9,1.3,1.4,2.4,1.2c1.1-0.3,1.7-1.6,2.1-2.5c0.4-1.1,0.2-2.2,0.3-3.3c0.1-0.9,0.8-1.6,1.3-2.3c0.4-0.7,0.9-1.3,1.3-2
				c0.3-0.5,0.6-1.1,0.9-1.6c0.2-0.3,0.4-0.6,0.6-1c0.3-0.5,0.6-1.1,0.8-1.6c0.4-1,1-2,1.4-3c0.3-0.6,0.5-1.2,0.6-1.8
				c0.1-0.3,0.1-1,0.4-1.2c0.1,0.5,0.2,1,0.3,1.5c0.1,0.5,0.3,1,0.5,1.5c0.2,0.5,0.5,1.1,0.8,1.6c0.4,0.6,0.8,1.3,1.4,1.6l-0.1,0.3
				c0.1,0.3,0.7,0.6,1,0.6c0.4,0,0.9-0.3,1.1-0.6c0.3-0.3,0.6-0.8,0.8-1.2c0.3-0.4,0.5-0.8,0.8-1.2c0.2-0.4,0.4-0.8,0.5-1.2
				c0.2-0.7,0.5-1.3,0.7-2c0.2-0.5,0.3-1,0.5-1.5c0.1-0.2,0.1-0.4,0.2-0.5c0,0.5,0,1,0.1,1.5c0.1,0.6,0.1,1.2,0.2,1.8
				c0.3,0.7,0.6,1.5,0.9,2.2c0.3,0.5,0.6,1.2,1,1.6c0.3,0.3,0.5,0.8,0.9,1c0.5,0.4,1.2,0.6,1.8,0.9c0.3,0.1,1.5,0.5,1.6,0.9
				c-0.6,0.3-1.3,0.1-2,0.3c-0.6,0.2-0.4,0.8-0.3,1.2c0.1,0.3,0.2,0.5,0.4,0.8c0.2,0.2,0.2,0.5,0.4,0.7c0.4,0.6,1,1.1,1.5,1.6
				c0.5,0.5,1.1,1,1.6,1.6c0.3,0.3,0.7,0.8,0.6,1.2c-0.1,0.4-0.4,0.8-0.7,1.1c-0.4,0.4-0.7,0.7-0.8,1.2c-0.1,0.6,0.2,1.2,0.5,1.7
				c0.6,0.7,1.3,1,2,1.6c0.3,0.2,1.6,0.9,0.8,1.2c-0.5,0.2-1.4,0.1-1.8,0.5c-0.6,0.5-0.2,1.4,0.3,1.9c0.4,0.5,1,0.7,1.6,1
				c0.3,0.1,0.7,0.4,1,0.5c0.7,0.2,1.6-0.2,2.3-0.5c0.3-0.1,0.7-0.3,1-0.5c0.4-0.3,0.5-0.7,0.7-1.2v-0.2c0.2-0.2,0.2-0.8,0.3-1
				c0-0.4-0.1-0.8-0.2-1.2c-0.1-0.4-0.3-0.8-0.3-1.3c-0.1-0.5,0-1.1,0-1.6c0-0.6-0.1-1.3,0.1-1.8c0.2-0.7,0.3-1.3,0.8-1.8
				c0.2-0.3,0.6-0.5,0.8-0.7c0.3-0.3,0.7-0.7,0.8-1.1c0.3-0.6,0.2-1.3-0.1-1.9c-0.4-0.9-0.8-1.6-1.7-2c0.8,0.1,1.6-0.7,2.1-1.3
				c0.6-0.7,1.2-1.5,1.8-2.2c0.3-0.4,0.6-0.8,0.9-1.2c0.6-0.9,1.3-1.7,1.9-2.6c0.4-0.5,0.7-1.2,0.9-1.8c0.1-0.4,0.2-0.9,0.5-1.3
				c0.2,0.6,0,1.4,0,2c0.1,1.1,0.5,2.3,1.1,3.3c0.7,1,1.4,2,2.4,2.7l-0.1,0.1c0.2,0.3,0.6,0.3,0.8,0.5c0.2,0.3,0.4,0.6,0.6,0.9
				c0.3,0.5,0.4,1.2,0.7,1.7c0.2,0.3,0.5,0.6,0.6,0.9c0.2,0.3,0.5,0.7,0.8,0.9c0.3,0.3,0.7,0.5,1.1,0.7c0.2,0.1,0.7,0.2,0.9,0.3
				c-0.1,0.2-0.7,0.2-0.9,0.2c-0.3,0.1-0.7,0-0.8,0.4c-0.1,0.4,0.1,0.8,0.3,1.2c0.3,0.4,0.6,0.5,1,0.7c1.1,0.5,2.5,0.8,3.6,0.2
				c0.4-0.2,1-0.6,1.3-0.9c0.4-0.4,0.8-0.9,1.3-1.3c0.6-0.5,1.6-1.2,2.3-0.6c0.7,0.5,1,1.7,1.3,2.5c0.3,0.8,0.7,1.5,1,2.3
				c0.3,0.8,0.6,1.5,0.8,2.3c0.1,0.5,0.1,1,0.2,1.5c0.2,0.9,0.6,1.7,1.3,2.3c0.2,0.1,0.5,0.1,0.7,0.1c0.4-0.1,0.7-0.4,0.9-0.7
				c0.5-0.7,1.2-1.4,1.5-2.3c0.3-0.9,0.6-1.8,0.4-2.8c-0.1-0.4-0.1-0.9-0.4-1.3c-0.2-0.3-0.5-0.4-0.8-0.5c-0.2-0.1-0.8-0.3-0.9-0.5
				c0.2-0.2,0.7-0.2,0.9-0.4c0.3-0.1,0.5-0.3,0.7-0.5c0.6-0.5,1-1.2,1.4-1.7c0.4-0.5,0.8-0.9,1.1-1.4c0.2-0.2,0.5-0.8,0.5-1.1
				c-0.1-0.6-0.8-0.7-1.3-0.8c0.2-0.3,0.7-0.3,0.9-0.6c0.4-0.3,0.8-0.7,1.2-1.1c1.4-1.2,2.9-2.4,4.2-3.8c1-1.1,2-2.3,2.8-3.6
				c0.4-0.6,0.7-1.3,1-1.9c0.3-0.6,0.5-1.1,0.7-1.7c0.3,0.3,0.1,1.2,0.1,1.6c0,0.5-0.1,0.9,0.1,1.4c0.2,0.7,0.5,1.3,0.8,1.9
				c0.5,1.2,1,2.5,1.9,3.5c0.3,0.3,0.6,0.5,0.8,0.8c0.2,0.2,0.4,0.3,0.6,0.5c-0.1,0.3-0.7,0.4-0.9,0.6c-0.3,0.2-0.7,0.5-0.9,0.9
				c-0.5,1,0.3,2.3,0.8,3c0.4,0.5,0.8,1,1.2,1.5c0.2,0.3,0.6,0.6,0.8,0.9c0.4,0.4,0.8,0.7,1.3,1c0.3,0.2,0.6,0.3,0.8,0.5
				c0.3-0.1,0.5-0.3,0.6-0.6c0.2-0.4,0.4-0.8,0.6-1.1c0.1-0.3,0.2-0.6,0.3-0.9c0.1-0.3,0.2-0.6,0.3-0.9c0.1-0.4,0.3-0.8,0.3-1.2
				c0.1-0.3,0.2-0.6,0.2-0.8c0.1-0.3,0.3-0.5,0.3-0.7c0.1-0.2,0.2-0.6,0.4-0.7c0.3,0.1,0.4,1,0.5,1.2c0.1,0.3,0.1,0.4,0.2,0.7
				c0.1,0.3,0.1,0.5,0.1,0.8c0,1.5,0.6,3,1.4,4.3c0.4,0.6,0.6,1.2,1.1,1.8c0.4,0.5,0.8,0.9,1.2,1.4c0.4,0.5,0.9,0.9,1.5,1.2
				c0.7,0.4,1.4,0.5,2.1,0.8c0.6,0.2,1.1,0.1,1.7,0.1c0.8,0,1.6-0.4,2.2-0.9c0.8-0.6,1.4-1.5,2-2.2c0.5-0.5,0.7-1.2,1.1-1.8
				c0.4-0.7,0.8-1.3,0.9-2.1c0-0.4,0.1-0.7,0.2-1c0.1-0.6,0-1-0.1-1.6c-0.1-0.5-0.2-1-0.3-1.4c-0.1-0.4-0.2-0.8-0.1-1.2
				c0.1-0.4,0.5-0.6,0.8-0.9c0.5-0.4,0.9-0.8,1.4-1.2c1-1,2.1-1.8,2.9-2.9c0.3-0.4,0.7-1,0.5-1.6c-0.1-0.2-0.2-0.5-0.3-0.6
				c-0.3-0.2-0.8-0.1-1.2-0.1c0.1-0.5,0.3-0.9,0.6-1.3c0.2-0.4,0.5-0.8,0.7-1.2c0.4-0.7,0.9-1.3,1.3-2c0.5-0.9,1-1.8,1.4-2.7
				c0.5-0.9,1-1.8,1.4-2.8c0,0.1,0.5-1.3,0.8-1.2c0.3,0.8,0.6,1.6,0.9,2.4c0.3,1,0.7,1.9,1.1,2.9c0,0,0,0,0,0c-0.1,0.5-0.2,1,0,1.5
				c0.3,0.5,0.5,1.1,0.9,1.6c0.2,0.3,0.5,0.4,0.8,0.7c0.2,0.2,0.4,0.4,0.6,0.6c0.2,0.2,0.4,0.2,0.6,0.4c0.3,0.2,0.5,0.5,0.8,0.7
				c0.4,0.3,0.6,0.3,0.1,0.7c-0.2,0.1-0.4,0.3-0.6,0.4c-0.1,0.1-0.2,0.3-0.4,0.5c-0.4,0.4-0.7,0.8-0.5,1.4c0.2,0.9,1.2,1.7,1.8,2.2
				c0.6,0.5,1,1,1.6,1.4c0.3,0.2,1.2,0.8,1.1,1.2c-0.2,0.3-0.3,0.5-0.5,0.8c-0.1,0.2-0.3,0.4-0.4,0.6c-0.3,0.4-0.3,0.9-0.4,1.3
				c-0.1,0.4-0.1,0.7,0.1,1.1c0.2,0.5,0.2,1,0.4,1.5c0.3,0.6,0.7,1.2,1.1,1.8c0.2,0.3,0.4,0.7,0.7,0.9c0.3,0.3,0.7,0.5,1,0.7
				c0.4,0.3,0.7,0.8,1.1,1.1c1.2,0.8,2.6,1.7,4,2.1c1.2,0.4,2.5,0.7,3.7,0.9c0.5,0.1,1.1,0.1,1.6,0.2l0.7,0c0-0.6,0-0.8,0.3-1.4
				c0.1-0.2,0.3-0.5,0.4-0.7c0.1-0.3,0.1-0.5,0.2-0.8c0.1-0.4,0.3-0.8,0.4-1.3c0.1-0.2,0-0.5,0-0.8c0-0.4,0.1-0.9,0-1.3
				c-0.1-0.5-0.5-0.9-0.7-1.4c-0.2-0.5-0.5-0.7-1.1-0.5c-0.4,0.1-0.7,0.2-1.2,0.2c-0.2,0-0.5,0-0.7,0c-0.3,0-0.5-0.2-0.8-0.2
				c-0.6-0.2-1-0.4-1.5-0.7c-0.4-0.2-1.2-0.8-1-1.3c0.2-0.5,0.7-1.1,1.1-1.5c0.3-0.3,0.5-0.8,0.7-1.2c0.3-0.7,0.5-1.5,0.6-2.3
				c0-0.3,0.2-1.3-0.1-1.6c-0.3-0.3-1.4,0.1-1.9,0c0-0.1,0.1-0.2,0.2-0.3c0.2-0.2,0.3-0.5,0.4-0.8c0.1-0.1,0.2-0.2,0.3-0.3
				c0.2-0.2,0.3-0.5,0.5-0.8c0.9-1.3,1.8-2.6,2.7-4c0.3-0.4,0.6-0.9,0.8-1.3c0.6-1.1,0.9-2.3,1.4-3.4c0.3-0.7,0.7-1.5,1-2.2
				c0.1-0.3,0.2-0.6,0.3-1c0,0.3,0,0.5,0.1,0.8c0.1,0.4,0.4,0.6,0.6,1c0.5,0.7,0.9,1.4,1.4,2c0.2,0.3,0.5,0.6,0.8,0.9
				c0.3,0.4,0.5,0.8,0.7,1.1c0.5,0.7,1.5,1,2.1,1.6c0,0.3-0.5,0.3-0.7,0.4c-0.3,0.1-0.5,0.4-0.6,0.7c-0.3,0.5-0.1,0.7,0.2,1.1
				c0.2,0.3,0.3,0.5,0.5,0.8c0.4,0.6,0.9,1.1,1.5,1.5c0.3,0.2,1.6,1,1.3,1.4c-0.1,0.2-0.6,0.3-0.8,0.4c-0.3,0.2-0.6,0.4-0.9,0.5
				c-0.9,0.5-0.4,1.7,0.1,2.3c0.3,0.4,0.7,0.8,1,1.1c0.3,0.3,0.6,0.6,1,0.9c0.3,0.2,0.9,0.4,1.4,0.4l0-0.1c0.7,0,1.3-0.8,1.6-1.3
				c0.2-0.4,0.5-0.7,0.6-1.1c0.1-0.3,0.3-0.6,0.5-0.9c0.3-0.7,0.5-1.4,0.6-2.1c0.1-0.6,0.3-1.3,0.4-2c0-0.2,0.2-1.6,0.5-1.6
				c0.3,0.3,0.3,0.9,0.5,1.3c0.2,0.4,0.3,0.8,0.4,1.2c0.2,0.4,0.4,0.9,0.7,1.3c0.2,0.4,0.6,1.2,1.1,1.3c0.3,0.1,0.8-0.1,1-0.4
				c0.2-0.2,0.3-0.4,0.5-0.6c0.2-0.2,0.4-0.4,0.5-0.7c0.2-0.4,0.5-0.8,0.7-1.2c0.2-0.3,0.2-0.6,0.3-1c0.1-0.3,0.2-0.5,0.3-0.8
				c0.2-0.6,0.5-1.3,0.6-2c0.1-0.7,0.3-1.3,0.3-2c0-0.4-0.1-1,0-1.5c0.1-0.3,0.4-0.4,0.6-0.6c0.3-0.3,0.6-0.6,0.8-0.9
				c1.2-1.4,2.2-3,3-4.7c0.6-1.2,1-2.4,1.5-3.6c0.3-0.7,0.6-1.4,0.8-2.1c0.1-0.3,0.1-0.8,0.3-1c0.2,0.2,0.3,0.5,0.4,0.8
				c0.3,0.7,0.6,1.4,0.8,2.2c0.3,0.9,0.7,1.6,1.3,2.4c0.5,0.7,1.1,1.9,2,2.2l0.5-0.1c0.3-0.3,0.4-0.7,0.6-1c0.3-0.4,0.3-0.9,0.4-1.4
				c0.1-0.3,0.2-0.5,0.2-0.8c0-0.2,0-0.4,0-0.5c0-0.5,0-1,0-1.4c0-0.3,0.1-0.5,0.1-0.8c0-0.3,0.1-0.7,0.1-1c0.1-0.4,0.3-0.8,0.3-1.3
				c0-0.2,0.1-0.5,0.1-0.7c0-0.1-0.1-0.4,0-0.5c0.4,0.4,0.5,1,1,1.3c0.6,0.3,1.5,0.4,2,0.1c0.7-0.4,0.9-0.9,1.3-1.6
				c0.2-0.5,0.4-1,0.6-1.5c0.1-0.3,0.2-1,0.4-1.1c0.3,0.3,0.4,1,0.6,1.3c0.2,0.3,0.3,0.7,0.4,1c0.4,1,1,1.9,1.7,2.7
				c0.4,0.4,0.8,0.8,1.3,1.1c0.5,0.4,1,0.9,1.6,1.3c0.6,0.4,1.1,0.8,1.7,1.1c0.3,0.2,0.9,0.4,1.1,0.8c-0.2,0.2-0.6,0.2-0.8,0.4
				c-0.6,0.5,0.2,1.5,0.4,1.9c0.4,0.7,0.7,1.4,1.1,2c0.4,0.5,0.8,0.9,1.3,1.4c0.4,0.4,0.8,0.6,1.2,0.9c0.5,0.3,1.1,0.7,1.6,0.3
				c0.3-0.2,0.6-0.7,0.8-1c0.4-0.6,0.8-1.4,1-2.1c0.3-0.7,0.7-1.7,1.4-2c0.8-0.3,1.5,0.1,2.1,0.4c0.4,0.2,0.5,0.4,0.8,0.9
				c0.7,1.4,1.3,2.9,2.2,4.3c0.8,1.2,1.6,2.3,2.7,3.3c0.8,0.7,1.7,1.3,2.4,2c-0.2,0.3-1,0.1-1.3,0.1c-0.4,0-0.8,0-1.2-0.1
				c0.1,0.5,0.6,1,0.9,1.4c0.3,0.4,0.7,0.9,1,1.3c-0.4,0.1-0.9-0.6-1.3-0.2c-0.3,0.2-0.2,0.9-0.2,1.3c0,0.4,0,0.6,0.2,0.9
				c0.2,0.3,0.3,0.7,0.5,1c0.4,0.8,0.9,1.6,1.3,2.5c0.5,0.9,1.3,1.2,2.2,1.4c0.9,0.1,1.8,0.2,2.7,0.2c0.9,0.1,1.8-0.1,2.7-0.2
				c0.8-0.1,1.7-0.4,2.3-0.9c0.6-0.5,0.9-1.1,1.3-1.7c0.3-0.6,0.5-1.2,0.8-1.8c0.2-0.3,0.3-0.6,0.4-0.9c0.1-0.4,0.3-0.9,0.5-1.3
				c0.1-0.5,0.3-1.1,0.3-1.6c0-0.6-0.1-0.9-0.6-1.3c0.1-0.3,1.1-0.3,1.4-0.3c0.9-0.1,1.9-0.2,2.8-0.4c0.6-0.1,1.2-0.2,1.6-0.6
				c0.5-0.3,0.8-0.8,1.2-1.2c0.5-0.6,0.9-1.2,1.3-1.9c0.3-0.6,0.7-1.1,1-1.7l0.2,0.1c0.1-0.2,0.2-0.3,0.3-0.4c0.2-0.3,0.2-0.6,0.4-1
				c0.2-0.3,0.4-0.4,0.5-0.8c0.1-0.3,0.1-0.6,0.2-0.9c0.2-0.8,0.3-1.5,0.4-2.2c0.1-0.3,0.1-0.5,0.1-0.8c0-0.2,0-0.6,0.3-0.6
				c0.2,0.3,0.4,0.7,0.5,1.1c0.1,0.4,0.3,0.8,0.4,1.2c0.2,0.6,0.5,1.3,0.8,1.8c0.4,0.5,1,0.9,1.5,1.3c0.3,0.2,0.6,0.4,0.9,0.6
				c0.4,0.2,0.8,0.5,1.3,0.6c0.1,0,0.6,0.1,0.6,0.3c-0.2,0.1-0.7-0.1-0.6,0.3c0,0.8,1.9,1.2,2.4,1.4c1.1,0.4,2.1,0.8,3.2,1.1
				c0.2,0.1,1.6,0.2,1.6,0.5c-0.2,0.1-0.5,0.2-0.7,0.3c-0.3,0.1-0.6,0.3-0.9,0.5c-0.8,0.6-0.4,1.6,0,2.3c0.7,1.1,2,2.1,3.2,2.7
				c0.3,0.2,0.5,0.2,0.5,0.6c-0.1,0.4-0.3,0.7-0.2,1.2c0,0.8,0.1,1.5,0.5,2.2c0.3,0.5,0.6,1.2,1,1.6c0.3,0.2,0.5,0.4,0.9,0.4
				c0.5,0,0.8-0.4,1.2-0.8c1.5-1.7,2.6-3.6,3.3-5.7c0.4-1.3,0.6-2.7,0.7-4c0-0.3,0.1-0.7,0.2-1.1c0.1,0.5,0.3,1,0.6,1.5
				c1,2.1,2.4,3.9,4.1,5.5c1.2,1.2,2.5,2.3,3.8,3.3c0.5,0.4,1.2,0.9,1.6,1.5c0.2,0.3,0.3,0.8,0.4,1.2c0.1,0.6,0.3,1.2,0.5,1.8
				c0.7,1.7,1.5,3.3,2.3,4.9c0.6,1,1.2,2,1.6,3.1c0.2,0.6,0.3,1.2,0.3,1.9c0.1,0.5,0.1,1,0.1,1.5c0,0.1,0,0.2,0.1,0.2
				c0.3-0.1,0.5-0.5,0.7-0.8c0.3-0.3,0.5-0.6,0.8-0.9c0.3-0.4,0.6-0.7,0.9-1.1c0.2-0.3,0.4-0.6,0.6-0.8c0.6-0.5,0.8-1.2,1.3-1.8
				c0.1-0.1,0.2-0.2,0.3-0.3c0.1-0.1,0.1-0.3,0.2-0.4c0.1-0.3,0.3-0.7,0.5-0.9c0.2,0.1,0.2,0.4,0.3,0.5c0.1,0.3,0.2,0.6,0.4,0.9
				c0.3,0.4,0.5,0.5,0.9,0.3c0.4-0.2,0.9-0.4,1.3-0.6c0.4-0.3,0.7-0.6,0.9-1.1c0.3-0.5,0.7-1,1-1.5c0.4-0.8,0.8-1.6,1.2-2.4
				c0.8-1.6,1.4-3.3,1.7-5c0.5,0.2,0.7,1.7,0.9,2.1c0.2,0.7,0.4,1.4,0.6,2c0.3,0.7,0.5,1.5,1,2c0.2,0.2,0.3,0.4,0.5,0.6
				c0.1,0.3,0.2,0.5,0.4,0.7c0.5,0.5,1.1,0.9,1.6,1.5c0.3,0.4,0.7,0.7,0.9,1.2c0.2,0.3,0.3,0.5,0.4,0.9c0.1,0.3,0.2,0.6,0.4,0.8
				c0.3-0.3,0.3-0.8,0.5-1.1c0.1-0.3,0.3-0.6,0.4-0.9c0.4-1,1-2,1.7-2.9c0.9-1.2,1.5-2.6,2.1-3.9c0.3-0.8,0.7-1.5,1-2.3
				c0.1-0.3,0.1-1.2,0.4-1.4c0.3,0.4,0.4,0.8,0.6,1.2c0.3,0.7,0.5,1.5,0.8,2.2c0.3,0.8,0.5,1.7,1,2.4c1.2,1.8,3.7,1.8,5.1,3.2
				c0.5,0.5,1.4,1.3,1.7,2c0.2,0.5,0.3,1.2,0.5,1.7c0.2,0.5,0.3,1.1,0.8,1.3c0.8,0.3,1.6,0.5,2.4,0.9c0.7,0.4,1,0.6,1,1.5
				c0,1.2-0.1,2.3-0.4,3.4c-0.1,0.3-0.2,0.7-0.1,1c0.1,0.3,0.4,0.4,0.6,0.6c0.2,0.2,0.5,0.4,0.7,0.6c0.3,0.2,0.6,0.3,0.8,0.5
				c0.4,0.4,0,1-0.2,1.4c-0.5,0.8-0.9,1.6-1,2.6c-0.1,1.8,2.2,2.1,3.5,2.3l0.1,0.2c0.5-0.2,1.2-0.6,1.3-0.8c0.3-0.2,0.6-0.5,0.8-0.8
				c0.2-0.3,0.3-0.8,0.5-1.1c0.3-0.7,0.7-1.5,1.2-2c0.6-0.6,1.4-0.9,2.1-1.1c0.5-0.1,0.9,0.2,1.4,0.2c0.6,0,1,0,1.5-0.2
				c0.4-0.2,0.7-0.4,1.1-0.7c0.2-0.2,0.5-0.3,0.7-0.5c0.2-0.2,0.5-0.5,0.7-0.7c0.4-0.4,0.6-0.9,1-1.3c0.7-0.7,1.1-1.6,1.7-2.5
				c0.2-0.4,0.5-0.7,0.7-1c0.1-0.2,0.2-0.5,0.3-0.7c0.4,0.4,0.5,1.3,0.7,1.8c0.1,0.3,0.2,0.6,0.4,0.9c0.4,0.6,0.7,1.2,1,1.8
				c0.4,0.7,1.1,1.3,1.7,1.9c0.3,0.3,0.7,0.6,1.1,0.9c0.2,0.1,0.5,0.3,0.5,0.5c0,0.2-0.5,0.6-0.6,0.8c-0.1,0.2-0.2,0.4-0.3,0.7
				l-0.2-0.1c0,0.1-0.1,0.1-0.2,0.2c-0.1,0.1-0.2,0.3-0.2,0.5c-0.1,0.3-0.3,0.7-0.3,1.1c0,0.4,0.2,0.5,0.5,0.7
				c0.3,0.2,0.7,0.5,1,0.6c0.5,0.2,0.9,0.4,1.4,0.7c0.4,0.2,0.7,0.5,1.1,0.6c0.3,0.1,0.5,0.2,0.8,0.3c0.3,0.1,0.7,0.1,0.9,0.3
				c-0.2,0.4-1.2,0.5-1.6,0.6c-0.6,0.3-1.3,0.4-1.8,1c-0.6,0.8,0.2,1.5,0.7,2.3c0.3,0.4,0.9,0.8,1.3,1c0.4,0.2,0.8,0.2,1.2,0.3
				c0.8,0.1,1.6,0.3,2.3-0.2c0.3-0.2,1.2-1.2,1.6-1c0.3,0.7,0.1,1.3,0.2,2c0.2,0.7,0.7,1.3,1,1.9c0.7,1.1,1.3,2,2.1,3
				c0.6,0.7,1.3,1,1.9,1.5c-0.1,0.3-0.7,0.3-0.9,0.3c-0.5,0.1-1,0-1.5,0.2c-0.2,0.1-0.4,0.3-0.5,0.5c-0.2,0.4,0,0.7,0.3,1
				c0.5,0.6,1.1,1.2,1.7,1.7c0.5,0.4,1,0.7,1.4,1c0.9,0.6,1.8,1.2,2.8,1.6c0.5,0.2,1.1,0.3,1.5,0.6c-1.8,0.9-3.9,0.7-5.8,1.2
				c-0.7,0.2-1.7,0.6-1.4,1.5c0.1,0.3,0.4,0.9,0.6,1.1c0.4,0.4,1.3,0.5,1.8,0.7c1.3,0.3,2.8,0.5,4.2,0.2c1.6-0.4,2.4-1.7,2.9-3.1
				c0.2-0.5,0.2-1.1,0.3-1.6c0.1-0.6,0.2-1.2,0.4-1.8c0.4-1.7,1.3-3,2-4.6c0.4,0,0.9-0.1,1.2-0.3c0.4-0.2,0.7-0.5,0.9-0.8
				c0.3-0.3,0.5-0.7,0.8-1c0.2-0.4,0.5-0.9,0.8-1.3c0.3-0.5,0.4-1,0.8-1.4c0.4-0.5,0.4-1.2,0.5-1.8c0.1-0.5,0-1.1,0-1.7
				c0-0.4-0.1-1,0-1.4c0.4,0.5,0.4,1.3,0.7,1.9c0.4,0.8,0.7,1.6,1.3,2.3c0.9,1.1,1.7,2.4,2.6,3.5c0.3,0.4,0.7,0.8,1.1,1.1
				c0.4,0.3,0.8,0.5,1.2,0.8c0,0.7-2.5,0.7-3,0.9c0,0.3,0.5,0.7,0.6,0.9c0.4,0.5,0.9,0.9,1.4,1.3c0.4,0.4,0.8,0.7,1.2,1
				c0.2,0.1,0.5,0.3,0.6,0.5c-0.1,0.2-0.5,0.3-0.6,0.5c-0.3,0.2-0.5,0.7-0.5,1c-0.1,0.5-0.1,1,0,1.5c0.1,0.7,0.6,1.3,1,1.8
				c0.4,0.5,0.8,0.9,1.4,1.1c0.8,0.4,2.3,0.2,3.1-0.2c0.7-0.3,1.1-0.8,1.6-1.4c0.4-0.4,0.5-0.8,0.6-1.4c0.2-0.9,0.3-1.7,0.3-2.5
				c0-0.8,0-1.7,0-2.5c0-0.3,0-0.7,0.2-1c0.1-0.2,0.5-0.3,0.7-0.4c0.5-0.3,0.8-0.1,1.2,0.3c0.5,0.5,0.7,1.1,1.1,1.6
				c0.3,0.5,0.5,0.8,0.6,1.4c0.8,0.1,1.5-0.4,2.2-0.8c0.6-0.4,0.9-0.9,1.2-1.5c0.4-0.7,0.8-1.4,1.1-2.1c0.1-0.3,0.3-0.7,0.3-1
				c0-0.3,0-0.4,0.2-0.5c0.4,1.1,0.9,2.1,1.3,3.2c0.6,1.6,1.4,3.1,2.3,4.5c0.6,0.9,1.3,2,2,2.8c0.2,0.2,0.9,0.7,0.8,1
				c-0.1,0.4-1.2,0.3-1.5,0.3c-0.4,0-1.2-0.1-1.4,0.3c-0.2,0.2,0.2,1,0.3,1.3c0.2,0.5,0.4,0.9,0.6,1.3c0.8,1.3,2.2,2.2,3.4,3.1
				l0.3,0.2c0.3-0.3,0.5-0.7,0.6-1.1c0.1-0.4,0.3-0.8,0.4-1.2c0.3-1.1,0.3-2.3,0.3-3.5c0-0.3,0-0.5,0-0.8c0-0.4,0.3-0.4,0.7-0.4
				c0.9,0,1.3-0.6,1.8-1.3c0.4-0.8,0.8-1.7,1-2.6c0.1-0.4,0.3-0.7,0.4-1.1c0.1-0.5,0.1-1.1,0.3-1.6c0.4,0,0.7,1.4,0.8,1.7
				c0.2,0.6,0.4,1.1,0.8,1.6c0.4,0.6,0.8,1.1,1.4,1.5c0.4,0.3,0.7,0.3,1.1,0c0.5-0.3,1-0.5,1.4-1c0.6-0.8,0.8-1.8,1-2.8
				c0.1-0.8,0.1-1.6,0-2.4c-0.1-0.5-0.2-1-0.2-1.4c-0.1-0.5-0.2-1.1,0-1.6c0.5,0.2,0.5,0.9,0.6,1.3c0.2,0.6,0.4,1.1,0.6,1.7
				c0.6,1.5,1.7,2.7,2.8,3.9c0.9,1,2,2.1,3.2,2.7c0.4,0.2,0.8,0.4,1.3,0.5c0.4,0.1,1,0.2,1.4,0.4c-0.6,0.3-1.3,0.3-1.8,0.8
				c-0.5,0.5-0.8,1-0.6,1.7c0.4,1.1,1.5,1.5,2.4,2.1c0.3,0.2,0.6,0.5,1,0.6c0.2,0.1,0.6,0,0.8,0.2c-0.3,0.5-0.8,0.8-1.1,1.4
				c-0.2,0.5-0.1,1.2,0.2,1.7c0.4,0.6,1,1.2,1.5,1.8c0.3,0.3,0.6,0.7,1,1c0.2,0.2,0.5,0.3,0.6,0.5c0.1-0.1,0.2-0.3,0.3-0.5
				c0.2-0.3,0.5-0.6,0.7-0.8c0.3-0.4,0.8-0.8,1.2-1.2c1-1.3,0.8-2.9,0.8-4.4c0-0.3-0.1-1,0.1-1.3c0.2-0.1,0.4-0.2,0.6-0.2
				c0.1-0.1,0.3-0.2,0.4-0.3c0.3-0.3,0.5-0.6,0.8-0.9c0.6-0.7,1-1.5,1.4-2.3c0.2-0.4,0.5-0.7,0.7-1.1c0.1-0.2,0.1-0.9,0.3-0.9
				c0.2,0.5,0.1,1.1,0.2,1.6c0.3,1.2,0.6,2.4,1,3.5c0.5,1.4,0.8,2.7,1.9,3.8c0.8,0.8,2.2,1.7,3.3,1.8c1.1,0.1,2-0.4,2.5-1.3
				c0.5-0.9,0.4-2,0.4-3c0-0.5,0.1-1.1,0-1.7c0-0.2-0.1-0.3,0-0.5c0.1-0.3,0.6-0.6,0.8-0.8c0.5-0.4,1-0.8,1.4-1.3
				c0.3-0.3,0.4-0.7,0.6-1c0.2-0.4,0.5-0.7,0.7-1.1c1-1.9,1.5-4.2,1.8-6.3c0.2,0,0.3,0.5,0.4,0.7c0.3,0.7,0.5,1.3,0.8,2
				c0.3,1,0.8,2,1.3,3c1.1,1.9,3,3.4,4.9,4.5c0.9,0.5,2.4,0.4,3.2-0.3c0.8-0.7,0.8-1.6,0.9-2.6c0.1-1,0.1-2.1-0.2-3.2
				c0.4,1.7,1,3.2,2,4.7c0.6,0.9,1,1.9,1.7,2.8c0.4,0.5,0.9,1,1.3,1.5c0.6,0.6,1.2,1.2,1.9,1.7c0.2,0.1,1.4,0.8,1.4,1.2
				c0,0.3-0.3,0.4-0.5,0.6c-0.3,0.4-0.4,1-0.4,1.5c0.1,0.6,0.3,1.2,0.6,1.8c0.3,0.8,0.7,1.5,1.2,2.2c0.4,0.5,0.7,1.2,1.1,1.7
				c0.5,0.5,1.3,0.7,1.9,0.9c0.8,0.2,1.2,0.2,1.8-0.2c0.6-0.4,1-0.7,1.3-1.3c0.8-1.3,1.1-2.6,1.3-4.1c0-0.1,0-0.1,0-0.2
				c0.1-0.3,0.3-0.5,0.5-0.7c0.2-0.3,0.2-0.6,0.4-0.9c0.2-0.3,0.4-0.5,0.6-0.8c0.2-0.4,0.3-0.8,0.4-1.2c0.3-0.8,0.2-1.5,0.4-2.4
				c0.2-0.8,0.1-1.6,0.1-2.4c0-0.5-0.1-0.8-0.2-1.2c-0.1-0.2-0.1-0.2,0-0.5c0.1-0.3,0.6-0.7,0.9-0.9c0.4-0.4,0.8-0.7,1.2-1.1
				c0.3-0.4,0.5-0.7,0.7-1.1c0.7-1.2,1.5-2.3,2.1-3.5c0.4-0.9,0.9-2.1,0.8-3.2c0.2,0.3,0.2,0.9,0.3,1.3c0.2,0.8,0.4,1.7,0.7,2.5
				c0.7,1.8,1.8,3.5,2.7,5.2c0.5,1.1,0.9,2,1.7,2.9c0.3,0.4,0.6,0.8,1,1.2c0.2,0.3,0.6,0.5,0.8,0.8c0.6,0.9-1.4,0.4-1.9,0.6
				c-1,0.3-0.9,2.1-0.7,2.9c0.2,1.2,0.9,2,1.5,3.1c0.3,0.6,0.6,1.2,1.2,1.7c0.8,0.6,2.3,0.8,3.2,0.9c0.9,0,2.5-0.2,3.1-1l-0.3-0.2
				c0.6-0.6,0.9-1.3,1.2-2.1c0.3-0.7,0.3-1.5,0.3-2.2c0-0.7,0-1.4,0-2.1c0-0.4,0.1-0.8,0-1.2c-0.1-0.3-0.5-1-0.5-1.2
				c0.1-0.3,0.6-0.3,0.8-0.4c0.5-0.2,0.9-0.5,1.3-0.8c0.4-0.3,0.9-0.5,1.3-0.9c0.4-0.4,1-1.1,1.2-1.6c0.6-1.4,0.9-2.9,1.4-4.3
				c0.2-0.6-0.1-1.3,0.1-1.8c0.5,0.2,0.5,1.8,0.6,2.2c0.1,0.5,0.2,1.1,0.4,1.7c0.1,0.5,0.4,1,0.6,1.5c0.2,0.5,0.3,0.7,0.6,1.2
				c0.4,0.6,0.7,1.2,1.3,1.7c1,0.8,2.3,1.2,3.4,1.8l0.1-0.1c1.5,0,2.5-1,3.7-1.8c0.2-0.2,0.5-0.3,0.7-0.4c0.3-0.2,0.4-0.6,0.7-0.9
				c0.2-0.3,0.4-0.4,0.7-0.6c0.3-0.2,0.4-0.4,0.7-0.7c1-0.9,2.1-1.5,3.3-1.9c1.8-0.7,4-0.5,5.9-0.5c1.2,0,2.4,0.2,3.6,0.4
				c0.8,0.1,1.5,0.1,2.3,0.1c1.1,0,2.2-0.5,3.2-1c1.7-0.8,3.1-2.2,4.2-3.7c0.6-0.8,1.1-1.9,1.4-2.8c0.2-0.5,0.4-1.1,0.6-1.7
				c0.1-0.3,0.1-0.6,0.2-0.8c1.2,1.4,1.6,3.2,2.8,4.6c0.5,0.6,1.5,1.4,2.3,1.6c1,0.3,2.3,0.4,3.4,0.5c1.3,0.1,2.7,0,4,0
				c2.3,0,4.5,0,6.8,0c3.1,0,6.2,0.1,9.3,0c0.9,0,1.7-0.3,2.5-0.5c0.7-0.2,1.3-0.3,1.8-0.7c1-0.8,2-1.7,2.5-2.8
				c0.4-0.8,0.5-1.8,1-2.5c0.5-0.7,1.1,0.4,1.5,0.7c0.6,0.4,1.2,0.8,2,0.8c1.1,0,2.2-0.5,3.2-0.9c0.5-0.2,1.2-0.8,1.8-0.8
				c0.3,0.3,0.4,0.8,0.5,1.2c0.3,0.8,0.6,1.5,1.1,2.1c1,1,2.6,2,4,2.2c0.9,0.1,1.8,0.3,2.7,0.3c0.7,0,1.4-0.2,2.2-0.2l0,0.2
				c0.5,0,1.1,0.1,1.5-0.2c0.7-0.4,0.7-1.1,0.7-1.8c0-1.2-0.2-2.5,0.4-3.6c0.4-0.6,0.8-1.1,1.4-1.5c0.8-0.5,1.8-1,2.7-1.2
				c0.5-0.1,0.8-0.2,1.3-0.3c0.3,0,0.6-0.2,1-0.1c0.4,0.1,0.5,0.4,0.7,0.7c0.2,0.3,0.4,0.4,0.6,0.7c0.2,0.2,0.3,0.5,0.5,0.7
				c0.5,0.5,1.1,0.7,1.8,0.8c0.7,0.1,0.9,0.1,1.6-0.4c0.8-0.6,1.2-1.2,1.7-2c0.5-0.7,1-1.3,1.5-2.1c0.3-0.4,0.4-0.9,0.7-1.3
				c0.2-0.3,0.7-1.2,1.1-1.2c0.3,0,0.4,0.3,0.6,0.4c0.3,0.3,0.6,0.6,1,0.9c0.7,0.6,1.3,1,2.2,1.2c0.9,0.3,1.5,0.3,2.4-0.1
				c0.3-0.2,0.7-0.5,1-0.7c0.3-0.2,0.5-0.7,0.8-0.8c0.4-0.1,0.5,0.2,0.7,0.4c0.3,0.3,0.8,0.5,1.2,0.6c1.1,0.3,2.4,0.2,3.6,0.2
				c1.4,0,2.8-0.2,4.2-0.2c0.2-0.2,0.5-0.3,0.6-0.5c0.3-0.4,0.6-0.6,1-0.8c0.4-0.2,0.6-0.6,1-0.9c0.3-0.3,0.6-0.5,0.9-0.8
				c0.4-0.5,0.9-1,1.1-1.6c0.2-0.5,0.2-1.3,0.6-1.7c0.3,0.6,0.7,1.1,1.1,1.6c0.5,0.7,1,0.9,1.9,1.1c2.5,0.7,4.9,0.8,7.4,0.9
				c0.7,0,1.3,0,2-0.2c0.6-0.1,1.1-0.1,1.7-0.2c0.5-0.1,0.9-0.3,1.4-0.5c0.6-0.2,1.2-0.3,1.8-0.5c0.3-0.1,1-0.2,1.2-0.5
				c0.3-0.3,0.2-0.9,0.2-1.3c-0.1-0.6-0.3-1.2-0.4-1.9c-0.1-0.5-0.4-1.1-0.4-1.7c0.4,0,1.3,1.1,1.5,1.2c0.7,0.6,1.3,1,2.1,1.4
				c1.1,0.6,2.3,1,3.6,1.3c1.8,0.6,3.6,1.1,5.5,1.4c1.8,0.3,3.2,0.3,4.8-0.7c1.1-0.7,1.8-1.9,2.3-3.1h0.3c0,70.1,0,140.2,0,210.3
				h-0.5c-25,0-50,0-75.1,0c0,0-2,0-6,0c-13.6,0-27.3,0-41,0v0.5c-165.7,0-331.3,0-497,0c-0.3,0-0.7,0-1,0c-178.7,0-357.3,0-536,0
				c-0.7,0-1.3,0-2,0c-224.9,0-449.8,0-674.7,0c0-17.8,0-35.5,0-53.3h0.7c0-97.8,0-195.6,0-293.3h0.7c2.2,0,4.4,0,6.7,0
				c1.7,0,5.5-0.8,6.7,0.7l0.3,0.3c2.2,0,4.6-0.2,6.6,1c0.8,0.5,1.6,1.2,2.5,1.5c1,0.4,1.9,1.1,3,1.4c0.8,0.3,1.7,0.7,2.5,1
				c0.9,0.4,1.5,1.2,2.4,1.6c0.7,0.3,1.4,0.7,2.1,1.1c0.8,0.4,1.5,0.9,2.3,1.1c1.7,0.5,3.2,1.6,4.8,2.4c0.9,0.4,1.8,1.1,2.7,1.5
				c0.9,0.4,1.7,0.8,2.4,1.3c0.9,0.6,2.1,1.4,2.7,2.4c0.4,0.6,0.6,1.4,0.9,2.1c0.2,0.5,0.4,1,0.2,1.5c-0.3,1.1-1.5,1.9-2.2,2.7
				c-2.5,3,4.6,2.4,5.7,3.6c-0.3,0.5-1.2,0.7-1.7,1c-0.5,0.3-1.4,0.6-1.8,1c-0.6,0.6-0.7,2-0.8,2.8c-0.2,1.4,1,2.5,2.2,3
				c0.7,0.3,1.4,0.7,2.1,1c0.7,0.3,1.4,0.4,2.1,0.7c0.1,0.6-0.8,0.9-1.1,1.3c-0.5,0.8-0.6,2.4-0.4,3.3c0.2,0.8,0.9,1.9,1.7,2.2
				c1,0.3,2-0.1,3-0.4c2.5-0.9,5.3-1,7.9-1c1.1,0,2.2-0.1,3.3,0.1c0.8,0.1,1.7,0.3,2.5,0.4c1.7,0.2,3.4,0.1,5.1-0.2
				c2.2-0.5,4.5-1.6,6.6-2.3c3.1-1.1,6.1-3,8.9-4.6c2.3-1.4,4.5-3,6.9-4.3c0.9-0.5,1.1-0.2,1.5,0.6c0.6,1.3,1.1,2.6,1.6,4
				c0.4,1.3,1,2.7,1.8,3.8c0.7,0.9,1.6,1.5,2.4,2.3c0.3,0.3,0.7,0.9,1.1,0.9c0.5,0,0.9-0.6,1.2-1c0.9-1.2,1.4-2.4,2.4-3.5
				c0.3-0.3,1-1.3,1.4-1.2c0.6,0,1.2,1.5,1.3,1.8c0.6,1.1,1.1,2.4,1.7,3.5c0.6,1,1.4,1.9,2.2,2.8c0.7,0.7,1.5,1.3,2.2,2.1
				c0.4,0.4,1.5,1.3,1.6,2c-0.9,0.8-2.6-0.6-3.6-0.2c0.9,0.9,2.8,1.5,3.3,2.8c-0.3,0.7-1.3,0.3-1.7,0.8c-0.4,0.4,0.6,2.4,0.9,2.8
				c0.6,1,1.7,2.1,2.8,2.6c0.4,0.2,0.9,0.3,1.3,0.5c0.4,0.1,1.2,0.2,1.5,0.5c1,0,2.2,0.2,3-0.5c0.6-0.5,0.5-1,0.1-1.5
				c-0.2-0.3-1.1-0.5-1-0.9c1.6-0.5,3-1.5,4.1-2.8c0.4-0.5,0.6-1.1,0.9-1.7c0.2-0.4,0.5-0.8,0.5-1.2c0.3,1.2,1,2.5,1.9,3.3
				c0.7,0.6,1.1,1,1.9,1.3c1.3,0.5,0.2,0.7-0.3,1.5c-0.6,0.9,0,1.2,1,1.3c1,0.1,1.4,0.7,2.3,1.1c0.5,0.2,1.3,0.3,1.7,0.7
				c0.7,0.7-0.3,1.6-0.7,2.2c-0.3,0.5-0.4,1.1-0.3,1.8c0.2,1,1,1.4,1.5,2.3c0.5,0.7,1.1,1.6,1,2.5c-0.1,0.6-0.6,1.2-0.4,1.7
				c0.2,1,1.6,1.7,2.3,2.3c1,0.8,1.7,2.1,2.3,3.2c0.9,1.6,1.5,3.2,2.1,4.9c0.4,1.2,0.6,2.5,1.2,3.7c0.6,0,0.9-1.1,1.3-1.5
				c0.4-0.5,0.8-1.2,1.3-1.5c0.9-0.6,2.1-0.5,3-0.1c1.1,0.4,1.8,1.3,2.4,2.2c0.6,0.9,1.2,1.7,1.7,2.7c1.4,2.6,2.8,5.2,4.2,7.9
				c1.8,3.5,3.8,7.3,6.8,9.9c1.5,1.4,3.6,2.1,5.5,1c1.3-0.8,2.1-2,2.8-3.3c1.2-2.1,2.3-4.3,3.5-6.4c0.4-0.7,1.4-2.9,2.6-2.5
				c0.7,0.2,1.8,2.2,2.1,2.7c0.5,1,0.8,2,1.3,2.9c0.3,0.5,0.4,1,0.9,1.3c0.7,0.4,1.6,0.2,2.3,0.1c0.9-0.1,1.7-0.5,2.6-0.3
				c1.4,0.3,2.9,0.9,4.1,1.7c2.1,1.4,3,4.1,4.3,6.1c0.7,1,1.3,2,1.9,3c0.3,0.5,0.7,1.8,1.4,1.9c0.8-0.5,0.8-2.6,0.9-3.4
				c0.2-1.2,0.6-2.4,1.1-3.5c0.9-2.1,2.2-4,3.4-6c0.6-1,1.1-2.1,1.8-3.1c0.5-0.7,0.6-1.2,1.4-0.5c0.7,0.6,1,1.6,1.4,2.5
				c0.4,1.1,0.8,2.3,1.3,3.4c0.5,1.2,0.8,2.4,1.4,3.5c0.5,0.9,1.2,1.8,1.8,2.6c0.9,1.3,1.5,2.9,2.5,4.1c0.3,0.3,0.4,0.6,0.8,0.6
				c0.3,0,0.7-0.3,1-0.5c0.7-0.5,1.2-1.1,1.5-1.9c0.6-1.6,0.5-3.3,0-4.9c-0.3-0.8-0.2-1,0.4-1.7c1.4-1.5,3.1-2.6,4.5-4
				c1.6-1.5,3-3,4.1-4.9c0.6-1,1.2-2.1,1.7-3.2c0.2-0.4,0.4-1.1,0.8-1.4c0.7,0.1,1.1,1,1.5,1.4c0.5,0.5,1.3,1.1,2,1.3
				c1.2,0.5,2.7,0.3,4,0.2v0.1c0.6,0,1.7,1.6,2,2c0.6,0.5,1.3,0.9,1.8,1.5c0.6,0.5,1.2,1,1.9,1.4c0.9,0.5,2.1,1.3,3.1,1.4
				c1.1,0.1,2.1,0.4,3.2,0.7c2.1,0.6,4.4,0.9,6.6,0.8c0.6,0,1.6-0.1,1.8-0.8c0.2-0.5-0.3-1.1-0.6-1.4c-0.8-0.8-1.7-1.5-2.5-2.3
				c1.5,0.5,2.7,1.8,3.9,2.7c1.6,1.3,3.4,2.1,5.2,3.1c2.1,1.2,4.5,1.8,6.8,2.3c0.7,0.2,1.5,0.3,2.3,0.4c0.4,0.1,1,0.2,1.4,0
				c0.1-0.8-1.6-1-1.9-1.5c0.7-0.4,1.6,0,2.3,0.1c0.6,0.1,1.2,0.2,1.8,0.2c2,0,3.7-0.8,5.5-1.6c1.7-0.8,3.4-1.7,4.9-2.9
				c0.8-0.6,1.3-1.2,1.9-2c0.3-0.4,1-1.4,1.5-1.4c0.5,0.7,0.6,1.6,1,2.3c0.5,1,1.1,1.6,2,2.3c1.5,1.2,2.7,2.4,3.5,4.1
				c0.2,0.4,0.4,0.9,0.5,1.4c0.1,0.9,0,1.4,0.7,2.2c0.6,0.6,1.3,1.1,1.8,1.8c0.3,0.5,0.6,1.3,0.8,2c0.2,0.5,0.1,1,0,1.5
				c-0.2,0.6-0.7,1.1-0.9,1.8c-0.3,1.3,1.4,2.2,2.1,1c0.4-0.6,0.4-1.5,0.5-2.2c0.2-1.2,0.6-2.3,1-3.4c0.4-1.2,0.6-2.3,0.8-3.5
				c0.1-0.6,0.1-1.3,0.2-1.9c0.9,0.7,0.9,2.3,1.5,3.2c0.6,1,1.3,1.4,2.1,2c1,0.7,1.9,1.4,3.1,2c0.7,0.4,1.8,0.8,2.3,1.5
				c-0.1,0.4-0.9,0.7-1.2,0.9c-0.3,0.3-0.7,0.8-0.8,1.2c-0.2,0.9,0.5,1.8,1.2,2.2c1.7,1,3.3,1,5.2,1c1.9,0,3.8,0,5.6-0.3
				c1.5-0.3,2.5-0.8,3.1-2.2c0.7-1.7,1.2-3.4,1.4-5.3c0.1-1,0.3-2,0.4-3c0.1-0.7,0-1.4,0.2-2.1c0.4,0.8,0.5,1.8,0.8,2.6
				c0.4,1.1,0.9,2.1,1.6,3c1.6,1.9,3.9,3,5.9,4.3c0,0.7-1.1,0.8-1.5,1.4c0.3,0.7,1.7,0.9,2.2,1c1,0.2,2,0.4,2.9,0.7
				c0.8,0.3,1.9,0.8,2.8,1.1l0-0.1c1.2,0.2,1.4-0.9,1.7-1.8c0.1-0.5,0.2-1,0.4-1.5c0.1-0.4,0.4-0.8,0.5-1.1c0.3-0.7,0.3-1.3,0.7-2
				c0.5-0.9,1.2-1.7,1.7-2.6c0.3-0.5,0.5-1.2,0.7-1.7c0.1-0.3,0.3-0.5,0.4-0.7c0.2-0.6,0.1-1.2,0.2-1.8c0.2-1,0.7-2,1-3.1
				c0.2-0.6,0.4-2.1,1.2-2.3c0.6,0.5,1,1.8,1.3,2.5c0.2,0.6,0.4,1.1,0.7,1.6c0.4,0.9,0.6,1.9,1.1,2.7c0.3,0.4,0.7,0.7,1,1.1
				c0.2,0.4,0.3,0.8,0.6,1.2c0.6,0.9,1.2,1.9,1.9,2.8c0.6,0.8,1.3,1.5,1.9,2.3c0.9,1.1,1.9,1.7,3,2.6c0.4,0.3,1,0.6,0.6,1.2
				c-0.2,0.3-0.7,0.4-1,0.6c-1,0.8,0.3,2,1.1,2.5c1.1,0.7,1.5,1.6,1.9,2.8c0.2,0.5,0.4,0.8,1,0.7c0.6,0,1.3-0.6,1.9-0.8
				c0.6-0.3,1.2-0.5,1.8-0.8c2-0.8,4.2-1.2,6.3-1.8c0.7-0.2,1.4-0.4,2.1-0.6c0.7-0.1,1.3-0.1,1.7-0.8c0.3-0.6,0.2-1.4,0.5-2.1
				c0.3-0.7,0.6-1.3,0.9-2c0.7-2,1.7-3.8,2.6-5.7c0.4-0.8,1.2-2.8,2.2-3.1c0.6-0.1,0.8,0.5,1,1c0.3,0.7,0.8,1.5,1.3,2
				c0.9,1.1,2.4,0.5,3.5,0c1.5-0.7,3-1.2,4.6-1.3c2-0.3,3.2,1.4,4.4,2.7c1,1,1.8,2.2,2.8,3.2c0.2,0.2,0.5,0.4,0.7,0.6
				c0.1,0.1,0.1,0.2,0.3,0.3c0.2,0.1,0.4,0.3,0.7,0.4c0.2,0.1,0.5,0.2,0.8,0.3c0.2,0,0.2,0,0.4-0.2c0.1-0.2,0.2-0.4,0.2-0.6
				c0-0.2,0.1-0.3,0.1-0.6c0.1-0.3,0.1-0.7,0.2-1.1c0.1-0.3,0.2-0.4,0.3-0.7c0-0.2,0.1-0.4,0.3-0.6c0.2-0.1,0.5-0.3,0.8-0.3
				c0.5-0.1,0.7,0.5,0.8,0.9c0.2,0.5,0.4,1,0.5,1.5c0.1,0.3,0.2,0.5,0.4,0.7c0.2,0.3,0.3,0.6,0.5,0.9c0.4,0.5,0.7,1,1.2,1.5
				c0.5,0.5,0.8,0.6,1.5,0.7c0.9,0.2,1.7,0.1,2.5,0.1c0.5,0,0.9,0.1,1.3,0.1c0.4,0,0.8,0,1.3,0c2.4,0,4.7,0.3,7,0.3
				c1,0,2.1-0.3,3.1-0.7c0.4-0.2,0.6-0.3,0.8-0.7c0.2-0.4,0.5-0.7,0.7-1.1c0.2-0.4,0.3-0.9,0.5-1.4c0.3-0.7,0.6-1.4,0.9-2.1
				c0.3-0.7,0.5-1.4,0.9-2c0.2-0.4,0.3-0.8,0.5-1.2c0.4,0,0.6,0.8,0.7,1c0.2,0.4,0.4,0.7,0.6,1c0.3,0.5,0.5,1,0.8,1.5
				c0.4,0.6,0.7,1.3,1.1,1.8c0.5,0.6,1.3,1.2,1.9,1.6c0.6,0.3,1.3,0.5,1.9,0.8c0.7,0.2,1.3,0.6,2,0.7c0.6,0.1,1.2,0,1.7-0.2
				c1-0.3,2.1-0.6,3.1-1c0.9-0.3,1.7-0.6,2.6-0.8c0.9-0.3,1.9-0.4,2.9-0.6c1.8-0.4,3.6-0.6,5.4-0.9c1.7-0.3,3.3-0.5,5.1-0.7
				c1.3-0.1,2.6-0.4,3.9-0.3c1.5,0.1,3,0.1,4.4,0.3c0.9,0.1,1.8,0.3,2.7,0.5c0.6,0.1,1.3,0.2,1.9,0.5c0.9,0.3,1.5,0.7,2.1,1.5
				c1.5,2.2,3.2,4.4,4.3,6.8l0,0c0.1,0.3,0.2,0.6,0.3,0.9c0.2,0.5,0.5,1.1,0.8,1.5c0.2,0.2,0.5,0.4,0.7,0.6c0.2,0.2,0.2,0.4,0.3,0.6
				c0.1,0.2,0.3,0.4,0.5,0.6c0.1,0.3,0.3,0.5,0.5,0.8c0.4,0.5,0.7,0.9,1.2,1.4c0.4,0.4,0.9,0.9,1.1,1.4c0.3,0.5,0.6,0.9,1,1.3
				c0.3,0.4,0.6,0.9,0.9,1.2c0.3,0.3,0.5,0.9,0.8,0.3c0.2-0.7,0.2-1.5,0.2-2.2c0-0.9,0-1.8,0-2.6c0-0.3-0.1-0.7,0.3-0.8
				c0.2-0.1,0.4,0,0.6,0c0.3-0.1,0.5-0.2,0.8-0.4c0.5-0.3,1-0.6,1.2-1.2c0.3-0.6,0.4-1.3,0.6-1.9c0.2-0.7,0.5-1.3,0.8-1.9
				c0.6-1.4,0.8-2.9,0.8-4.4c0-0.7,0-1.5-0.2-2.2c-0.2-0.5-0.8-0.4-1.1-0.7c0.2-0.3,0.6-0.4,0.9-0.5c0.5-0.2,0.7-0.4,1-0.8
				c0.9-0.8,1.6-1.6,2.3-2.5c0.5-0.6,1-1.1,1.3-1.7c0.3-0.5,0.6-1.1,0.9-1.6c0.4-0.7,0.7-1.4,1-2.1c0.4,0.4,0.4,1,0.6,1.5
				c0.1,0.5,0.3,0.8,0.5,1.2c0.3,0.8,0.6,1.6,0.9,2.3c0.2,0.5,0.4,1.1,0.7,1.6c0.1,0.2,0.3,0.4,0.4,0.7s0.6,0.8,0.9,0.8
				c0.2,0,0.3-0.6,0.4-0.7c0.2-0.3,0.4-0.6,0.7-0.9c0.3-0.2,0.6-0.4,0.9-0.5c0.5-0.1,0.9,0.2,1.2,0.5c1,0.8,1.6,1.8,2.3,2.9
				c0.5,1,1.1,1.9,1.6,2.8h0.1c0.4,0.3,0.6,0.6,1.1,0.5c0.4,0,0.8-0.4,1.1-0.7c0.7-0.5,1.5-0.7,2.4-1c0.5-0.2,1.1-0.3,1.7-0.3
				c0.8,0,1.6,0.1,2.4,0.1c0.6,0,1.7,0.2,2.2-0.2c0.8-0.5,1.5-1.3,2.1-2.1c0.4-0.4,0.6-0.8,1-1.1c0.4-0.3,0.9-0.9,1.1-1.3
				c0.3-0.5,0.6-1.1,0.9-1.7c0.2-0.5,0.3-1,0.5-1.5c0.1-0.3,0.3-0.5,0.4-0.8c0.2-0.6,0.3-1.2,0.5-1.8c0.1-0.4,0.2-0.8,0.3-1.2
				c0.3,0.1,0.3,0.5,0.4,0.8c0.1,0.3,0.2,0.6,0.4,0.9c0.3,0.6,0.4,1.2,0.7,1.8c0.2,0.4,0.4,0.8,0.6,1.3c0.5,1,1.3,2,2.1,2.9
				c0.4,0.4,0.8,0.8,1.3,1.1c0.3,0.2,0.6,0.3,0.3,0.5c-0.4,0.5-1.2,0-1.7,0.2c-0.6,0.2,0.3,1.3,0.5,1.5c0.5,0.6,1,1.3,1.5,1.8
				c0.3,0.3,0.6,0.6,0.9,0.9c0.1,0.2,0.2,0.3,0.4,0.5c0.2,0.2,0.5,0.3,0.6,0.5c-0.2,0.2-0.7,0.2-0.9,0.2c-0.4,0-0.7,0.1-1.1,0.1
				c-0.2,0-0.4,0-0.5,0.2c-0.1,0.2,0,0.5,0.1,0.7c0.2,0.4,0.5,0.8,0.8,1.1c0.5,0.5,0.9,1.1,1.4,1.6c0.7,0.9,1.5,1.6,2.3,2.3
				c0.6,0.6,1.3,1,2,1.4c0.5,0.3,1,0.5,1.5,0.7c0.9,0.3,1.8,0.7,2.7,1c2,0.6,4,1,6.1,1l0.1,0.1c0.5,0.1,0.7-1.2,0.8-1.5
				c0.2-0.5,0.2-1.1,0.1-1.6c0-0.2-0.1-0.6-0.3-0.7c-0.1-0.2-0.4-0.2-0.6-0.3c-0.3-0.1-0.5-0.2-0.8-0.3c-0.2,0-0.5-0.1-0.7-0.1
				c-0.2,0-0.4-0.1-0.7-0.1c-0.3,0-0.6,0-0.9,0c-0.5-0.1-1-0.3-1.5-0.6c-0.5-0.3-0.9-0.7-1.3-1.2c-0.2-0.2-0.4-0.5-0.6-0.7
				c-0.2-0.2-0.5-0.2-0.6-0.4c0.1-0.2,0.5-0.2,0.7-0.3c0.3-0.1,0.5-0.4,0.8-0.6c0.8-0.8,1.1-2,1.3-3c0.2-1,0.4-2,0.5-3
				c0.1-0.5,0.1-1,0.2-1.5c0.1-0.5,0.2-1.1,0.2-1.6c0.1-0.8,0.4-1.5,0.5-2.2c0.2-0.9,1-1.5,1.5-2.2c0.9-1.3,1.7-2.8,2.5-4.1
				c0.3-0.6,0.6-1.1,0.8-1.7c0.1-0.4,0.3-0.7,0.3-1.1c0-0.2-0.1-0.5,0.2-0.5c0.4,0.4,0.7,1,1,1.5c0.3,0.4,0.5,0.7,0.8,1.1
				c0.4,0.8,1,1.7,1.8,2c0.5,0.2,1,0.4,1.5,0.3c0.6-0.1,1.1-0.5,1.5-0.9c0.4-0.4,0.8-0.8,1.2-1.3c0.3-0.4,0.6-0.8,1-1.1
				c0.1-0.1,0.3-0.4,0.6-0.4c0.3,0.6,0.3,1.4,0.6,2c0.4,0.9,0.9,1.7,1.3,2.6c0.6,1.2,1.3,2.5,2.1,3.6c0.3,0.4,0.6,0.9,1,1.2
				c0.2,0.2,0.5,0.4,0.7,0.7c0.2,0.3,0.1,0.6,0,0.9c-0.1,0.4-0.2,0.8-0.1,1.2c0.1,0.8,0.6,1.5,1.2,2.1c0.1,0.1,0.3,0.4,0.5,0.5
				c0.4,0.1,1.2-0.2,1.6-0.4c0.8-0.3,1.4-0.8,2-1.3c0.6-0.4,1.3-0.9,2-1.2c0.5-0.2,1.1-0.4,1.6-0.7c0.4-0.2,0.9-0.5,1.3-0.7l0.2,0.2
				c0.2-0.1,0.3-0.3,0.5-0.4c0.3-0.3,0.6-0.6,0.8-0.9c0.4-0.4,0.8-0.6,1.2-1c0.3-0.3,0.7-0.6,1-1c0.6-0.8,1.3-1.8,1.4-2.8
				c0.1-0.6-0.3-1.2-0.5-1.7c-0.1-0.3-0.2-0.4,0.2-0.5c0.5,0,1.2,0.2,1.6,0.3c2,0.4,4,0.8,6.1,1c0.9,0.1,1.8,0.3,2.7,0.2
				c0.5,0,0.9-0.2,1.3-0.5c0.5-0.5,1.1-1,1.5-1.6c0.4-0.7,0.7-1.8,0.8-2.6c0.1-0.6,0.2-1.2-0.1-1.8c-0.1-0.3-0.3-0.5-0.5-0.8
				c-0.1-0.3-0.3-0.5-0.5-0.7c-0.4-0.3-0.8-0.6-1.1-0.9c-0.3-0.2-0.6-0.4-0.9-0.6c0.2-0.2,0.5-0.1,0.7-0.1c0.4,0,0.7-0.1,1-0.2
				c0.7-0.2,1.4-0.5,2.1-0.7c1.1-0.4,2-1.3,2.9-2c0.6-0.6,1.3-1.1,1.7-1.9c0.4-0.8,0.5-1.4,0.6-2.3c0-0.6,0.3-1.1,0.4-1.7
				c0.2-0.6,0.4-1.3,0.6-1.9c0.1,0.2,0,0.8,0,1.1c0,0.6,0,1.2,0.1,1.8c0.2,1.5,0.7,3.1,1.7,4.3c0.5,0.5,0.9,0.8,1.6,0.9
				c0.5,0.1,1.1,0,1.6,0.1c-0.1,0.5-2.1,1.4-1.1,1.9c0.7,0.4,1.6-0.1,2.2-0.4c0.9-0.4,1.7-0.8,2.5-1.4c0.4-0.3,0.8-0.6,1.2-1
				c0.3-0.4,0.4-0.9,0.6-1.4c0.1-0.3,0.2-0.6,0.2-0.9c0.1-0.3,0.1-0.7,0.2-1c0.6-0.1,0.8-0.7,1.3-1c0.2-0.1,0.2-0.2,0.3,0
				c0.1,0.1,0.1,0.3,0.1,0.4c0,0.4,0.1,0.7,0.3,1.1c0.2,0.6,0.4,1.2,0.9,1.7c0.4,0.4,0.9,0.8,1.3,1.2c0.3,0.3,0.6,0.4,1,0.6
				c0.5,0.3,1.2,0.6,1.7,0.5c0.5-0.1,0.9-0.3,1.3-0.5c0.2-0.2,0.5-0.3,0.7-0.5c0.2-0.1,0.2-0.4,0.4-0.5c0.5-0.4,0.7-0.8,1.1-1.2
				c0.4-0.5,0.9-0.9,1.4-1.4c0.6-0.7,1.2-1.4,1.8-2.1c0.6-0.6,1.3-1.3,1.9-1.9c0.5-0.5,0.9-0.9,1.4-1.3c0.4-0.4,0.8-0.9,1.1-1.4
				c0.5-0.6,0.9-1.1,1.4-1.7c0.8-0.8,1.6-1.4,2.4-2.1c1.4-1.2,3-2.1,4.6-2.8c2.5-1.1,5.1-1.3,7.8-1.3c1,0,2-0.1,2.9,0.1
				c1.5,0.3,2.8,0.7,4.2,1.3c3.1,1.3,6.1,2.9,9.3,4.2c1.3,0.5,2.7,1.1,4,1.5c0.7,0.2,1.4,0.4,2.1,0.6c0.5,0.2,1,0.4,1.5,0.6
				c0.4,0.2,0.9,0.2,1.3,0.4c0.4,0.2,0.5,0.3,0.8,0c0.5-0.4,0.8-0.9,1.2-1.4c0.3-0.5,0.8-0.9,0.9-1.5c0.2-1.2,1-2.3,1.2-3.5
				c0.2-0.8,0.2-1.6,0.1-2.4c0-0.4-0.2-0.7-0.2-1c-0.1-0.6,0.4-1,0.8-1.4c1-1,2.3-1.9,3.1-3.1c0.3-0.4,0.5-0.9,0.8-1.4
				c0.4-0.8,0.9-1.4,1.1-2.3v0c0.1,0,0.1-0.1,0.2-0.2c0.2-0.2,0.2-0.4,0.3-0.6c0.1-0.2,0.3-0.4,0.4-0.6c0.1-0.3,0.2-0.4,0.4-0.6
				c0.3-0.3,0.5-0.6,0.8-1c0.2-0.2,0.3-0.5,0.5-0.6c0.1-0.1,0.5-0.3,0.7-0.3c0.2,0,0.2,0.3,0.3,0.5c0.1,0.4,0.3,0.7,0.4,1.1
				c0.2,0.5,0.3,0.9,0.5,1.4c0.2,0.4,0.4,0.7,0.7,1.1c0.2,0.2,0.3,0.4,0.5,0.6c0.2,0.2,0.4,0.5,0.7,0.7c0.4,0.2,0.9,0.3,1.3,0.5
				c0.2,0.1,0.4,0.1,0.5,0.2c0.3,0.3,0,0.5-0.2,0.8c-0.1,0.2-0.2,0.5-0.3,0.7c-0.1,0.2-0.2,0.4-0.2,0.6c-0.1,0.6,0,0.8,0.3,1.3
				c0.4,0.6,0.8,1.2,1.3,1.7c0.2,0.2,0.4,0.5,0.6,0.6c0.3,0.2,0.6,0.3,0.9,0.4c0.3,0.2,0.5,0.2,0.9,0.1c0.3-0.1,0.6-0.4,0.9-0.6
				c0.3-0.3,0.6-0.7,0.9-1c0.3-0.3,0.5-0.8,0.8-1.1c0.3-0.5,0.5-0.4,0.9,0c0.3,0.4,0.7,0.9,1,1.3c0.7,1,1.2,2.1,2,3.1
				c0.7,0.8,1.5,1.6,2.4,2.3c0.4,0.3,1,0.4,1.6,0.4c0.1-0.3,0.4-0.5,0.5-0.8c0.1-0.2,0.2-0.5,0.3-0.7c0.1-0.4,0.2-0.9,0.4-1.3
				c0.1-0.3,0.3-0.6,0.4-1c0.2-0.8,0.6-1.5,0.8-2.3c0.2-1.1,0.2-2.1,0.2-3.2c0-0.2,0-0.5,0-0.7c0-0.1-0.1-0.4-0.1-0.5
				c0-0.3,0.3-0.4,0.5-0.5c0.3-0.2,0.5-0.5,0.7-0.7c0.5-0.6,1-1.2,1.3-1.9c0.2-0.4,0.3-0.6,0.5-1c0.4-0.5,0.6-1.1,0.8-1.6
				c0.6-1.5,1.4-2.9,2.2-4.3c0.5-0.9,0.8-1.7,1.1-2.6c0.1-0.4,0.2-0.8,0.4-1.1c0.1-0.2,0.1-0.5,0.3-0.6c0.5,0.3,0.6,1.2,0.8,1.6
				c0.3,0.7,0.6,1.3,1,1.9c0.3,0.6,0.6,1.2,1,1.8c0.5,0.7,1.1,1.4,1.6,2.1c0.3,0.4,0.5,0.6,1,0.9c0.5,0.2,1.1,0.4,1.6,0.7
				c0.4,0.2,2.1,0.4,2.1,0.8c-0.9,0.6-2.5,1.2-1.7,2.6c0.4,0.7,1.1,1.4,1.7,1.9c0.4,0.4,0.9,0.7,1.2,1.3c0.2,0.6,0.2,1-0.2,1.4
				c-0.4,0.5-1,1-1,1.6c0,0.7,0.2,1.6,0.7,2c0.3,0.3,0.7,0.4,1.1,0.6c0.3,0.2,0.5,0.4,0.8,0.5c0,0,0,0,0,0c0.3,0.3,0.9,0.6,1.3,0.5
				c0.1-0.1,0.3-0.2,0.4-0.3c0.3-0.2,0.6-0.3,1-0.4c0.9-0.2,2.3-0.2,3,0.5c0.6,0.7,0.6,1.8,0.8,2.6c0.1,0.5,0.4,1,0.7,1.4
				c0.2,0.2,0.4,0.3,0.5,0.6c0.1,0.2,0.3,0.4,0.4,0.5c0.2,0.2,0.3,0.4,0.4,0.6c0.2,0.3,0.5,0.5,0.7,0.8c0.3,0.5-0.3,0.7-0.5,1.1
				c-0.3,0.5-0.5,1.1-0.5,1.6c0,0.6,0.5,0.9,1,1.2c0.3,0.2,0.5,0.5,0.8,0.7c0.5,0.5,1,0.9,1.5,1.3c0.6,0.4,1.2,0.9,1.5,1.5
				c0.2,0.3,0.2,0.6,0.2,0.9c0.1,0.6,0.2,1.2,0.5,1.8c0.2,0.4,0.4,0.8,0.5,1.2c0.1,0.3,0.2,0.8,0.5,0.9c0.2-0.3,0.2-0.8,0.4-1.1
				c0.2-0.5,0.4-0.9,0.6-1.4c0.5-1.5,1.4-2.9,2-4.3c0.6-1.4,1.3-2.8,1.9-4.3c0.4-0.9,0.8-2.2,0.6-3.3c-0.4-0.1-0.8,0.5-1.1,0.7
				c-0.3,0.3-1,1-1.4,1c0.3-0.5,0.6-1,1-1.5c0.6-0.9,1.1-1.8,1.6-2.8c0.5-1,1.1-1.9,1.6-3c0.4-1,0.8-1.9,1.1-2.9
				c0.3-1.1,0.6-2.1,0.9-3.2c0.3-1,0.7-1.9,1-2.9c0.4-1.1,0.8-2.1,1-3.2c0.1-0.3,0.1-0.6,0.2-0.9c0-0.2,0-0.5,0.2-0.6
				c0.3,0.4,0.3,0.8,0.4,1.2c0.1,0.5,0.3,0.9,0.5,1.4c0.7,1.6,1.7,2.9,2.8,4.1c1,1.1,1.9,2.2,2.8,3.2c0.5,0.5,0.9,1,1.4,1.5
				c0.2,0.3,0.7,0.6,0.7,1c-0.7,0.4-1.6,0.3-2.3,0.4c-0.1,0.3,0,0.5,0.3,0.7c0.3,0.5,0.6,1,0.9,1.4c0.5,0.8,0.9,1.6,1.5,2.3
				c0.5,0.6,1.3,0.9,1.8,1.5c0.4,0.5-0.4,1.4-0.7,1.8c-0.4,0.5-0.8,1.1-1,1.7c-0.1,0.5,0,1.1,0.3,1.6c0.2,0.4,0.4,0.7,0.6,1.1
				c0.2,0.6,0.4,1.2,0.5,1.8c0.2,0.8,0.4,1.6,0.6,2.4c0.5,0.5,0.8-0.2,1-0.5c0.2-0.3,0.4-0.6,0.6-1c0.2-0.4,0.3-0.7,0.5-1.1
				c0.1-0.3,0.4-0.7,0.6-1c0.5-0.9,0.8-1.9,1.2-2.9c0.2-0.4,0.2-0.8,0.2-1.3c0-0.3,0-0.6,0-0.9c0-0.3-0.3-0.5-0.3-0.9
				c0.2-0.2,0.6-0.2,0.8-0.3c0.5-0.2,0.8-0.6,1.2-0.9c0.2-0.3,0.6-0.4,0.8-0.7c0.2-0.2,0.3-0.5,0.5-0.7c0.4-0.5,0.9-0.9,1.1-1.6
				c0.3-1-0.3-2.1-0.7-2.9c-0.1-0.1-0.5-0.6-0.4-0.8c0-0.3,0.4-0.3,0.7-0.4c0.4-0.2,0.9-0.3,1.4-0.5c0.7-0.3,1.2-0.7,1.8-1.2
				c1-0.8,1.9-1.7,2.5-2.8c0.5-0.9,0.9-1.9,1.3-2.9c0.1,0.3,0.1,0.7,0.1,1c0,0.5,0.1,1.1,0.2,1.6c0.2,1,0.3,2,0.6,2.9
				c0.6,1.5,1.5,3.1,2.6,4.4c0.2,0.3,0.5,0.5,0.8,0.7c0.1,0.1,0.3,0.2,0.3,0.3c0,0.4-0.8,0.3-1,0.4c-0.4,0.1-0.7,0-0.9,0.4
				c-0.2,0.6,0.4,1.3,0.7,1.8c0.4,0.6,1.1,1,1.8,1.4c0.4,0.2,1,0.3,1.3,0.6c0.4,0.4-0.3,1.1-0.5,1.5c-0.2,0.5-0.2,1,0,1.5
				c0.3,0.8,1.3,0.7,1.9,0.3c0.6-0.4,0.9-1.4,1.1-2.1c0.2-0.5,0.3-0.9,0.5-1.4c0.1-0.2,0.2-0.4,0.2-0.6c0.3,0.3,0.6,0.8,0.8,1.2
				c0.2,0.3,0.4,0.6,0.6,0.9c0.2,0.2,0.2,0.5,0.4,0.7c0.3,0.5,0.6,1,0.9,1.5c0.2,0.3,0.3,0.6,0.5,0.9c0.2,0.3,0.4,0.5,0.6,0.8
				c0.3,0.5,0.6,1,0.8,1.5c0.2,0.3,0.4,0.6,0.6,0.9c0.2,0.4,0.4,0.7,0.7,1c0.2,0.2,0.5,0.3,0.3,0.6c-0.2,0.2-0.6,0.2-0.8,0.3
				c-0.4,0.1-0.8,0.1-1.2,0c0.5,0.1,1,0.7,1.3,1c0.5,0.4,1.2,0.8,1.7,1.2c0.5,0.3,1.1,0.8,1.7,1c0.7,0.2,1.3,0.4,1.9,0.8
				c0,0.3-0.9,0.5-1.1,0.6c-0.3,0.2-0.7,0.4-0.9,0.7c-0.3,0.3-0.4,0.8-0.6,1.1c-0.2,0.5-0.4,0.9-0.5,1.4c-0.2,0.9,0.1,2.1,1,2.5
				c0.2,0.1,0.5,0.3,0.8,0.3c0.4,0.1,0.9-0.2,1.2-0.5c0.6-0.6,1.2-1.4,1.4-2.3c0.2-0.6,0.6-1.2,0.8-1.8c0.2-0.6,0.5-1.1,0.7-1.7
				c0.9-2,1.6-4,2.3-6c0.2-0.6,0.5-1.3,0.8-1.9c0.5-1.4,0.9-2.8,1.2-4.3l0.2,0c-0.2,0.3,0.3,0.8,0.5,1c0.2,0.3,0.3,0.7,0.5,1.1
				c0.2,0.4,0.5,0.9,0.8,1.2c0.4,0.4,0.5,0.9,0.8,1.3c0.3,0.5,0.6,1.1,1,1.6c0.2,0.2,0.2,0.5,0.3,0.7c0.1,0.3,0.4,0.5,0.6,0.7
				c0.2,0.3,0.5,0.6,0.8,0.8c0.4,0.3,1.2,0.5,1.5,0.9c-0.3,0.3-1.1,0.4-1.5,0.4c-0.4,0-1,0-1.3,0.3c0.1,0.4,0.5,0.7,0.9,0.9
				c0.5,0.4,0.9,0.9,1.3,1.3c0.3,0.3,0.6,0.6,1,0.8c0.2,0.1,0.7,0.2,0.7,0.5c-0.5,0.4-1.5,0.1-1.7,0.9c-0.2,0.7,0.3,1.5,0.7,2.1
				c0.4,0.6,0.8,1.3,1.6,1.5c1,0.3,2,0.4,3,0.4c0.4,0,0.8,0,1.2,0c0.4,0,0.7-0.2,1.1-0.4c1.1-0.4,2.1-1.5,2.5-2.6
				c0.2-0.5,0.2-1.1,0.5-1.6c0.3-0.6,0.8-1,1.4-1.2c1.2-0.4,2.5-0.3,3.7-0.2c0.3-0.3,0.5-0.8,0.7-1.2c0.3-0.4,0.5-0.9,0.7-1.4
				c0.2-0.5,0.3-1.2,0.6-1.7c0.3-0.5,0.6-1.2,0.7-1.8c0.1-0.4,0.2-0.8,0.2-1.3c0-0.7,0.2-1.3,0.5-2c0.5-1.5,1-3.1,1.6-4.6
				c0.1,0.2,0.2,0.6,0.3,0.8c0.1,0.3,0.2,0.6,0.3,1c0.1,0.3,0.3,0.6,0.5,1c0.2,0.4,0.5,1,0.8,1.3c0.3,0.4,0.8,0.6,1.2,0.9
				c0.4,0.2,1,0.4,1.3,0.8c-0.1,0.2-0.5,0.3-0.7,0.4c-0.2,0.1-0.5,0.3-0.7,0.5c-0.3,0.3-0.5,1.3-0.1,1.6c0.1,0.1,0.3,0.1,0.4,0.1
				c0.3,0.1,0.5,0.3,0.7,0.4c0.5,0.3,1.1,0.4,1.7,0.5c1.9,0.3,4-0.1,5.8-0.5c2.2-0.5,4.4-1.8,6.1-3.3c1.1-1,2.4-1.7,3.6-2.4
				c1.5-0.9,3.1-1.8,4.5-2.9c0.5-0.3,0.9-0.6,1.4-0.9c0.4-0.2,0.7-0.6,1-0.8c0.8-0.6,1.7-1.1,2.6-1.6c2.6-1.4,5.5-2.6,8.3-3.3
				c0.2-0.2,0.6-0.3,0.9-0.5c0.4-0.2,1-0.3,1.5-0.2c0.5,0.1,0.9,0.7,1.2,1c0.1,0.1,0.3,0.3,0.4,0.5c0.1,0.2,0.1,0.4,0.2,0.5
				c0.5,0.9,0.6,2.1,1.2,2.9c0.1,0.1,0.2,0.2,0.3,0.4c0.2,0.3,0.2,0.6,0.4,0.9c0.5,0.5,1.1,1,1.7,1.3c0.4,0.2,0.8,0.3,1.2,0.5
				c0.2,0.1,0.4,0.1,0.6,0.3c0.2,0.1,0.4,0.3,0.7,0.4c0.4,0.2,0.9,0.5,1.3,0.7c0.2,0.1,0.4,0.2,0.6,0.4c0.4,0.5-0.1,0.6-0.3,1
				c-0.7,1.5,0.2,2.9,0.7,4.2c0.4,1.1,1.1,2.1,1.8,3.1c0.2,0.3,0.3,0.6,0.5,0.9c0.2,0.5,0.6,0.8,0.9,1.2c0.4,0.5,0.6,1.1,1,1.6
				c0.5,0.6,1.1,1.2,1.7,1.7c0.9,0.8,2.1,1.3,3.1,1.9c0.7,0.4,1.3,0.6,2,0.9c0.9,0.3,2.3,0.9,3.1,0.3c0.3-0.3,0.6-0.6,0.9-0.9
				c0.2-0.3,0.6-0.6,0.6-0.9c-0.2-0.3-0.6-0.1-0.9-0.1c-0.1,0-0.8,0.1-0.9,0c-0.1-0.2,0.2-0.6,0.2-0.7c0.3-0.8,0.6-1.5,1-2.2
				c0.5-1,1-2,1.3-3.1c0.1-0.4,0.2-0.8,0.2-1.2c0-0.3-0.1-0.6-0.1-1l-0.1-0.3c0-0.7,0.2-1.2,0.4-1.9c0.1-0.3,0.1-0.6,0.3-0.9
				c0.1-0.3,0.3-0.5,0.4-0.8c0.2-0.5,0.5-1.1,0.5-1.6c0-0.3,0-0.5,0.1-0.8c0.1-0.4-0.1-0.8,0.1-1.1c0.1-0.3,0.3-0.5,0.6-0.7
				c0.5-0.3,0.8-0.6,1.3-0.9c0.6-0.5,1.3-1.1,1.7-1.8c0.2-0.2,0.2-0.5,0.4-0.7c0.1-0.3,0.4-0.5,0.5-0.7c0.2-0.4,0.5-0.7,0.7-1.1
				c0.2-0.3,0.3-0.7,0.5-1c0.5,0,0.5,1.2,0.6,1.4c0.2,0.5,0.3,1,0.6,1.5c0.1,0.2,0.1,0.4,0.2,0.6c0.1,0.4,0.4,0.8,0.6,1.2
				c0.5,0.9,0.8,2,1.3,2.9c0.3,0.6,0.7,1.2,1,1.8c0.3,0.4,0.6,0.8,0.9,1.1c0.1,0.1,0.6,0.7,0.7,0.9c0.1,0.4-0.6,0.5-0.9,0.6
				c-0.3,0.1-0.6,0.2-0.9,0.2c-0.2,0-0.4-0.1-0.6,0c0,0.4,0.7,0.5,0.9,0.7c0.5,0.3,1,0.7,1.5,1c0.6,0.4,1.3,0.8,2,1.1
				c0.4,0.2,1.4,0.3,1.6,0.7c-0.5,0.3-1.2,0.3-1.6,0.8c-0.3,0.4-0.2,1.1-0.2,1.6c0,0.7,0.2,1.4,0.5,2c0.3,0.5,0.9,1.2,1.6,0.9
				c0.4-0.2,0.8-0.6,1.1-0.9c0.4-0.3,0.9-0.6,1.4-0.8c0.4-0.1,0.8-0.3,1.2-0.2c0.6,0.1,0.9,0.6,1.2,1.1c0.6,0.8,1.2,1.9,2.3,2.1
				c0.6,0.1,0.8-0.2,1.1-0.6c0.2-0.3,0.5-0.5,0.6-0.9c0.1-0.2,0.3-0.7,0.2-0.9c-0.1-0.2-0.3-0.5-0.5-0.6h-0.4c0.8-0.9,1.5-1.8,2-2.9
				c0.3-0.6,0.5-1.1,0.7-1.8c0.1-0.4,0.1-0.7,0.1-1.1c0-0.3,0.1-0.8,0-1.1c0-0.3-0.2-0.3-0.5-0.4c-0.1,0-0.6,0.1-0.7,0
				c-0.2-0.2,0.1-0.5,0.2-0.6c0.3-0.3,0.5-0.5,0.7-0.9c0.2-0.3,0.3-0.5,0.5-0.8c0.2-0.2,0.2-0.4,0.3-0.7c0.3-0.4,0.6-0.8,0.8-1.2
				c0.2-0.3,0.4-0.7,0.7-1c0.9-1.2,1.6-2.4,1.9-4c0.1-0.8,0.7-1.5,0.9-2.2c0.2-0.6,0.4-1.3,0.6-2c0.2-0.6,0.1-1.2,0.1-1.8
				c0-0.4,0.1-0.8,0.1-1.2c0-0.2,0-0.6,0.2-0.8c0.2,0.2,0.3,0.6,0.4,0.9c0.2,0.5,0.4,1,0.6,1.4c0.3,0.9,0.8,1.8,1.1,2.6
				c0.6,1.3,1.8,2.3,2.9,3.1c0.5,0.3,0.9,0.5,1.4,0.8c0.3,0.2,1.1,0.4,1.1,0.8c-0.5,0.1-1,0.2-1.5,0.2c-0.3,0-0.9,0-1.2,0.1
				c-0.9,0.5,0.6,1.6,1,2c1.6,1.6,2.8,3.6,4.6,5.1c0.5,0.4,1,0.6,1.5,1c0.2,0.1,0.7,0.2,0.9,0.4c-0.5,0.1-1.1,0.1-1.6,0.1
				c-0.3,0-0.9-0.1-1.1,0.2c-0.2,0.2-0.1,0.9-0.1,1.1c0,0.4,0.2,0.9,0.4,1.3c0.6,1,1.5,1.9,2.4,2.6c0.3,0.3,0.4,0.3,0.3,0.7
				c-0.2,0.5-0.5,0.9-0.8,1.4c-0.5,1-0.2,1.9,0.7,2.5c0.6,0.4,1,0.8,1.7,1.1c0.3,0.1,0.9,0.3,1.1,0.5c0.3,0.5-0.3,1.1-0.5,1.5
				c-0.3,0.6-0.7,1.1-1.1,1.6c-0.8,0.8-2,1.3-2.9,2c-0.6,0.5-1.1,1.1-1.6,1.8l0,0h0c-0.3,0-0.5,0.5-0.3,0.7c0.1,0.1,0.2,0.1,0.3,0.2
				c0.2,0.1,0.3,0.3,0.6,0.4c0.3,0.1,0.7-0.1,1,0c0.4,0.1,0.8,0.3,1.1,0.6c0.3,0.3,0.8,0.6,0.8,1c0,0.3-0.3,0.6-0.4,0.8
				c-0.3,0.5-0.4,1.3-0.3,1.9c0.1,0.5,1,1.3,1.5,1.1c0.5-0.1,1-0.9,1.2-1.3c0.2-0.3,0.3-0.7,0.5-1.1c0.2-0.8,0.4-1.7,0.4-2.5
				c0-0.4,0.1-0.7,0.2-1.1c0.3-0.7,0.4-1.3,0.8-2c0.6-1.2,1.5-2.3,2.2-3.4c1.1-1.8,2.2-3.6,3.2-5.5c0.8-1.4,1.7-2.7,2.4-4.1
				c0.4-0.7,0.6,0,0.8,0.4c0.3,0.6,0.6,1.1,0.9,1.7c0.3,0.5,0.6,1,0.9,1.5c0.6,0.8,1.4,1.3,2.2,1.9c0.2,0.2,0.7,0.3,0.8,0.5
				c0.1,0.3-0.5,0.5-0.6,0.6c-0.2,0.2-0.4,0.4-0.5,0.7c-0.4,1.3,0.4,2.9,1.1,3.9c0.7,1,1.9,2.7,3.3,1.5c0.6-0.6,0.8-1.7,0.9-2.5
				c0-0.8-0.1-1.5-0.1-2.3c0-0.9-0.2-1.7-0.1-2.6c0.1-0.9,0.4-1.9,0.8-2.8c0.6-1.3,1.9-2.1,2.9-3.1c1-1,1.9-2.1,2.8-3.1
				c0.7-0.8,1.4-1.8,1.9-2.7c0.2-0.3,0.3-0.7,0.5-1c0.1-0.2,0.2-1.2,0.5-1.3c0.5,0.6,0.9,1.3,1.4,2c0.7,0.9,1.4,1.8,2.1,2.7
				c0.5,0.6,0.9,1.1,1.4,1.6c0.3,0.3,0.6,0.6,0.9,0.9c0.2,0.1,0.4,0.3,0.5,0.5c-0.1,0.2-0.5,0.3-0.6,0.5c-0.5,0.6-0.2,1.4,0.1,1.9
				c0.8,1.2,2,2.1,3.2,2.9L987.3,502.8z M758.6,513.4c0-0.4,0.1-1.1-0.1-1.4c-0.2-0.4-0.7-0.5-1.1-0.6c-0.1,0-0.3,0-0.4,0
				c-0.1,0-0.2,0-0.3,0.2c-0.1,0.1-0.3,0.4-0.4,0.5c-0.2,0.3-0.4,0.8-0.5,1.1c-0.3,0.9,0.3,2.2,1.3,2.3c0.7,0,0.8-0.2,1.1-0.7
				C758.7,514.2,758.6,513.9,758.6,513.4L758.6,513.4z M197.9,520.8c0.2-0.4,0.6-0.9,0.6-1.3c-0.8-0.7-1.1-1.2-2.2-1
				c-0.8,0.2-1.7,1-1.2,1.9c0.3,0.7,1.5,1.2,2.2,1.1C197.9,521.4,197.7,521.3,197.9,520.8z"/>
		</g>
		<g>
		</g>
	</g>
</g>

</svg>
