<?xml version="1.0" encoding="utf-8"?>
<!-- Generator: Adobe Illustrator 21.0.0, SVG Export Plug-In . SVG Version: 6.00 Build 0)  -->
<svg version="1.1" xmlns="http://www.w3.org/2000/svg" xmlns:xlink="http://www.w3.org/1999/xlink" x="0px" y="0px"
	 viewBox="0 0 1920 930" style="enable-background:new 0 0 1920 930;" xml:space="preserve">
<style type="text/css">
	.st0{opacity:0.5;}
	.st1{fill:#FFFFFF;}
	.st2{fill:#4569A8;}
	.st3{fill:#3C5B95;}
	.st4{fill:none;stroke:#3C5B95;stroke-width:0.5;stroke-miterlimit:10;}
	.st5{fill:#2D4581;}
	.st6{fill:#0E2359;}
	.st7{fill:#000130;}
	.st8{fill:none;stroke:#000130;stroke-width:0.1;stroke-miterlimit:10;}
	.st9{opacity:0.11;fill:#FFFFFF;}
	.st10{fill:#CEDEF8;}
	.st11{fill:none;stroke:#CEDEF8;stroke-miterlimit:10;}
</style>
<g id="Camada_7">
	<g id="Camada_4_1_">
		<g class="st0">
			<g>
				<path class="st1" d="M832,214.4c1.5,0,1.5-2.4,0-2.4C830.4,212,830.4,214.4,832,214.4L832,214.4z"/>
			</g>
		</g>
		<g>
			<g>
				<path class="st1" d="M322.6,94.9c1.5,0,1.5-2.4,0-2.4C321.1,92.5,321.1,94.9,322.6,94.9L322.6,94.9z"/>
			</g>
		</g>
		<g>
			<g>
				<path class="st1" d="M315.4,234.7c1.5,0,1.5-2.4,0-2.4C313.9,232.3,313.9,234.7,315.4,234.7L315.4,234.7z"/>
			</g>
		</g>
		<g>
			<g>
				<path class="st1" d="M238.3,266.1c1.5,0,1.5-2.4,0-2.4C236.8,263.7,236.8,266.1,238.3,266.1L238.3,266.1z"/>
			</g>
		</g>
		<g>
			<g>
				<path class="st1" d="M394.9,451.6c1.5,0,1.5-2.4,0-2.4C393.4,449.2,393.4,451.6,394.9,451.6L394.9,451.6z"/>
			</g>
		</g>
		<g>
			<g>
				<path class="st1" d="M310.6,483c1.5,0,1.5-2.4,0-2.4C309.1,480.5,309.1,483,310.6,483L310.6,483z"/>
			</g>
		</g>
		<g>
			<g>
				<path class="st1" d="M317.8,355.2c1.5,0,1.5-2.4,0-2.4C316.3,352.8,316.3,355.2,317.8,355.2L317.8,355.2z"/>
			</g>
		</g>
		<g>
			<g>
				<path class="st1" d="M233.5,384.2c1.5,0,1.5-2.4,0-2.4C232,381.7,232,384.2,233.5,384.2L233.5,384.2z"/>
			</g>
		</g>
		<g>
			<g>
				<path class="st1" d="M305.8,617.9c1.5,0,1.5-2.4,0-2.4S304.2,617.9,305.8,617.9L305.8,617.9z"/>
			</g>
		</g>
		<g>
			<g>
				<path class="st1" d="M378.1,545.6c1.5,0,1.5-2.4,0-2.4C376.5,543.2,376.5,545.6,378.1,545.6L378.1,545.6z"/>
			</g>
		</g>
		<g>
			<g>
				<path class="st1" d="M250.3,497.4c1.5,0,1.5-2.4,0-2.4C248.8,495,248.8,497.4,250.3,497.4L250.3,497.4z"/>
			</g>
		</g>
		<g>
			<g>
				<path class="st1" d="M329.9,772.1c1.5,0,1.5-2.4,0-2.4C328.3,769.7,328.3,772.1,329.9,772.1L329.9,772.1z"/>
			</g>
		</g>
		<g>
			<g>
				<path class="st1" d="M409.5,704.7c1.5,0,1.5-2.4,0-2.4C407.9,702.3,407.9,704.7,409.5,704.7L409.5,704.7z"/>
			</g>
		</g>
		<g>
			<g>
				<path class="st1" d="M378.1,622.7c1.5,0,1.5-2.4,0-2.4C376.5,620.3,376.5,622.7,378.1,622.7L378.1,622.7z"/>
			</g>
		</g>
		<g>
			<g>
				<path class="st1" d="M520.3,781.8c1.5,0,1.5-2.4,0-2.4C518.7,779.4,518.7,781.8,520.3,781.8L520.3,781.8z"/>
			</g>
		</g>
		<g>
			<g>
				<path class="st1" d="M445.6,880.6c1.5,0,1.5-2.4,0-2.4C444,878.2,444,880.6,445.6,880.6L445.6,880.6z"/>
			</g>
		</g>
		<g>
			<g>
				<path class="st1" d="M544.4,984.3c1.5,0,1.5-2.4,0-2.4C542.8,981.9,542.8,984.3,544.4,984.3L544.4,984.3z"/>
			</g>
		</g>
		<g>
			<g>
				<path class="st1" d="M462.5,786.6c1.5,0,1.5-2.4,0-2.4C460.9,784.2,460.9,786.6,462.5,786.6L462.5,786.6z"/>
			</g>
		</g>
		<g>
			<g>
				<path class="st1" d="M264.8,683c1.5,0,1.5-2.4,0-2.4S263.3,683,264.8,683L264.8,683z"/>
			</g>
		</g>
		<g>
			<g>
				<path class="st1" d="M580.6,907.1c1.5,0,1.5-2.4,0-2.4C579,904.7,579,907.1,580.6,907.1L580.6,907.1z"/>
			</g>
		</g>
		<g>
			<g>
				<path class="st1" d="M717.9,972.2c1.5,0,1.5-2.4,0-2.4C716.4,969.8,716.4,972.2,717.9,972.2L717.9,972.2z"/>
			</g>
		</g>
		<g>
			<g>
				<path class="st1" d="M563.7,856.5c1.5,0,1.5-2.4,0-2.4C562.1,854.1,562.1,856.5,563.7,856.5L563.7,856.5z"/>
			</g>
		</g>
		<g>
			<g>
				<path class="st1" d="M648.1,1030.1c1.5,0,1.5-2.4,0-2.4C646.5,1027.7,646.4,1030.1,648.1,1030.1L648.1,1030.1z"/>
			</g>
		</g>
		<g>
			<g>
				<path class="st1" d="M455.3,964.9c1.5,0,1.5-2.4,0-2.4C453.7,962.5,453.7,964.9,455.3,964.9L455.3,964.9z"/>
			</g>
		</g>
		<g>
			<g>
				<path class="st1" d="M966.2,1037.3c1.5,0,1.5-2.4,0-2.4C964.6,1034.9,964.6,1037.3,966.2,1037.3L966.2,1037.3z"/>
			</g>
		</g>
		<g>
			<g>
				<path class="st1" d="M843.3,1124.1c1.5,0,1.5-2.4,0-2.4C841.7,1121.7,841.7,1124.1,843.3,1124.1L843.3,1124.1z"/>
			</g>
		</g>
		<g>
			<g>
				<path class="st1" d="M795.1,1046.9c1.5,0,1.5-2.4,0-2.4C793.5,1044.5,793.5,1046.9,795.1,1046.9L795.1,1046.9z"/>
			</g>
		</g>
		<g>
			<g>
				<path class="st1" d="M1011.9,1131.3c1.5,0,1.5-2.4,0-2.4C1010.4,1128.9,1010.4,1131.3,1011.9,1131.3L1011.9,1131.3z"/>
			</g>
		</g>
		<g>
			<g>
				<path class="st1" d="M1093.9,1008.4c1.5,0,1.5-2.4,0-2.4S1092.4,1008.4,1093.9,1008.4L1093.9,1008.4z"/>
			</g>
		</g>
		<g>
			<g>
				<path class="st1" d="M1178.2,1121.7c1.5,0,1.5-2.4,0-2.4C1176.7,1119.2,1176.7,1121.7,1178.2,1121.7L1178.2,1121.7z"/>
			</g>
		</g>
		<g>
			<g>
				<path class="st1" d="M1072.2,1085.5c1.5,0,1.5-2.4,0-2.4S1070.7,1085.5,1072.2,1085.5L1072.2,1085.5z"/>
			</g>
		</g>
		<g>
			<g>
				<path class="st1" d="M1318.1,1061.4c1.5,0,1.5-2.4,0-2.4C1316.5,1059,1316.5,1061.4,1318.1,1061.4L1318.1,1061.4z"/>
			</g>
		</g>
		<g>
			<g>
				<path class="st1" d="M1214.5,933.6c1.5,0,1.5-2.4,0-2.4C1212.9,931.2,1212.9,933.6,1214.5,933.6L1214.5,933.6z"/>
			</g>
		</g>
		<g>
			<g>
				<path class="st1" d="M1209.6,1042.1c1.5,0,1.5-2.4,0-2.4C1208,1039.7,1208,1042.1,1209.6,1042.1L1209.6,1042.1z"/>
			</g>
		</g>
		<g>
			<g>
				<path class="st1" d="M1472.3,1018c1.5,0,1.5-2.4,0-2.4S1470.8,1018,1472.3,1018L1472.3,1018z"/>
			</g>
		</g>
		<g>
			<g>
				<path class="st1" d="M1296.4,964.9c1.5,0,1.5-2.4,0-2.4C1294.8,962.5,1294.8,964.9,1296.4,964.9L1296.4,964.9z"/>
			</g>
		</g>
		<g>
			<g>
				<path class="st1" d="M1460.3,827.6c1.5,0,1.5-2.4,0-2.4C1458.7,825.2,1458.7,827.6,1460.3,827.6L1460.3,827.6z"/>
			</g>
		</g>
		<g>
			<g>
				<path class="st1" d="M1431.3,984.3c1.5,0,1.5-2.4,0-2.4C1429.7,981.9,1429.7,984.3,1431.3,984.3L1431.3,984.3z"/>
			</g>
		</g>
		<g>
			<g>
				<path class="st1" d="M1332.5,861.3c1.5,0,1.5-2.4,0-2.4C1330.9,858.9,1330.9,861.3,1332.5,861.3L1332.5,861.3z"/>
			</g>
		</g>
		<g>
			<g>
				<path class="st1" d="M394.9,301.9c1.1,0,1.2-1.8,0-1.8C393.8,300,393.8,301.9,394.9,301.9L394.9,301.9z"/>
			</g>
		</g>
		<g>
			<g>
				<path class="st1" d="M354,174.2c1.1,0,1.2-1.8,0-1.8C352.8,172.3,352.8,174.2,354,174.2L354,174.2z"/>
			</g>
		</g>
		<g>
			<g>
				<path class="st1" d="M264.8,169.4c1.1,0,1.2-1.8,0-1.8C263.7,167.5,263.7,169.4,264.8,169.4L264.8,169.4z"/>
			</g>
		</g>
		<g>
			<g>
				<path class="st1" d="M276.9,424.8c1.1,0,1.2-1.8,0-1.8C275.7,423,275.7,424.8,276.9,424.8L276.9,424.8z"/>
			</g>
		</g>
		<g>
			<g>
				<path class="st1" d="M207,477.8c1.1,0,1.2-1.8,0-1.8C205.8,476,205.8,477.8,207,477.8L207,477.8z"/>
			</g>
		</g>
		<g>
			<g>
				<path class="st1" d="M233.5,591.1c1.1,0,1.2-1.8,0-1.8C232.4,589.3,232.4,591.1,233.5,591.1L233.5,591.1z"/>
			</g>
		</g>
		<g>
			<g>
				<path class="st1" d="M375.7,704.3c1.1,0,1.2-1.8,0-1.8C374.5,702.6,374.5,704.3,375.7,704.3L375.7,704.3z"/>
			</g>
		</g>
		<g>
			<g>
				<path class="st1" d="M366,829.7c1.1,0,1.2-1.8,0-1.8C364.9,827.9,364.9,829.7,366,829.7L366,829.7z"/>
			</g>
		</g>
		<g>
			<g>
				<path class="st1" d="M554.1,1041.8c1.1,0,1.2-1.8,0-1.8C552.9,1040,552.9,1041.8,554.1,1041.8L554.1,1041.8z"/>
			</g>
		</g>
		<g>
			<g>
				<path class="st1" d="M626.4,964.7c1.1,0,1.2-1.8,0-1.8C625.2,962.8,625.2,964.7,626.4,964.7L626.4,964.7z"/>
			</g>
		</g>
		<g>
			<g>
				<path class="st1" d="M664.9,1082.8c1.1,0,1.2-1.8,0-1.8C663.7,1080.9,663.7,1082.8,664.9,1082.8L664.9,1082.8z"/>
			</g>
		</g>
		<g>
			<g>
				<path class="st1" d="M932.4,1135.8c1.1,0,1.2-1.8,0-1.8C931.3,1133.9,931.3,1135.8,932.4,1135.8L932.4,1135.8z"/>
			</g>
		</g>
		<g>
			<g>
				<path class="st1" d="M881.8,1085.2c1.1,0,1.2-1.8,0-1.8C880.7,1083.3,880.7,1085.2,881.8,1085.2L881.8,1085.2z"/>
			</g>
		</g>
		<g>
			<g>
				<path class="st1" d="M799.9,988.8c1.1,0,1.2-1.8,0-1.8C798.8,986.9,798.8,988.8,799.9,988.8L799.9,988.8z"/>
			</g>
		</g>
		<g>
			<g>
				<path class="st1" d="M1216.9,1131c1.1,0,1.2-1.8,0-1.8C1215.7,1129.1,1215.7,1131,1216.9,1131L1216.9,1131z"/>
			</g>
		</g>
		<g>
			<g>
				<path class="st1" d="M1310.9,1029.8c1.1,0,1.2-1.8,0-1.8C1309.6,1027.9,1309.6,1029.8,1310.9,1029.8L1310.9,1029.8z"/>
			</g>
		</g>
		<g>
			<g>
				<path class="st1" d="M1419.3,1065.9c1.1,0,1.2-1.8,0-1.8C1418.1,1064.1,1418.1,1065.9,1419.3,1065.9L1419.3,1065.9z"/>
			</g>
		</g>
		<g>
			<g>
				<path class="st1" d="M1375.9,918.9c1.1,0,1.2-1.8,0-1.8C1374.7,917.1,1374.7,918.9,1375.9,918.9L1375.9,918.9z"/>
			</g>
		</g>
		<g>
			<g>
				<path class="st1" d="M1527.7,976.7c1.1,0,1.2-1.8,0-1.8C1526.5,974.9,1526.5,976.7,1527.7,976.7L1527.7,976.7z"/>
			</g>
		</g>
		<g>
			<g>
				<path class="st1" d="M1530.2,757.4c1.1,0,1.2-1.8,0-1.8C1528.9,755.6,1528.9,757.4,1530.2,757.4L1530.2,757.4z"/>
			</g>
		</g>
		<g>
			<g>
				<path class="st1" d="M1484.4,735.7c1.1,0,1.2-1.8,0-1.8C1483.2,733.9,1483.2,735.7,1484.4,735.7L1484.4,735.7z"/>
			</g>
		</g>
		<g>
			<g>
				<path class="st1" d="M1592.8,827.3c1.1,0,1.2-1.8,0-1.8C1591.7,825.5,1591.6,827.3,1592.8,827.3L1592.8,827.3z"/>
			</g>
		</g>
		<g>
			<g>
				<path class="st1" d="M1706.1,661c1.1,0,1.2-1.8,0-1.8C1704.9,659.2,1704.9,661,1706.1,661L1706.1,661z"/>
			</g>
		</g>
		<g>
			<g>
				<path class="st1" d="M1573.5,675.4c1.1,0,1.2-1.8,0-1.8C1572.3,673.7,1572.3,675.4,1573.5,675.4L1573.5,675.4z"/>
			</g>
		</g>
		<g>
			<g>
				<path class="st1" d="M1551.8,564.6c1.1,0,1.2-1.8,0-1.8C1550.6,562.8,1550.6,564.6,1551.8,564.6L1551.8,564.6z"/>
			</g>
		</g>
		<g>
			<g>
				<path class="st1" d="M1713.3,509.1c1.1,0,1.2-1.8,0-1.8C1712.2,507.4,1712.2,509.1,1713.3,509.1L1713.3,509.1z"/>
			</g>
		</g>
		<g>
			<g>
				<path class="st1" d="M1595.2,393.5c1.1,0,1.1-1.8,0-1.8C1594.1,391.7,1594,393.5,1595.2,393.5L1595.2,393.5z"/>
			</g>
		</g>
		<g>
			<g>
				<path class="st1" d="M1761.5,422.4c1.1,0,1.2-1.8,0-1.8C1760.4,420.6,1760.4,422.4,1761.5,422.4L1761.5,422.4z"/>
			</g>
		</g>
		<g>
			<g>
				<path class="st1" d="M1686.8,289.8c1.1,0,1.2-1.8,0-1.8C1685.7,288,1685.7,289.8,1686.8,289.8L1686.8,289.8z"/>
			</g>
		</g>
		<g>
			<g>
				<path class="st1" d="M1563.9,251.3c1.1,0,1.1-1.8,0-1.8C1562.7,249.4,1562.7,251.3,1563.9,251.3L1563.9,251.3z"/>
			</g>
		</g>
		<g>
			<g>
				<path class="st1" d="M1619.3,123.6c1.1,0,1.2-1.8,0-1.8C1618.2,121.7,1618.2,123.6,1619.3,123.6L1619.3,123.6z"/>
			</g>
		</g>
		<g>
			<g>
				<path class="st1" d="M1650.6,32c1.1,0,1.2-1.8,0-1.8C1649.5,30.1,1649.5,32,1650.6,32L1650.6,32z"/>
			</g>
		</g>
		<g>
			<g>
				<path class="st1" d="M1532.6-9c1.1,0,1.2-1.8,0-1.8C1531.4-10.8,1531.4-9,1532.6-9L1532.6-9z"/>
			</g>
		</g>
		<g>
			<g>
				<path class="st1" d="M1474.7-103c1.1,0,1.2-1.8,0-1.8C1473.5-104.8,1473.5-103,1474.7-103L1474.7-103z"/>
			</g>
		</g>
		<g>
			<g>
				<path class="st1" d="M1497.2,898.6c0.8,0,0.8-1.2,0-1.2C1496.4,897.4,1496.4,898.6,1497.2,898.6L1497.2,898.6z"/>
			</g>
		</g>
		<g>
			<g>
				<path class="st1" d="M1678.8,768.4c0.8,0,0.8-1.2,0-1.2C1678,767.2,1678,768.4,1678.8,768.4L1678.8,768.4z"/>
			</g>
		</g>
		<g>
			<g>
				<path class="st1" d="M1624.1,697.8c0.8,0,0.8-1.2,0-1.2C1623.3,696.6,1623.3,697.8,1624.1,697.8L1624.1,697.8z"/>
			</g>
		</g>
		<g>
			<g>
				<path class="st1" d="M1625.7,574c0.8,0,0.8-1.2,0-1.2C1624.9,572.8,1624.9,574,1625.7,574L1625.7,574z"/>
			</g>
		</g>
		<g>
			<g>
				<path class="st1" d="M1585.6,479.3c0.8,0,0.8-1.2,0-1.2C1584.8,478.1,1584.8,479.3,1585.6,479.3L1585.6,479.3z"/>
			</g>
		</g>
		<g>
			<g>
				<path class="st1" d="M1690,410.2c0.8,0,0.8-1.2,0-1.2C1689.2,409,1689.2,410.2,1690,410.2L1690,410.2z"/>
			</g>
		</g>
		<g>
			<g>
				<path class="st1" d="M1625.7,479.3c0.8,0,0.8-1.2,0-1.2C1624.9,478.1,1624.9,479.3,1625.7,479.3L1625.7,479.3z"/>
			</g>
		</g>
		<g>
			<g>
				<path class="st1" d="M1620.9,230.2c0.8,0,0.8-1.2,0-1.2C1620.1,229,1620.1,230.2,1620.9,230.2L1620.9,230.2z"/>
			</g>
		</g>
		<g>
			<g>
				<path class="st1" d="M1743,209.4c0.8,0,0.8-1.2,0-1.2S1742.2,209.4,1743,209.4L1743,209.4z"/>
			</g>
		</g>
		<g>
			<g>
				<path class="st1" d="M1669.1,88.9c0.8,0,0.8-1.2,0-1.2C1668.3,87.7,1668.3,88.9,1669.1,88.9L1669.1,88.9z"/>
			</g>
		</g>
		<g>
			<g>
				<path class="st1" d="M1535.8,45.5c0.8,0,0.8-1.2,0-1.2C1535,44.3,1535,45.5,1535.8,45.5L1535.8,45.5z"/>
			</g>
		</g>
		<g>
			<g>
				<path class="st1" d="M1495.6,96.9c0.8,0,0.8-1.2,0-1.2C1494.8,95.7,1494.8,96.9,1495.6,96.9L1495.6,96.9z"/>
			</g>
		</g>
		<g>
			<g>
				<path class="st1" d="M1442.6-52.5c0.8,0,0.8-1.2,0-1.2S1441.8-52.5,1442.6-52.5L1442.6-52.5z"/>
			</g>
		</g>
		<g>
			<g>
				<path class="st1" d="M1585.6-89.5c0.8,0,0.8-1.2,0-1.2C1584.8-90.7,1584.8-89.5,1585.6-89.5L1585.6-89.5z"/>
			</g>
		</g>
		<g>
			<g>
				<path class="st1" d="M1402.4-96.9c1.5,0,1.5-2.4,0-2.4C1400.9-99.4,1400.9-96.9,1402.4-96.9L1402.4-96.9z"/>
			</g>
		</g>
		<g>
			<g>
				<path class="st1" d="M1391.2-219c1.5,0,1.5-2.4,0-2.4S1389.7-219,1391.2-219L1391.2-219z"/>
			</g>
		</g>
		<g>
			<g>
				<path class="st1" d="M1265.9-196.5c1.5,0,1.5-2.4,0-2.4C1264.3-199,1264.3-196.5,1265.9-196.5L1265.9-196.5z"/>
			</g>
		</g>
		<g>
			<g>
				<path class="st1" d="M1241.8-296.2c1.5,0,1.5-2.4,0-2.4C1240.2-298.6,1240.2-296.2,1241.8-296.2L1241.8-296.2z"/>
			</g>
		</g>
		<g>
			<g>
				<path class="st1" d="M1172.7-352.4c1.5,0,1.5-2.4,0-2.4C1171.2-354.8,1171.2-352.4,1172.7-352.4L1172.7-352.4z"/>
			</g>
		</g>
		<g>
			<g>
				<path class="st1" d="M1105.2-186.9c1.5,0,1.5-2.4,0-2.4S1103.7-186.9,1105.2-186.9L1105.2-186.9z"/>
			</g>
		</g>
		<g>
			<g>
				<path class="st1" d="M1280.3-127.5c1.5,0,1.5-2.4,0-2.4C1278.8-129.9,1278.8-127.5,1280.3-127.5L1280.3-127.5z"/>
			</g>
		</g>
		<g>
			<g>
				<path class="st1" d="M963.8-288.1c1.5,0,1.5-2.4,0-2.4C962.3-290.5,962.3-288.1,963.8-288.1L963.8-288.1z"/>
			</g>
		</g>
		<g>
			<g>
				<path class="st1" d="M1116.5-309c1.5,0,1.5-2.4,0-2.4S1114.9-309,1116.5-309L1116.5-309z"/>
			</g>
		</g>
		<g>
			<g>
				<path class="st1" d="M869-153.2c1.5,0,1.5-2.4,0-2.4C867.5-155.6,867.5-153.2,869-153.2L869-153.2z"/>
			</g>
		</g>
		<g>
			<g>
				<path class="st1" d="M692.3-262.4c1.5,0,1.5-2.4,0-2.4C690.8-264.8,690.8-262.4,692.3-262.4L692.3-262.4z"/>
			</g>
		</g>
		<g>
			<g>
				<path class="st1" d="M552.5-178.9c1.5,0,1.5-2.4,0-2.4C551-181.3,551-178.9,552.5-178.9L552.5-178.9z"/>
			</g>
		</g>
		<g>
			<g>
				<path class="st1" d="M541.3-53.6c1.5,0,1.5-2.4,0-2.4C539.8-56,539.8-53.6,541.3-53.6L541.3-53.6z"/>
			</g>
		</g>
		<g>
			<g>
				<path class="st1" d="M486.7,49.3c1.5,0,1.5-2.4,0-2.4C485.1,46.8,485.1,49.3,486.7,49.3L486.7,49.3z"/>
			</g>
		</g>
		<g>
			<g>
				<path class="st1" d="M419.2-13.4c1.5,0,1.5-2.4,0-2.4S417.7-13.4,419.2-13.4L419.2-13.4z"/>
			</g>
		</g>
		<g>
			<g>
				<path class="st1" d="M430.4-122.6c1.5,0,1.5-2.4,0-2.4S428.9-122.6,430.4-122.6L430.4-122.6z"/>
			</g>
		</g>
		<g>
			<g>
				<path class="st1" d="M311.6,25.2c1.5,0,1.5-2.4,0-2.4S310,25.2,311.6,25.2L311.6,25.2z"/>
			</g>
		</g>
		<g>
			<g>
				<path class="st1" d="M416,140.8c1.5,0,1.5-2.4,0-2.4S414.5,140.8,416,140.8L416,140.8z"/>
			</g>
		</g>
		<g>
			<g>
				<path class="st1" d="M620-222.6c1.1,0,1.2-1.8,0-1.8C618.9-224.3,618.8-222.6,620-222.6L620-222.6z"/>
			</g>
		</g>
		<g>
			<g>
				<path class="st1" d="M660.2-63.5c1.1,0,1.2-1.8,0-1.8C659.1-65.3,659-63.5,660.2-63.5L660.2-63.5z"/>
			</g>
		</g>
		<g>
			<g>
				<path class="st1" d="M734.1-174.4c1.1,0,1.2-1.8,0-1.8C733-176.1,732.9-174.4,734.1-174.4L734.1-174.4z"/>
			</g>
		</g>
		<g>
			<g>
				<path class="st1" d="M610.4-116.5c1.1,0,1.2-1.8,0-1.8C609.3-118.3,609.2-116.5,610.4-116.5L610.4-116.5z"/>
			</g>
		</g>
		<g>
			<g>
				<path class="st1" d="M774.3-323.8c1.1,0,1.2-1.8,0-1.8C773.1-325.6,773-323.8,774.3-323.8L774.3-323.8z"/>
			</g>
		</g>
		<g>
			<g>
				<path class="st1" d="M844.9-248.3c1.1,0,1.2-1.8,0-1.8C843.8-250,843.7-248.3,844.9-248.3L844.9-248.3z"/>
			</g>
		</g>
		<g>
			<g>
				<path class="st1" d="M992.7-195.3c1.1,0,1.2-1.8,0-1.8C991.6-197,991.5-195.3,992.7-195.3L992.7-195.3z"/>
			</g>
		</g>
		<g>
			<g>
				<path class="st1" d="M1018.5-349.5c1.1,0,1.2-1.8,0-1.8C1017.3-351.3,1017.2-349.5,1018.5-349.5L1018.5-349.5z"/>
			</g>
		</g>
		<g>
			<g>
				<path class="st1" d="M1164.7-217.8c1.1,0,1.2-1.8,0-1.8C1163.5-219.5,1163.4-217.8,1164.7-217.8L1164.7-217.8z"/>
			</g>
		</g>
		<g>
			<g>
				<path class="st1" d="M1341.4-280.4c1.1,0,1.2-1.8,0-1.8C1340.3-282.2,1340.2-280.4,1341.4-280.4L1341.4-280.4z"/>
			</g>
		</g>
		<g>
			<g>
				<path class="st1" d="M1551.8-108.5c1.1,0,1.2-1.8,0-1.8C1550.7-110.3,1550.6-108.5,1551.8-108.5L1551.8-108.5z"/>
			</g>
		</g>
		<g>
			<g>
				<path class="st1" d="M1461.9-198.5c1.1,0,1.2-1.8,0-1.8C1460.7-200.2,1460.7-198.5,1461.9-198.5L1461.9-198.5z"/>
			</g>
		</g>
		<g>
			<g>
				<path class="st1" d="M1492.4,32.9c1.1,0,1.2-1.8,0-1.8C1491.3,31.1,1491.2,32.9,1492.4,32.9L1492.4,32.9z"/>
			</g>
		</g>
		<g>
			<g>
				<path class="st1" d="M1659.5,202.6c0.4,0,0.4-0.6,0-0.6C1659.1,202,1659.1,202.6,1659.5,202.6L1659.5,202.6z"/>
			</g>
		</g>
		<g>
			<g>
				<path class="st1" d="M1780,284.5c0.4,0,0.4-0.6,0-0.6C1779.6,283.9,1779.6,284.5,1780,284.5L1780,284.5z"/>
			</g>
		</g>
		<g>
			<g>
				<path class="st1" d="M1641.8,48.4c0.4,0,0.4-0.6,0-0.6C1641.4,47.7,1641.4,48.4,1641.8,48.4L1641.8,48.4z"/>
			</g>
		</g>
		<g>
			<g>
				<path class="st1" d="M1582.4-86.6c0.4,0,0.4-0.6,0-0.6C1582-87.2,1582-86.6,1582.4-86.6L1582.4-86.6z"/>
			</g>
		</g>
		<g>
			<g>
				<path class="st1" d="M1368.7-205.5c0.4,0,0.4-0.6,0-0.6C1368.3-206.1,1368.3-205.5,1368.7-205.5L1368.7-205.5z"/>
			</g>
		</g>
		<g>
			<g>
				<path class="st1" d="M1262.7-248.8c0.4,0,0.4-0.6,0-0.6C1262.3-249.5,1262.3-248.8,1262.7-248.8L1262.7-248.8z"/>
			</g>
		</g>
		<g>
			<g>
				<path class="st1" d="M1040.9-287.4c0.4,0,0.4-0.6,0-0.6C1040.5-288,1040.5-287.4,1040.9-287.4L1040.9-287.4z"/>
			</g>
		</g>
		<g>
			<g>
				<path class="st1" d="M1029.7-215.1c0.4,0,0.4-0.6,0-0.6C1029.3-215.7,1029.3-215.1,1029.7-215.1L1029.7-215.1z"/>
			</g>
		</g>
		<g>
			<g>
				<path class="st1" d="M910.8-219.9c0.4,0,0.4-0.6,0-0.6C910.4-220.6,910.4-219.9,910.8-219.9L910.8-219.9z"/>
			</g>
		</g>
		<g>
			<g>
				<path class="st1" d="M906-324.4c0.4,0,0.4-0.6,0-0.6C905.6-325,905.6-324.4,906-324.4L906-324.4z"/>
			</g>
		</g>
		<g>
			<g>
				<path class="st1" d="M640.9-306.7c0.4,0,0.4-0.6,0-0.6C640.5-307.3,640.5-306.7,640.9-306.7L640.9-306.7z"/>
			</g>
		</g>
		<g>
			<g>
				<path class="st1" d="M515.6-86.6c0.4,0,0.4-0.6,0-0.6S515.2-86.6,515.6-86.6L515.6-86.6z"/>
			</g>
		</g>
		<g>
			<g>
				<path class="st1" d="M379-56.1c0.4,0,0.4-0.6,0-0.6S378.6-56.1,379-56.1L379-56.1z"/>
			</g>
		</g>
		<g>
			<g>
				<path class="st1" d="M449.7,117.5c0.4,0,0.4-0.6,0-0.6C449.3,116.8,449.3,117.5,449.7,117.5L449.7,117.5z"/>
			</g>
		</g>
		<g>
			<g>
				<path class="st1" d="M356.5,266.9c0.4,0,0.4-0.6,0-0.6C356.1,266.2,356.1,266.9,356.5,266.9L356.5,266.9z"/>
			</g>
		</g>
		<g>
			<g>
				<path class="st1" d="M665-146c0.4,0,0.4-0.6,0-0.6C664.6-146.7,664.6-146,665-146L665-146z"/>
			</g>
		</g>

			<animateTransform  accumulate="none" additive="replace" attributeName="transform" attributeType="XML" calcMode="linear" dur="400s" fill="remove" from="0 970 440" repeatCount="indefinite" restart="always" to="-360 970 440" type="rotate">
			</animateTransform>
	</g>
	<g id="Camada_2_1_">
		<g>
			<g>
				<path class="st1" d="M845.7,283.8c1.5,0,1.5-2.4,0-2.4C844.2,281.4,844.2,283.8,845.7,283.8L845.7,283.8z"/>
			</g>
		</g>
		<g>
			<g>
				<path class="st1" d="M844.1,439.3c1.1,0,1.2-1.8,0-1.8C843,437.6,842.9,439.3,844.1,439.3L844.1,439.3z"/>
			</g>
		</g>
		<g>
			<g>
				<path class="st1" d="M1011.2,193.5c1.1,0,1.2-1.8,0-1.8C1010.1,191.8,1010,193.5,1011.2,193.5L1011.2,193.5z"/>
			</g>
		</g>
		<g>
			<g>
				<path class="st1" d="M1025.7,379.9c1.1,0,1.2-1.8,0-1.8C1024.6,378.1,1024.5,379.9,1025.7,379.9L1025.7,379.9z"/>
			</g>
		</g>
		<g>
			<g>
				<path class="st1" d="M1226.5,299.6c1.1,0,1.2-1.8,0-1.8C1225.4,297.8,1225.3,299.6,1226.5,299.6L1226.5,299.6z"/>
			</g>
		</g>
		<g>
			<g>
				<path class="st1" d="M681.9,340c1.5,0,1.5-2.4,0-2.4C680.3,337.6,680.3,340,681.9,340L681.9,340z"/>
			</g>
		</g>
		<g>
			<g>
				<path class="st1" d="M840.9,645.3c1.5,0,1.5-2.4,0-2.4C839.4,642.9,839.4,645.3,840.9,645.3L840.9,645.3z"/>
			</g>
		</g>
		<g>
			<g>
				<path class="st1" d="M1008,653.3c1.5,0,1.5-2.4,0-2.4C1006.5,650.9,1006.5,653.3,1008,653.3L1008,653.3z"/>
			</g>
		</g>
		<g>
			<g>
				<path class="st1" d="M919.6,487.9c1.5,0,1.5-2.4,0-2.4C918.1,485.4,918.1,487.9,919.6,487.9L919.6,487.9z"/>
			</g>
		</g>
		<g>
			<g>
				<path class="st1" d="M1117.3,526.4c1.5,0,1.5-2.4,0-2.4C1115.7,524,1115.7,526.4,1117.3,526.4L1117.3,526.4z"/>
			</g>
		</g>
		<g>
			<g>
				<path class="st1" d="M1273.1,438.1c1.5,0,1.5-2.4,0-2.4C1271.6,435.6,1271.6,438.1,1273.1,438.1L1273.1,438.1z"/>
			</g>
		</g>
		<g>
			<g>
				<path class="st1" d="M1146.2,381.8c1.5,0,1.5-2.4,0-2.4S1144.7,381.8,1146.2,381.8L1146.2,381.8z"/>
			</g>
		</g>
		<g>
			<g>
				<path class="st1" d="M1115.7,622.5c1.1,0,1.2-1.8,0-1.8C1114.5,620.7,1114.4,622.5,1115.7,622.5L1115.7,622.5z"/>
			</g>
		</g>
		<g>
			<g>
				<path class="st1" d="M1107.6,248.2c1.1,0,1.2-1.8,0-1.8C1106.5,246.4,1106.4,248.2,1107.6,248.2L1107.6,248.2z"/>
			</g>
		</g>
		<g>
			<g>
				<path class="st1" d="M861.8,143.7c1.1,0,1.2-1.8,0-1.8C860.7,142,860.6,143.7,861.8,143.7L861.8,143.7z"/>
			</g>
		</g>
		<g>
			<g>
				<path class="st1" d="M741.3,466.6c1.1,0,1.2-1.8,0-1.8C740.2,464.9,740.1,466.6,741.3,466.6L741.3,466.6z"/>
			</g>
		</g>
		<g>
			<g>
				<path class="st1" d="M908.4,355.8c1.1,0,1.2-1.8,0-1.8C907.3,354,907.2,355.8,908.4,355.8L908.4,355.8z"/>
			</g>
		</g>
		<g>
			<g>
				<path class="st1" d="M770.2,214.4c1.1,0,1.2-1.8,0-1.8C769.1,212.6,769,214.4,770.2,214.4L770.2,214.4z"/>
			</g>
		</g>
		<g>
			<g>
				<path class="st1" d="M1112.4,161.4c1.1,0,1.2-1.8,0-1.8C1111.3,159.6,1111.2,161.4,1112.4,161.4L1112.4,161.4z"/>
			</g>
		</g>
		<g>
			<g>
				<path class="st1" d="M1001.6,530.3c0.4,0,0.4-0.6,0-0.6C1001.2,529.7,1001.2,530.3,1001.6,530.3L1001.6,530.3z"/>
			</g>
		</g>
		<g>
			<g>
				<path class="st1" d="M1004.8,462.9c0.4,0,0.4-0.6,0-0.6C1004.4,462.2,1004.4,462.9,1004.8,462.9L1004.8,462.9z"/>
			</g>
		</g>
		<g>
			<g>
				<path class="st1" d="M819.2,542.4c0.4,0,0.4-0.6,0-0.6C818.8,541.8,818.8,542.4,819.2,542.4L819.2,542.4z"/>
			</g>
		</g>
		<g>
			<g>
				<path class="st1" d="M1202.4,542.4c0.4,0,0.4-0.6,0-0.6C1202,541.8,1202,542.4,1202.4,542.4L1202.4,542.4z"/>
			</g>
		</g>
		<g>
			<g>
				<path class="st1" d="M1076.3,296.6c0.4,0,0.4-0.6,0-0.6C1075.9,295.9,1075.9,296.6,1076.3,296.6L1076.3,296.6z"/>
			</g>
		</g>
		<g>
			<g>
				<path class="st1" d="M955,254.8c0.4,0,0.4-0.6,0-0.6C954.6,254.2,954.6,254.8,955,254.8L955,254.8z"/>
			</g>
		</g>
		<g>
			<g>
				<path class="st1" d="M970.3,119.1c0.4,0,0.4-0.6,0-0.6C969.9,118.4,969.9,119.1,970.3,119.1L970.3,119.1z"/>
			</g>
		</g>
		<g>
			<g>
				<path class="st1" d="M907.6,613.9c0.4,0,0.4-0.6,0-0.6C907.2,613.2,907.2,613.9,907.6,613.9L907.6,613.9z"/>
			</g>
		</g>
		<g>
			<g>
				<path class="st1" d="M971.9,697.4c0.4,0,0.4-0.6,0-0.6C971.5,696.8,971.5,697.4,971.9,697.4L971.9,697.4z"/>
			</g>
		</g>
		<g>
			<g>
				<path class="st1" d="M968.6,415.2c1.1,0,1.2-1.8,0-1.8C967.4,413.4,967.4,415.2,968.6,415.2L968.6,415.2z"/>
			</g>
		</g>
		<g>
			<g>
				<path class="st1" d="M838.5,526.1c1.1,0,1.2-1.8,0-1.8C837.4,524.3,837.3,526.1,838.5,526.1L838.5,526.1z"/>
			</g>
		</g>
		<g>
			<g>
				<path class="st1" d="M782.3,333.3c1.1,0,1.2-1.8,0-1.8C781.2,331.5,781.1,333.3,782.3,333.3L782.3,333.3z"/>
			</g>
		</g>
		<g>
			<g>
				<path class="st1" d="M1002.4,555c1.1,0,1.2-1.8,0-1.8C1001.3,553.2,1001.2,555,1002.4,555L1002.4,555z"/>
			</g>
		</g>
		<g>
			<g>
				<path class="st1" d="M1029.7,466.4c0.8,0,0.8-1.2,0-1.2C1028.9,465.2,1028.9,466.4,1029.7,466.4L1029.7,466.4z"/>
			</g>
		</g>
		<g>
			<g>
				<path class="st1" d="M1028.1,292.9c0.8,0,0.8-1.2,0-1.2C1027.3,291.7,1027.3,292.9,1028.1,292.9L1028.1,292.9z"/>
			</g>
		</g>
		<g>
			<g>
				<path class="st1" d="M1110,435.9c0.8,0,0.8-1.2,0-1.2C1109.2,434.7,1109.2,435.9,1110,435.9L1110,435.9z"/>
			</g>
		</g>
		<g>
			<g>
				<path class="st1" d="M1211.2,374.8c0.8,0,0.8-1.2,0-1.2C1210.4,373.6,1210.4,374.8,1211.2,374.8L1211.2,374.8z"/>
			</g>
		</g>
		<g>
			<g>
				<path class="st1" d="M1077.9,678.5c0.8,0,0.8-1.2,0-1.2C1077.1,677.3,1077.1,678.5,1077.9,678.5L1077.9,678.5z"/>
			</g>
		</g>
		<g>
			<g>
				<path class="st1" d="M753.4,575.7c0.8,0,0.8-1.2,0-1.2C752.6,574.5,752.6,575.7,753.4,575.7L753.4,575.7z"/>
			</g>
		</g>
		<g>
			<g>
				<path class="st1" d="M1194,542.7c0.8,0,0.8-1.2,0-1.2C1193.3,541.5,1193.3,542.7,1194,542.7L1194,542.7z"/>
			</g>
		</g>
		<g>
			<g>
				<path class="st1" d="M1192.8,470.4c0.8,0,0.8-1.2,0-1.2C1192,469.2,1192,470.4,1192.8,470.4L1192.8,470.4z"/>
			</g>
		</g>

			<animateTransform  accumulate="none" additive="replace" attributeName="transform" attributeType="XML" calcMode="linear" dur="400s" fill="remove" from="0 970 440" repeatCount="indefinite" restart="always" to="-360 970 440" type="rotate">
			</animateTransform>
	</g>
	<g id="Camada_3_1_">
		<g>
			<g>
				<path class="st1" d="M650.5,167.3c1.5,0,1.5-2.4,0-2.4C649,164.9,649,167.3,650.5,167.3L650.5,167.3z"/>
			</g>
		</g>
		<g>
			<g>
				<path class="st1" d="M681.9,84.6c1.5,0,1.5-2.4,0-2.4C680.3,82.2,680.3,84.6,681.9,84.6L681.9,84.6z"/>
			</g>
		</g>
		<g>
			<g>
				<path class="st1" d="M571,180.2c1.5,0,1.5-2.4,0-2.4C569.5,177.8,569.5,180.2,571,180.2L571,180.2z"/>
			</g>
		</g>
		<g>
			<g>
				<path class="st1" d="M629.7,278.7c1.1,0,1.2-1.8,0-1.8C628.5,276.9,628.5,278.7,629.7,278.7L629.7,278.7z"/>
			</g>
		</g>
		<g>
			<g>
				<path class="st1" d="M518.8,305.2c1.1,0,1.2-1.8,0-1.8C517.7,303.4,517.6,305.2,518.8,305.2L518.8,305.2z"/>
			</g>
		</g>
		<g>
			<g>
				<path class="st1" d="M620,68.2c1.1,0,1.2-1.8,0-1.8C618.9,66.4,618.8,68.2,620,68.2L620,68.2z"/>
			</g>
		</g>
		<g>
			<g>
				<path class="st1" d="M746.9,135.7c1.1,0,1.2-1.8,0-1.8C745.8,133.9,745.7,135.7,746.9,135.7L746.9,135.7z"/>
			</g>
		</g>
		<g>
			<g>
				<path class="st1" d="M712.4-11.3c1.1,0,1.2-1.8,0-1.8C711.3-13.1,711.2-11.3,712.4-11.3L712.4-11.3z"/>
			</g>
		</g>
		<g>
			<g>
				<path class="st1" d="M744.5,61c1.1,0,1.2-1.8,0-1.8C743.4,59.2,743.3,61,744.5,61L744.5,61z"/>
			</g>
		</g>
		<g>
			<g>
				<path class="st1" d="M903.6,35.3c1.1,0,1.2-1.8,0-1.8C902.5,33.5,902.4,35.3,903.6,35.3L903.6,35.3z"/>
			</g>
		</g>
		<g>
			<g>
				<path class="st1" d="M825.7,75.4c1.1,0,1.2-1.8,0-1.8C824.5,73.7,824.5,75.4,825.7,75.4L825.7,75.4z"/>
			</g>
		</g>
		<g>
			<g>
				<path class="st1" d="M823.3-6.5c1.1,0,1.2-1.8,0-1.8C822.1-8.3,822-6.5,823.3-6.5L823.3-6.5z"/>
			</g>
		</g>
		<g>
			<g>
				<path class="st1" d="M857-98.1c1.1,0,1.2-1.8,0-1.8C855.9-99.8,855.8-98.1,857-98.1L857-98.1z"/>
			</g>
		</g>
		<g>
			<g>
				<path class="st1" d="M897.2-16.9c1.1,0,1.2-1.8,0-1.8C896-18.7,896-16.9,897.2-16.9L897.2-16.9z"/>
			</g>
		</g>
		<g>
			<g>
				<path class="st1" d="M977.5-97.3c1.1,0,1.2-1.8,0-1.8C976.4-99,976.3-97.3,977.5-97.3L977.5-97.3z"/>
			</g>
		</g>
		<g>
			<g>
				<path class="st1" d="M761.4-67.8c0.8,0,0.8-1.2,0-1.2S760.6-67.8,761.4-67.8L761.4-67.8z"/>
			</g>
		</g>
		<g>
			<g>
				<path class="st1" d="M791.9,126.6c0.8,0,0.8-1.2,0-1.2S791.1,126.6,791.9,126.6L791.9,126.6z"/>
			</g>
		</g>
		<g>
			<g>
				<path class="st1" d="M676.3,253.5c0.8,0,0.8-1.2,0-1.2S675.4,253.5,676.3,253.5L676.3,253.5z"/>
			</g>
		</g>
		<g>
			<g>
				<path class="st1" d="M622.4,394.1c0.8,0,0.8-1.2,0-1.2S621.6,394.1,622.4,394.1L622.4,394.1z"/>
			</g>
		</g>
		<g>
			<g>
				<path class="st1" d="M555.8,290.5c0.8,0,0.8-1.2,0-1.2S555,290.5,555.8,290.5L555.8,290.5z"/>
			</g>
		</g>
		<g>
			<g>
				<path class="st1" d="M481.9,200.5c0.8,0,0.8-1.2,0-1.2S481.1,200.5,481.9,200.5L481.9,200.5z"/>
			</g>
		</g>
		<g>
			<g>
				<path class="st1" d="M474.6,369.8c1.5,0,1.5-2.4,0-2.4C473.1,367.4,473.1,369.8,474.6,369.8L474.6,369.8z"/>
			</g>
		</g>
		<g>
			<g>
				<path class="st1" d="M493.9,571.4c1.5,0,1.5-2.4,0-2.4S492.4,571.4,493.9,571.4L493.9,571.4z"/>
			</g>
		</g>
		<g>
			<g>
				<path class="st1" d="M453.7,459.7c1.5,0,1.5-2.4,0-2.4C452.2,457.3,452.2,459.7,453.7,459.7L453.7,459.7z"/>
			</g>
		</g>
		<g>
			<g>
				<path class="st1" d="M532.5,438.1c1.5,0,1.5-2.4,0-2.4C530.9,435.6,530.9,438.1,532.5,438.1L532.5,438.1z"/>
			</g>
		</g>
		<g>
			<g>
				<path class="st1" d="M544.5,377.8c1.5,0,1.5-2.4,0-2.4C543,375.4,543,377.8,544.5,377.8L544.5,377.8z"/>
			</g>
		</g>
		<g>
			<g>
				<path class="st1" d="M635.3,516c1.5,0,1.5-2.4,0-2.4C633.8,513.6,633.8,516,635.3,516L635.3,516z"/>
			</g>
		</g>
		<g>
			<g>
				<path class="st1" d="M590.3,454.6c1.1,0,1.2-1.8,0-1.8C589.2,452.8,589.1,454.6,590.3,454.6L590.3,454.6z"/>
			</g>
		</g>
		<g>
			<g>
				<path class="st1" d="M555.8,623.3c1.1,0,1.2-1.8,0-1.8C554.6,621.5,554.6,623.3,555.8,623.3L555.8,623.3z"/>
			</g>
		</g>
		<g>
			<g>
				<path class="st1" d="M527.6,507.6c1.1,0,1.2-1.8,0-1.8C526.5,505.8,526.4,507.6,527.6,507.6L527.6,507.6z"/>
			</g>
		</g>
		<g>
			<g>
				<path class="st1" d="M704.4,661.8c1.1,0,1.2-1.8,0-1.8C703.2,660.1,703.2,661.8,704.4,661.8L704.4,661.8z"/>
			</g>
		</g>
		<g>
			<g>
				<path class="st1" d="M681.9,607.5c1.5,0,1.5-2.4,0-2.4C680.3,605.1,680.3,607.5,681.9,607.5L681.9,607.5z"/>
			</g>
		</g>
		<g>
			<g>
				<path class="st1" d="M581.5,534.4c1.5,0,1.5-2.4,0-2.4S579.9,534.4,581.5,534.4L581.5,534.4z"/>
			</g>
		</g>
		<g>
			<g>
				<path class="st1" d="M650.5,702.3c1.5,0,1.5-2.4,0-2.4C649,699.9,649,702.3,650.5,702.3L650.5,702.3z"/>
			</g>
		</g>
		<g>
			<g>
				<path class="st1" d="M623.2,595.7c0.8,0,0.8-1.2,0-1.2S622.4,595.7,623.2,595.7L623.2,595.7z"/>
			</g>
		</g>
		<g>
			<g>
				<path class="st1" d="M567,715.4c0.8,0,0.8-1.2,0-1.2C566.2,714.2,566.2,715.4,567,715.4L567,715.4z"/>
			</g>
		</g>
		<g>
			<g>
				<path class="st1" d="M700.4,824.7c0.8,0,0.8-1.2,0-1.2S699.5,824.7,700.4,824.7L700.4,824.7z"/>
			</g>
		</g>
		<g>
			<g>
				<path class="st1" d="M805.6,678.5c0.8,0,0.8-1.2,0-1.2S804.8,678.5,805.6,678.5L805.6,678.5z"/>
			</g>
		</g>
		<g>
			<g>
				<path class="st1" d="M759.8,731.2c0.4,0,0.4-0.6,0-0.6C759.4,730.5,759.4,731.2,759.8,731.2L759.8,731.2z"/>
			</g>
		</g>
		<g>
			<g>
				<path class="st1" d="M693.9,744c0.4,0,0.4-0.6,0-0.6C693.5,743.4,693.5,744,693.9,744L693.9,744z"/>
			</g>
		</g>
		<g>
			<g>
				<path class="st1" d="M806.4,906.3c0.4,0,0.4-0.6,0-0.6C806,905.6,806,906.3,806.4,906.3L806.4,906.3z"/>
			</g>
		</g>
		<g>
			<g>
				<path class="st1" d="M842.5,752.1c0.4,0,0.4-0.6,0-0.6C842.1,751.4,842.1,752.1,842.5,752.1L842.5,752.1z"/>
			</g>
		</g>
		<g>
			<g>
				<path class="st1" d="M753.4,813.1c0.4,0,0.4-0.6,0-0.6C753,812.5,753,813.1,753.4,813.1L753.4,813.1z"/>
			</g>
		</g>
		<g>
			<g>
				<path class="st1" d="M624,777.8c0.4,0,0.4-0.6,0-0.6S623.6,777.8,624,777.8L624,777.8z"/>
			</g>
		</g>
		<g>
			<g>
				<path class="st1" d="M967.8,765.7c0.4,0,0.4-0.6,0-0.6C967.4,765.1,967.4,765.7,967.8,765.7L967.8,765.7z"/>
			</g>
		</g>
		<g>
			<g>
				<path class="st1" d="M844.9,807.5c0.4,0,0.4-0.6,0-0.6C844.5,806.8,844.5,807.5,844.9,807.5L844.9,807.5z"/>
			</g>
		</g>
		<g>
			<g>
				<path class="st1" d="M946.2,899.1c0.4,0,0.4-0.6,0-0.6C945.8,898.4,945.8,899.1,946.2,899.1L946.2,899.1z"/>
			</g>
		</g>
		<g>
			<g>
				<path class="st1" d="M881.1,833.5c0.8,0,0.8-1.2,0-1.2S880.3,833.5,881.1,833.5L881.1,833.5z"/>
			</g>
		</g>
		<g>
			<g>
				<path class="st1" d="M994.4,939.5c0.8,0,0.8-1.2,0-1.2C993.6,938.3,993.6,939.5,994.4,939.5L994.4,939.5z"/>
			</g>
		</g>
		<g>
			<g>
				<path class="st1" d="M1076.3,901.8c0.8,0,0.8-1.2,0-1.2C1075.5,900.6,1075.5,901.8,1076.3,901.8L1076.3,901.8z"/>
			</g>
		</g>
		<g>
			<g>
				<path class="st1" d="M1017.7,838.3c0.8,0,0.8-1.2,0-1.2C1016.8,837.1,1016.8,838.3,1017.7,838.3L1017.7,838.3z"/>
			</g>
		</g>
		<g>
			<g>
				<path class="st1" d="M1159,731.5c0.8,0,0.8-1.2,0-1.2S1158.2,731.5,1159,731.5L1159,731.5z"/>
			</g>
		</g>
		<g>
			<g>
				<path class="st1" d="M1143,852.8c0.8,0,0.8-1.2,0-1.2C1142.2,851.6,1142.2,852.8,1143,852.8L1143,852.8z"/>
			</g>
		</g>
		<g>
			<g>
				<path class="st1" d="M1073.1,756.4c0.8,0,0.8-1.2,0-1.2C1072.3,755.2,1072.3,756.4,1073.1,756.4L1073.1,756.4z"/>
			</g>
		</g>
		<g>
			<g>
				<path class="st1" d="M1247.4,852c0.8,0,0.8-1.2,0-1.2C1246.6,850.8,1246.6,852,1247.4,852L1247.4,852z"/>
			</g>
		</g>
		<g>
			<g>
				<path class="st1" d="M1212,765.5c1.1,0,1.2-1.8,0-1.8C1210.9,763.7,1210.8,765.5,1212,765.5L1212,765.5z"/>
			</g>
		</g>
		<g>
			<g>
				<path class="st1" d="M1259.4,616.1c1.1,0,1.2-1.8,0-1.8C1258.3,614.3,1258.2,616.1,1259.4,616.1L1259.4,616.1z"/>
			</g>
		</g>
		<g>
			<g>
				<path class="st1" d="M1301.2,734.1c1.1,0,1.2-1.8,0-1.8C1300.1,732.4,1300,734.1,1301.2,734.1L1301.2,734.1z"/>
			</g>
		</g>
		<g>
			<g>
				<path class="st1" d="M1212.9,678.7c1.1,0,1.2-1.8,0-1.8C1211.7,677,1211.6,678.7,1212.9,678.7L1212.9,678.7z"/>
			</g>
		</g>
		<g>
			<g>
				<path class="st1" d="M1330.9,826.5c1.1,0,1.2-1.8,0-1.8C1329.8,824.8,1329.7,826.5,1330.9,826.5L1330.9,826.5z"/>
			</g>
		</g>
		<g>
			<g>
				<path class="st1" d="M1423.3,705.2c1.1,0,1.2-1.8,0-1.8C1422.2,703.5,1422.1,705.2,1423.3,705.2L1423.3,705.2z"/>
			</g>
		</g>
		<g>
			<g>
				<path class="st1" d="M1330.1,644.2c1.1,0,1.2-1.8,0-1.8C1329,642.4,1328.9,644.2,1330.1,644.2L1330.1,644.2z"/>
			</g>
		</g>
		<g>
			<g>
				<path class="st1" d="M1372.7,759.9c1.1,0,1.2-1.8,0-1.8C1371.6,758.1,1371.5,759.9,1372.7,759.9L1372.7,759.9z"/>
			</g>
		</g>
		<g>
			<g>
				<path class="st1" d="M1436.2,579.9c1.1,0,1.2-1.8,0-1.8C1435,578.1,1435,579.9,1436.2,579.9L1436.2,579.9z"/>
			</g>
		</g>
		<g>
			<g>
				<path class="st1" d="M1408.1,617.2c1.5,0,1.5-2.4,0-2.4C1406.5,614.8,1406.5,617.2,1408.1,617.2L1408.1,617.2z"/>
			</g>
		</g>
		<g>
			<g>
				<path class="st1" d="M1330.1,482.2c1.5,0,1.5-2.4,0-2.4C1328.6,479.8,1328.6,482.2,1330.1,482.2L1330.1,482.2z"/>
			</g>
		</g>
		<g>
			<g>
				<path class="st1" d="M1488.4,468.6c1.5,0,1.5-2.4,0-2.4C1486.9,466.2,1486.9,468.6,1488.4,468.6L1488.4,468.6z"/>
			</g>
		</g>
		<g>
			<g>
				<path class="st1" d="M1347.8,549.7c1.5,0,1.5-2.4,0-2.4S1346.3,549.7,1347.8,549.7L1347.8,549.7z"/>
			</g>
		</g>
		<g>
			<g>
				<path class="st1" d="M1418.5,508.7c1.5,0,1.5-2.4,0-2.4S1417,508.7,1418.5,508.7L1418.5,508.7z"/>
			</g>
		</g>
		<g>
			<g>
				<path class="st1" d="M1494,607.5c1.5,0,1.5-2.4,0-2.4C1492.5,605.1,1492.5,607.5,1494,607.5L1494,607.5z"/>
			</g>
		</g>
		<g>
			<g>
				<path class="st1" d="M1501.2,284.6c1.5,0,1.5-2.4,0-2.4C1499.7,282.2,1499.7,284.6,1501.2,284.6L1501.2,284.6z"/>
			</g>
		</g>
		<g>
			<g>
				<path class="st1" d="M1432.1,421.2c1.5,0,1.5-2.4,0-2.4C1430.6,418.8,1430.6,421.2,1432.1,421.2L1432.1,421.2z"/>
			</g>
		</g>
		<g>
			<g>
				<path class="st1" d="M1314.9,340c1.5,0,1.5-2.4,0-2.4S1313.3,340,1314.9,340L1314.9,340z"/>
			</g>
		</g>
		<g>
			<g>
				<path class="st1" d="M1405.6,228.4c1.5,0,1.5-2.4,0-2.4S1404.1,228.4,1405.6,228.4L1405.6,228.4z"/>
			</g>
		</g>
		<g>
			<g>
				<path class="st1" d="M1428.9,366.6c1.5,0,1.5-2.4,0-2.4C1427.4,364.1,1427.4,366.6,1428.9,366.6L1428.9,366.6z"/>
			</g>
		</g>
		<g>
			<g>
				<path class="st1" d="M1398.4,309.2c1.1,0,1.2-1.8,0-1.8C1397.3,307.4,1397.2,309.2,1398.4,309.2L1398.4,309.2z"/>
			</g>
		</g>
		<g>
			<g>
				<path class="st1" d="M1305.2,228.9c1.1,0,1.2-1.8,0-1.8C1304.1,227.1,1304,228.9,1305.2,228.9L1305.2,228.9z"/>
			</g>
		</g>
		<g>
			<g>
				<path class="st1" d="M1425.7,155.8c1.1,0,1.2-1.8,0-1.8C1424.6,154,1424.5,155.8,1425.7,155.8L1425.7,155.8z"/>
			</g>
		</g>
		<g>
			<g>
				<path class="st1" d="M1526.9,406.4c1.1,0,1.2-1.8,0-1.8C1525.8,404.6,1525.7,406.4,1526.9,406.4L1526.9,406.4z"/>
			</g>
		</g>
		<g>
			<g>
				<path class="st1" d="M1347,256.2c1.1,0,1.2-1.8,0-1.8C1345.9,254.4,1345.8,256.2,1347,256.2L1347,256.2z"/>
			</g>
		</g>
		<g>
			<g>
				<path class="st1" d="M1286.8,129.8c0.8,0,0.8-1.2,0-1.2C1285.9,128.6,1285.9,129.8,1286.8,129.8L1286.8,129.8z"/>
			</g>
		</g>
		<g>
			<g>
				<path class="st1" d="M1354.2,198.1c0.8,0,0.8-1.2,0-1.2C1353.4,196.9,1353.4,198.1,1354.2,198.1L1354.2,198.1z"/>
			</g>
		</g>
		<g>
			<g>
				<path class="st1" d="M1379.1,46.3c0.8,0,0.8-1.2,0-1.2C1378.3,45.1,1378.3,46.3,1379.1,46.3L1379.1,46.3z"/>
			</g>
		</g>
		<g>
			<g>
				<path class="st1" d="M1228.9,13.4c0.8,0,0.8-1.2,0-1.2C1228.1,12.1,1228.1,13.4,1228.9,13.4L1228.9,13.4z"/>
			</g>
		</g>
		<g>
			<g>
				<path class="st1" d="M1357.4,117.8c0.8,0,0.8-1.2,0-1.2S1356.6,117.8,1357.4,117.8L1357.4,117.8z"/>
			</g>
		</g>
		<g>
			<g>
				<path class="st1" d="M1122.1,54.3c0.8,0,0.8-1.2,0-1.2C1121.3,53.1,1121.3,54.3,1122.1,54.3L1122.1,54.3z"/>
			</g>
		</g>
		<g>
			<g>
				<path class="st1" d="M1206.4,113.8c0.8,0,0.8-1.2,0-1.2C1205.6,112.6,1205.6,113.8,1206.4,113.8L1206.4,113.8z"/>
			</g>
		</g>
		<g>
			<g>
				<path class="st1" d="M1263.5,194.1c0.8,0,0.8-1.2,0-1.2C1262.7,192.9,1262.7,194.1,1263.5,194.1L1263.5,194.1z"/>
			</g>
		</g>
		<g>
			<g>
				<path class="st1" d="M1058.6,2.6c0.4,0,0.4-0.6,0-0.6S1058.2,2.6,1058.6,2.6L1058.6,2.6z"/>
			</g>
		</g>
		<g>
			<g>
				<path class="st1" d="M963.8,24.3c0.4,0,0.4-0.6,0-0.6C963.4,23.6,963.4,24.3,963.8,24.3L963.8,24.3z"/>
			</g>
		</g>
		<g>
			<g>
				<path class="st1" d="M942.9-114.7c0.4,0,0.4-0.6,0-0.6S942.5-114.7,942.9-114.7L942.9-114.7z"/>
			</g>
		</g>
		<g>
			<g>
				<path class="st1" d="M1098.8-8.7c0.4,0,0.4-0.6,0-0.6C1098.4-9.3,1098.4-8.7,1098.8-8.7L1098.8-8.7z"/>
			</g>
		</g>
		<g>
			<g>
				<path class="st1" d="M1156.6-81.8c0.4,0,0.4-0.6,0-0.6C1156.2-82.4,1156.2-81.8,1156.6-81.8L1156.6-81.8z"/>
			</g>
		</g>
		<g>
			<g>
				<path class="st1" d="M1268.3,54.8c0.4,0,0.4-0.6,0-0.6C1267.9,54.2,1267.9,54.8,1268.3,54.8L1268.3,54.8z"/>
			</g>
		</g>
		<g>
			<g>
				<path class="st1" d="M1171.9,17.8c0.4,0,0.4-0.6,0-0.6C1171.5,17.2,1171.5,17.8,1171.9,17.8L1171.9,17.8z"/>
			</g>
		</g>
		<g>
			<g>
				<path class="st1" d="M1281.9-32.8c0.4,0,0.4-0.6,0-0.6C1281.5-33.4,1281.5-32.8,1281.9-32.8L1281.9-32.8z"/>
			</g>
		</g>
		<g>
			<g>
				<path class="st1" d="M1057-87.4c0.4,0,0.4-0.6,0-0.6S1056.6-87.4,1057-87.4L1057-87.4z"/>
			</g>
		</g>
		<g>
			<g>
				<path class="st1" d="M1016.8-34.4c0.4,0,0.4-0.6,0-0.6C1016.4-35,1016.4-34.4,1016.8-34.4L1016.8-34.4z"/>
			</g>
		</g>
		<g>
			<g>
				<path class="st1" d="M1002.4-49.3c0.8,0,0.8-1.2,0-1.2S1001.6-49.3,1002.4-49.3L1002.4-49.3z"/>
			</g>
		</g>
		<g>
			<g>
				<path class="st1" d="M917.2-62.2c0.8,0,0.8-1.2,0-1.2S916.4-62.2,917.2-62.2L917.2-62.2z"/>
			</g>
		</g>
		<g>
			<g>
				<path class="st1" d="M1410.5,106.5c0.8,0,0.8-1.2,0-1.2C1409.7,105.3,1409.7,106.5,1410.5,106.5L1410.5,106.5z"/>
			</g>
		</g>
		<g>
			<g>
				<path class="st1" d="M1494,245.5c0.8,0,0.8-1.2,0-1.2C1493.2,244.3,1493.2,245.5,1494,245.5L1494,245.5z"/>
			</g>
		</g>
		<g>
			<g>
				<path class="st1" d="M1471.5,334.1c1.1,0,1.2-1.8,0-1.8C1470.4,332.3,1470.3,334.1,1471.5,334.1L1471.5,334.1z"/>
			</g>
		</g>
		<g>
			<g>
				<path class="st1" d="M1401.6,419.3c1.1,0,1.2-1.8,0-1.8C1400.5,417.5,1400.4,419.3,1401.6,419.3L1401.6,419.3z"/>
			</g>
		</g>
		<g>
			<g>
				<path class="st1" d="M768.5,875.5c1.1,0,1.2-1.8,0-1.8C767.3,873.7,767.3,875.5,768.5,875.5L768.5,875.5z"/>
			</g>
		</g>
		<g>
			<g>
				<path class="st1" d="M821.6,779c1.1,0,1.2-1.8,0-1.8C820.4,777.3,820.4,779,821.6,779L821.6,779z"/>
			</g>
		</g>

			<animateTransform  accumulate="none" additive="replace" attributeName="transform" attributeType="XML" calcMode="linear" dur="400s" fill="remove" from="0 970 440" repeatCount="indefinite" restart="always" to="-360 970 440" type="rotate">
			</animateTransform>
	</g>
	<g id="Camada_5_1_">
		<g>
			<g>
				<path class="st1" d="M21.4,331.1c1.5,0,1.5-2.4,0-2.4C19.9,328.7,19.9,331.1,21.4,331.1L21.4,331.1z"/>
			</g>
		</g>
		<g>
			<g>
				<path class="st1" d="M115.4,405.8c1.5,0,1.5-2.4,0-2.4C113.9,403.4,113.9,405.8,115.4,405.8L115.4,405.8z"/>
			</g>
		</g>
		<g>
			<g>
				<path class="st1" d="M-55.7,514.3c1.5,0,1.5-2.4,0-2.4S-57.2,514.3-55.7,514.3L-55.7,514.3z"/>
			</g>
		</g>
		<g>
			<g>
				<path class="st1" d="M137.1,673.3c1.5,0,1.5-2.4,0-2.4S135.6,673.3,137.1,673.3L137.1,673.3z"/>
			</g>
		</g>
		<g>
			<g>
				<path class="st1" d="M91.3,837.2c1.5,0,1.5-2.4,0-2.4C89.8,834.8,89.8,837.2,91.3,837.2L91.3,837.2z"/>
			</g>
		</g>
		<g>
			<g>
				<path class="st1" d="M64.8,586.6c1.5,0,1.5-2.4,0-2.4C63.3,584.2,63.3,586.6,64.8,586.6L64.8,586.6z"/>
			</g>
		</g>
		<g>
			<g>
				<path class="st1" d="M228.7,861.3c1.5,0,1.5-2.4,0-2.4S227.1,861.3,228.7,861.3L228.7,861.3z"/>
			</g>
		</g>
		<g>
			<g>
				<path class="st1" d="M-46.1,714.3c1.5,0,1.5-2.4,0-2.4S-47.6,714.3-46.1,714.3L-46.1,714.3z"/>
			</g>
		</g>
		<g>
			<g>
				<path class="st1" d="M226.2,1020.4c1.5,0,1.5-2.4,0-2.4C224.7,1018,224.7,1020.4,226.2,1020.4L226.2,1020.4z"/>
			</g>
		</g>
		<g>
			<g>
				<path class="st1" d="M409.5,1051.8c1.5,0,1.5-2.4,0-2.4C407.9,1049.4,407.9,1051.8,409.5,1051.8L409.5,1051.8z"/>
			</g>
		</g>
		<g>
			<g>
				<path class="st1" d="M308.2,950.5c1.5,0,1.5-2.4,0-2.4C306.7,948.1,306.7,950.5,308.2,950.5L308.2,950.5z"/>
			</g>
		</g>
		<g>
			<g>
				<path class="st1" d="M284.1,1124.1c1.5,0,1.5-2.4,0-2.4C282.6,1121.7,282.6,1124.1,284.1,1124.1L284.1,1124.1z"/>
			</g>
		</g>
		<g>
			<g>
				<path class="st1" d="M537.2,1162.6c1.5,0,1.5-2.4,0-2.4C535.6,1160.2,535.6,1162.6,537.2,1162.6L537.2,1162.6z"/>
			</g>
		</g>
		<g>
			<g>
				<path class="st1" d="M132.3,258.8c1.5,0,1.5-2.4,0-2.4S130.7,258.8,132.3,258.8L132.3,258.8z"/>
			</g>
		</g>
		<g>
			<g>
				<path class="st1" d="M31,167.2c1.5,0,1.5-2.4,0-2.4C29.5,164.8,29.5,167.2,31,167.2L31,167.2z"/>
			</g>
		</g>
		<g>
			<g>
				<path class="st1" d="M110.6-49.7c1.5,0,1.5-2.4,0-2.4C109-52.1,109-49.7,110.6-49.7L110.6-49.7z"/>
			</g>
		</g>
		<g>
			<g>
				<path class="st1" d="M202.1,109.3c1.5,0,1.5-2.4,0-2.4C200.6,106.9,200.6,109.3,202.1,109.3L202.1,109.3z"/>
			</g>
		</g>
		<g>
			<g>
				<path class="st1" d="M40.7,53.9c1.5,0,1.5-2.4,0-2.4C39.2,51.5,39.2,53.9,40.7,53.9L40.7,53.9z"/>
			</g>
		</g>
		<g>
			<g>
				<path class="st1" d="M-82.2,285.3c1.5,0,1.5-2.4,0-2.4S-83.7,285.3-82.2,285.3L-82.2,285.3z"/>
			</g>
		</g>
		<g>
			<g>
				<path class="st1" d="M202.1-64.2c1.5,0,1.5-2.4,0-2.4C200.6-66.6,200.6-64.2,202.1-64.2L202.1-64.2z"/>
			</g>
		</g>
		<g>
			<g>
				<path class="st1" d="M214.2-264.2c1.5,0,1.5-2.4,0-2.4C212.7-266.6,212.7-264.2,214.2-264.2L214.2-264.2z"/>
			</g>
		</g>
		<g>
			<g>
				<path class="st1" d="M404.7-293.1c1.5,0,1.5-2.4,0-2.4C403.1-295.5,403.1-293.1,404.7-293.1L404.7-293.1z"/>
			</g>
		</g>
		<g>
			<g>
				<path class="st1" d="M563.7-350.9c1.5,0,1.5-2.4,0-2.4C562.1-353.4,562.1-350.9,563.7-350.9L563.7-350.9z"/>
			</g>
		</g>
		<g>
			<g>
				<path class="st1" d="M327.5-141.3c1.5,0,1.5-2.4,0-2.4C325.9-143.7,325.9-141.3,327.5-141.3L327.5-141.3z"/>
			</g>
		</g>
		<g>
			<g>
				<path class="st1" d="M98.5-201.5c1.5,0,1.5-2.4,0-2.4S97-201.5,98.5-201.5L98.5-201.5z"/>
			</g>
		</g>
		<g>
			<g>
				<path class="st1" d="M1547-283.5c1.5,0,1.5-2.4,0-2.4C1545.5-285.9,1545.5-283.5,1547-283.5L1547-283.5z"/>
			</g>
		</g>
		<g>
			<g>
				<path class="st1" d="M1722.9-341.3c1.5,0,1.5-2.4,0-2.4C1721.4-343.7,1721.4-341.3,1722.9-341.3L1722.9-341.3z"/>
			</g>
		</g>
		<g>
			<g>
				<path class="st1" d="M1776-191.9c1.5,0,1.5-2.4,0-2.4C1774.4-194.3,1774.4-191.9,1776-191.9L1776-191.9z"/>
			</g>
		</g>
		<g>
			<g>
				<path class="st1" d="M1607.3-155.7c1.5,0,1.5-2.4,0-2.4C1605.7-158.2,1605.7-155.7,1607.3-155.7L1607.3-155.7z"/>
			</g>
		</g>
		<g>
			<g>
				<path class="st1" d="M1638.6-283.5c1.5,0,1.5-2.4,0-2.4C1637.1-285.9,1637.1-283.5,1638.6-283.5L1638.6-283.5z"/>
			</g>
		</g>
		<g>
			<g>
				<path class="st1" d="M1903.7-6.3c1.5,0,1.5-2.4,0-2.4C1902.2-8.7,1902.2-6.3,1903.7-6.3L1903.7-6.3z"/>
			</g>
		</g>
		<g>
			<g>
				<path class="st1" d="M1836.2-189.5c1.5,0,1.5-2.4,0-2.4C1834.7-191.9,1834.7-189.5,1836.2-189.5L1836.2-189.5z"/>
			</g>
		</g>
		<g>
			<g>
				<path class="st1" d="M1744.6,29.8c1.5,0,1.5-2.4,0-2.4C1743.1,27.4,1743.1,29.8,1744.6,29.8L1744.6,29.8z"/>
			</g>
		</g>
		<g>
			<g>
				<path class="st1" d="M1867.5,263.7c1.5,0,1.5-2.4,0-2.4C1866,261.2,1866,263.7,1867.5,263.7L1867.5,263.7z"/>
			</g>
		</g>
		<g>
			<g>
				<path class="st1" d="M2024.3,263.7c1.5,0,1.5-2.4,0-2.4C2022.6,261.2,2022.6,263.7,2024.3,263.7L2024.3,263.7z"/>
			</g>
		</g>
		<g>
			<g>
				<path class="st1" d="M1855.5,92.5c1.5,0,1.5-2.4,0-2.4C1854,90.1,1854,92.5,1855.5,92.5L1855.5,92.5z"/>
			</g>
		</g>
		<g>
			<g>
				<path class="st1" d="M1891.6,610.7c1.5,0,1.5-2.4,0-2.4C1890.1,608.3,1890.1,610.7,1891.6,610.7L1891.6,610.7z"/>
			</g>
		</g>
		<g>
			<g>
				<path class="st1" d="M1886.8,427.5c1.5,0,1.5-2.4,0-2.4C1885.3,425.1,1885.3,427.5,1886.8,427.5L1886.8,427.5z"/>
			</g>
		</g>
		<g>
			<g>
				<path class="st1" d="M2002.6,444.4c1.5,0,1.5-2.4,0-2.4C2001,442,2001,444.4,2002.6,444.4L2002.6,444.4z"/>
			</g>
		</g>
		<g>
			<g>
				<path class="st1" d="M1961.5,757.7c1.5,0,1.5-2.4,0-2.4C1960,755.3,1960,757.7,1961.5,757.7L1961.5,757.7z"/>
			</g>
		</g>
		<g>
			<g>
				<path class="st1" d="M1824.2,846.8c1.5,0,1.5-2.4,0-2.4C1822.6,844.4,1822.6,846.8,1824.2,846.8L1824.2,846.8z"/>
			</g>
		</g>
		<g>
			<g>
				<path class="st1" d="M1802.5,639.6c1.5,0,1.5-2.4,0-2.4C1800.9,637.2,1800.9,639.6,1802.5,639.6L1802.5,639.6z"/>
			</g>
		</g>
		<g>
			<g>
				<path class="st1" d="M1643.4,972.2c1.5,0,1.5-2.4,0-2.4C1641.9,969.8,1641.9,972.2,1643.4,972.2L1643.4,972.2z"/>
			</g>
		</g>
		<g>
			<g>
				<path class="st1" d="M1785.6,1039.7c1.5,0,1.5-2.4,0-2.4S1784.1,1039.7,1785.6,1039.7L1785.6,1039.7z"/>
			</g>
		</g>
		<g>
			<g>
				<path class="st1" d="M1633.8,1131.3c1.5,0,1.5-2.4,0-2.4C1632.2,1128.9,1632.2,1131.3,1633.8,1131.3L1633.8,1131.3z"/>
			</g>
		</g>
		<g>
			<g>
				<path class="st1" d="M317.8,1044.2c1.1,0,1.2-1.8,0-1.8C316.7,1042.4,316.7,1044.2,317.8,1044.2L317.8,1044.2z"/>
			</g>
		</g>
		<g>
			<g>
				<path class="st1" d="M125,1037c1.1,0,1.2-1.8,0-1.8C123.9,1035.1,123.9,1037,125,1037L125,1037z"/>
			</g>
		</g>
		<g>
			<g>
				<path class="st1" d="M185.3,781.5c1.1,0,1.2-1.8,0-1.8C184.2,779.7,184.2,781.5,185.3,781.5L185.3,781.5z"/>
			</g>
		</g>
		<g>
			<g>
				<path class="st1" d="M38.3,697.1c1.1,0,1.2-1.8,0-1.8C37.2,695.3,37.2,697.1,38.3,697.1L38.3,697.1z"/>
			</g>
		</g>
		<g>
			<g>
				<path class="st1" d="M141.9,593.5c1.1,0,1.2-1.8,0-1.8C140.8,591.7,140.8,593.5,141.9,593.5L141.9,593.5z"/>
			</g>
		</g>
		<g>
			<g>
				<path class="st1" d="M43.1,485c1.1,0,1.2-1.8,0-1.8C42,483.3,42,485,43.1,485L43.1,485z"/>
			</g>
		</g>
		<g>
			<g>
				<path class="st1" d="M-87,405.5c1.1,0,1.2-1.8,0-1.8C-88.2,403.8-88.2,405.5-87,405.5L-87,405.5z"/>
			</g>
		</g>
		<g>
			<g>
				<path class="st1" d="M57.6,236.8c1.1,0,1.2-1.8,0-1.8C56.4,235,56.4,236.8,57.6,236.8L57.6,236.8z"/>
			</g>
		</g>
		<g>
			<g>
				<path class="st1" d="M-53.3,60.9c1.1,0,1.2-1.8,0-1.8S-54.5,60.9-53.3,60.9L-53.3,60.9z"/>
			</g>
		</g>
		<g>
			<g>
				<path class="st1" d="M132.3,24.8c1.1,0,1.2-1.8,0-1.8C131.1,22.9,131.1,24.8,132.3,24.8L132.3,24.8z"/>
			</g>
		</g>
		<g>
			<g>
				<path class="st1" d="M219-185c1.1,0,1.2-1.8,0-1.8C217.9-186.7,217.9-185,219-185L219-185z"/>
			</g>
		</g>
		<g>
			<g>
				<path class="st1" d="M247.9-1.8c1.1,0,1.2-1.8,0-1.8C246.8-3.6,246.8-1.8,247.9-1.8L247.9-1.8z"/>
			</g>
		</g>
		<g>
			<g>
				<path class="st1" d="M351.6-223.5c1.1,0,1.2-1.8,0-1.8C350.4-225.3,350.4-223.5,351.6-223.5L351.6-223.5z"/>
			</g>
		</g>
		<g>
			<g>
				<path class="st1" d="M269.6-363.3c1.1,0,1.2-1.8,0-1.8C268.5-365.1,268.5-363.3,269.6-363.3L269.6-363.3z"/>
			</g>
		</g>
		<g>
			<g>
				<path class="st1" d="M1621.7-235.6c1.1,0,1.2-1.8,0-1.8C1620.6-237.4,1620.6-235.6,1621.7-235.6L1621.7-235.6z"/>
			</g>
		</g>
		<g>
			<g>
				<path class="st1" d="M1578.3-344c1.1,0,1.2-1.8,0-1.8C1577.1-345.8,1577.1-344,1578.3-344L1578.3-344z"/>
			</g>
		</g>
		<g>
			<g>
				<path class="st1" d="M1421.7-327.2c1.1,0,1.2-1.8,0-1.8C1420.5-328.9,1420.5-327.2,1421.7-327.2L1421.7-327.2z"/>
			</g>
		</g>
		<g>
			<g>
				<path class="st1" d="M1978.4,65.7c1.1,0,1.2-1.8,0-1.8C1977.3,63.9,1977.3,65.7,1978.4,65.7L1978.4,65.7z"/>
			</g>
		</g>
		<g>
			<g>
				<path class="st1" d="M1944.6,220c1.1,0,1.2-1.8,0-1.8C1943.5,218.1,1943.5,220,1944.6,220L1944.6,220z"/>
			</g>
		</g>
		<g>
			<g>
				<path class="st1" d="M1913.3,451.3c1.1,0,1.2-1.8,0-1.8C1912.2,449.5,1912.2,451.3,1913.3,451.3L1913.3,451.3z"/>
			</g>
		</g>
		<g>
			<g>
				<path class="st1" d="M1788,342.9c1.1,0,1.2-1.8,0-1.8C1786.9,341,1786.9,342.9,1788,342.9L1788,342.9z"/>
			</g>
		</g>
		<g>
			<g>
				<path class="st1" d="M1879.6,745.3c1.1,0,1.1-1.8,0-1.8C1878.5,743.5,1878.5,745.3,1879.6,745.3L1879.6,745.3z"/>
			</g>
		</g>
		<g>
			<g>
				<path class="st1" d="M1761.5,805.6c1.1,0,1.2-1.8,0-1.8C1760.4,803.8,1760.4,805.6,1761.5,805.6L1761.5,805.6z"/>
			</g>
		</g>
		<g>
			<g>
				<path class="st1" d="M1472.3,1118.9c1.1,0,1.2-1.8,0-1.8C1471.1,1117.1,1471.1,1118.9,1472.3,1118.9L1472.3,1118.9z"/>
			</g>
		</g>
		<g>
			<g>
				<path class="st1" d="M1361.5,1167.1c1.1,0,1.2-1.8,0-1.8C1360.3,1165.3,1360.3,1167.1,1361.5,1167.1L1361.5,1167.1z"/>
			</g>
		</g>
		<g>
			<g>
				<path class="st1" d="M1691.6,1162.3c1.1,0,1.2-1.8,0-1.8C1690.5,1160.5,1690.5,1162.3,1691.6,1162.3L1691.6,1162.3z"/>
			</g>
		</g>
		<g>
			<g>
				<path class="st1" d="M1966.3,858.7c1.1,0,1.2-1.8,0-1.8C1965.2,856.8,1965.2,858.7,1966.3,858.7L1966.3,858.7z"/>
			</g>
		</g>
		<g>
			<g>
				<path class="st1" d="M158.9,922.7c0.8,0,0.8-1.2,0-1.2C158.1,921.5,158.1,922.7,158.9,922.7L158.9,922.7z"/>
			</g>
		</g>
		<g>
			<g>
				<path class="st1" d="M102.7,771.7c0.8,0,0.8-1.2,0-1.2S101.9,771.7,102.7,771.7L102.7,771.7z"/>
			</g>
		</g>
		<g>
			<g>
				<path class="st1" d="M-8.2,628.7c0.8,0,0.8-1.2,0-1.2C-9,627.5-9,628.7-8.2,628.7L-8.2,628.7z"/>
			</g>
		</g>
		<g>
			<g>
				<path class="st1" d="M134.8,535.5c0.8,0,0.8-1.2,0-1.2C134,534.3,134,535.5,134.8,535.5L134.8,535.5z"/>
			</g>
		</g>
		<g>
			<g>
				<path class="st1" d="M6.3,439.1c0.8,0,0.8-1.2,0-1.2S5.5,439.1,6.3,439.1L6.3,439.1z"/>
			</g>
		</g>
		<g>
			<g>
				<path class="st1" d="M118.8,345.9c0.8,0,0.8-1.2,0-1.2S118,345.9,118.8,345.9L118.8,345.9z"/>
			</g>
		</g>
		<g>
			<g>
				<path class="st1" d="M-56.4,162.8c0.8,0,0.8-1.2,0-1.2C-57.2,161.6-57.2,162.8-56.4,162.8L-56.4,162.8z"/>
			</g>
		</g>
		<g>
			<g>
				<path class="st1" d="M102.7,113c0.8,0,0.8-1.2,0-1.2S101.9,113,102.7,113L102.7,113z"/>
			</g>
		</g>
		<g>
			<g>
				<path class="st1" d="M99.5-153.7c0.8,0,0.8-1.2,0-1.2S98.7-153.7,99.5-153.7L99.5-153.7z"/>
			</g>
		</g>
		<g>
			<g>
				<path class="st1" d="M276.2-110.4c0.8,0,0.8-1.2,0-1.2C275.4-111.6,275.4-110.4,276.2-110.4L276.2-110.4z"/>
			</g>
		</g>
		<g>
			<g>
				<path class="st1" d="M303.5-283.9c0.8,0,0.8-1.2,0-1.2C302.7-285.1,302.7-283.9,303.5-283.9L303.5-283.9z"/>
			</g>
		</g>
		<g>
			<g>
				<path class="st1" d="M456.1-267.8c0.8,0,0.8-1.2,0-1.2C455.3-269,455.3-267.8,456.1-267.8L456.1-267.8z"/>
			</g>
		</g>
		<g>
			<g>
				<path class="st1" d="M459.4-364.2c0.8,0,0.8-1.2,0-1.2C458.6-365.4,458.6-364.2,459.4-364.2L459.4-364.2z"/>
			</g>
		</g>
		<g>
			<g>
				<path class="st1" d="M1767.1-275.8c0.8,0,0.8-1.2,0-1.2S1766.3-275.8,1767.1-275.8L1767.1-275.8z"/>
			</g>
		</g>
		<g>
			<g>
				<path class="st1" d="M1698-103.9c0.8,0,0.8-1.2,0-1.2C1697.2-105.1,1697.2-103.9,1698-103.9L1698-103.9z"/>
			</g>
		</g>
		<g>
			<g>
				<path class="st1" d="M1942.2-62.2c0.8,0,0.8-1.2,0-1.2C1941.4-63.4,1941.4-62.2,1942.2-62.2L1942.2-62.2z"/>
			</g>
		</g>
		<g>
			<g>
				<path class="st1" d="M1808.9-50.9c0.8,0,0.8-1.2,0-1.2C1808.1-52.1,1808.1-50.9,1808.9-50.9L1808.9-50.9z"/>
			</g>
		</g>
		<g>
			<g>
				<path class="st1" d="M1821.7,204.5c0.8,0,0.8-1.2,0-1.2C1820.9,203.3,1820.9,204.5,1821.7,204.5L1821.7,204.5z"/>
			</g>
		</g>
		<g>
			<g>
				<path class="st1" d="M2062.7,133.8c0.8,0,0.8-1.2,0-1.2C2061.9,132.6,2061.9,133.8,2062.7,133.8L2062.7,133.8z"/>
			</g>
		</g>
		<g>
			<g>
				<path class="st1" d="M2011.3,174c0.8,0,0.8-1.2,0-1.2C2010.5,172.8,2010.5,174,2011.3,174L2011.3,174z"/>
			</g>
		</g>
		<g>
			<g>
				<path class="st1" d="M1940.6,362c0.8,0,0.8-1.2,0-1.2C1939.8,360.8,1939.8,362,1940.6,362L1940.6,362z"/>
			</g>
		</g>
		<g>
			<g>
				<path class="st1" d="M1850.7,392.5c0.8,0,0.8-1.2,0-1.2C1849.9,391.3,1849.9,392.5,1850.7,392.5L1850.7,392.5z"/>
			</g>
		</g>
		<g>
			<g>
				<path class="st1" d="M1829.8,514.6c0.8,0,0.8-1.2,0-1.2C1829,513.4,1829,514.6,1829.8,514.6L1829.8,514.6z"/>
			</g>
		</g>
		<g>
			<g>
				<path class="st1" d="M2030.6,614.2c0.8,0,0.8-1.2,0-1.2C2029.8,613,2029.8,614.2,2030.6,614.2L2030.6,614.2z"/>
			</g>
		</g>
		<g>
			<g>
				<path class="st1" d="M2016.1,713.8c0.8,0,0.8-1.2,0-1.2C2015.3,712.6,2015.3,713.8,2016.1,713.8L2016.1,713.8z"/>
			</g>
		</g>
		<g>
			<g>
				<path class="st1" d="M1802.5,746c0.8,0,0.8-1.2,0-1.2C1801.7,744.7,1801.7,746,1802.5,746L1802.5,746z"/>
			</g>
		</g>
		<g>
			<g>
				<path class="st1" d="M1723.7,880.9c0.8,0,0.8-1.2,0-1.2C1722.9,879.7,1722.9,880.9,1723.7,880.9L1723.7,880.9z"/>
			</g>
		</g>
		<g>
			<g>
				<path class="st1" d="M1868.3,956.4c0.8,0,0.8-1.2,0-1.2C1867.5,955.2,1867.5,956.4,1868.3,956.4L1868.3,956.4z"/>
			</g>
		</g>
		<g>
			<g>
				<path class="st1" d="M1715.7,1015.9c0.8,0,0.8-1.2,0-1.2C1714.9,1014.7,1714.9,1015.9,1715.7,1015.9L1715.7,1015.9z"/>
			</g>
		</g>
		<g>
			<g>
				<path class="st1" d="M1537.4,1094.6c0.8,0,0.8-1.2,0-1.2C1536.6,1093.4,1536.6,1094.6,1537.4,1094.6L1537.4,1094.6z"/>
			</g>
		</g>
		<g>
			<g>
				<path class="st1" d="M1529.3,1165.3c0.8,0,0.8-1.2,0-1.2C1528.5,1164.1,1528.5,1165.3,1529.3,1165.3L1529.3,1165.3z"/>
			</g>
		</g>
		<g>
			<g>
				<path class="st1" d="M208.4,947.6c0.8,0,0.8-1.2,0-1.2C207.6,946.4,207.6,947.6,208.4,947.6L208.4,947.6z"/>
			</g>
		</g>
		<g>
			<g>
				<path class="st1" d="M56.6,903c0.8,0,0.8-1.2,0-1.2C55.8,901.8,55.8,903,56.6,903L56.6,903z"/>
			</g>
		</g>
		<g>
			<g>
				<path class="st1" d="M528.9,1111.5c0.8,0,0.8-1.2,0-1.2C528.1,1110.2,528.1,1111.5,528.9,1111.5L528.9,1111.5z"/>
			</g>
		</g>
		<g>
			<g>
				<path class="st1" d="M392.8,1163.3c0.8,0,0.8-1.2,0-1.2S392,1163.3,392.8,1163.3L392.8,1163.3z"/>
			</g>
		</g>
		<g>
			<g>
				<path class="st1" d="M580.6,1365.1c1.5,0,1.5-2.4,0-2.4C579,1362.6,579,1365.1,580.6,1365.1L580.6,1365.1z"/>
			</g>
		</g>
		<g>
			<g>
				<path class="st1" d="M655.3,1259c1.5,0,1.5-2.4,0-2.4C653.8,1256.6,653.7,1259,655.3,1259L655.3,1259z"/>
			</g>
		</g>
		<g>
			<g>
				<path class="st1" d="M792.6,1408.4c1.5,0,1.5-2.4,0-2.4C791.1,1406,791.1,1408.4,792.6,1408.4L792.6,1408.4z"/>
			</g>
		</g>
		<g>
			<g>
				<path class="st1" d="M1132.4,1415.7c1.5,0,1.5-2.4,0-2.4C1130.9,1413.2,1130.9,1415.7,1132.4,1415.7L1132.4,1415.7z"/>
			</g>
		</g>
		<g>
			<g>
				<path class="st1" d="M845.7,1287.9c1.5,0,1.5-2.4,0-2.4C844.1,1285.5,844.1,1287.9,845.7,1287.9L845.7,1287.9z"/>
			</g>
		</g>
		<g>
			<g>
				<path class="st1" d="M1036,1471.1c1.5,0,1.5-2.4,0-2.4C1034.5,1468.7,1034.5,1471.1,1036,1471.1L1036,1471.1z"/>
			</g>
		</g>
		<g>
			<g>
				<path class="st1" d="M1354.2,1379.5c1.5,0,1.5-2.4,0-2.4C1352.6,1377.1,1352.6,1379.5,1354.2,1379.5L1354.2,1379.5z"/>
			</g>
		</g>
		<g>
			<g>
				<path class="st1" d="M1122.8,1256.6c1.5,0,1.5-2.4,0-2.4C1121.3,1254.2,1121.3,1256.6,1122.8,1256.6L1122.8,1256.6z"/>
			</g>
		</g>
		<g>
			<g>
				<path class="st1" d="M1028.8,1331.3c1.5,0,1.5-2.4,0-2.4S1027.3,1331.3,1028.8,1331.3L1028.8,1331.3z"/>
			</g>
		</g>
		<g>
			<g>
				<path class="st1" d="M1366.3,1244.6c1.5,0,1.5-2.4,0-2.4C1364.7,1242.1,1364.7,1244.6,1366.3,1244.6L1366.3,1244.6z"/>
			</g>
		</g>
		<g>
			<g>
				<path class="st1" d="M1498.8,1357.8c1.5,0,1.5-2.4,0-2.4C1497.3,1355.4,1497.3,1357.8,1498.8,1357.8L1498.8,1357.8z"/>
			</g>
		</g>
		<g>
			<g>
				<path class="st1" d="M1935,116.6c1.5,0,1.5-2.4,0-2.4C1933.5,114.2,1933.5,116.6,1935,116.6L1935,116.6z"/>
			</g>
		</g>
		<g>
			<g>
				<path class="st1" d="M1412.1-363c1.5,0,1.5-2.4,0-2.4C1410.5-365.4,1410.5-363,1412.1-363L1412.1-363z"/>
			</g>
		</g>
		<g>
			<g>
				<path class="st1" d="M1318.1-563c1.5,0,1.5-2.4,0-2.4C1316.5-565.4,1316.5-563,1318.1-563L1318.1-563z"/>
			</g>
		</g>
		<g>
			<g>
				<path class="st1" d="M1115.6-435.3c1.5,0,1.5-2.4,0-2.4C1114-437.7,1114-435.3,1115.6-435.3L1115.6-435.3z"/>
			</g>
		</g>
		<g>
			<g>
				<path class="st1" d="M1011.9-577.5c1.5,0,1.5-2.4,0-2.4C1010.4-579.9,1010.4-577.5,1011.9-577.5L1011.9-577.5z"/>
			</g>
		</g>
		<g>
			<g>
				<path class="st1" d="M768.5-555.8c1.5,0,1.5-2.4,0-2.4C767-558.2,767-555.8,768.5-555.8L768.5-555.8z"/>
			</g>
		</g>
		<g>
			<g>
				<path class="st1" d="M703.5-469c1.5,0,1.5-2.4,0-2.4C702-471.4,702-469,703.5-469L703.5-469z"/>
			</g>
		</g>
		<g>
			<g>
				<path class="st1" d="M440.8-485.9c1.5,0,1.5-2.4,0-2.4C439.2-488.3,439.2-485.9,440.8-485.9L440.8-485.9z"/>
			</g>
		</g>
		<g>
			<g>
				<path class="st1" d="M286.5-437.7c1.5,0,1.5-2.4,0-2.4S285-437.7,286.5-437.7L286.5-437.7z"/>
			</g>
		</g>
		<g>
			<g>
				<path class="st1" d="M884.2-466.6c1.5,0,1.5-2.4,0-2.4C882.7-469,882.7-466.6,884.2-466.6L884.2-466.6z"/>
			</g>
		</g>
		<g>
			<g>
				<path class="st1" d="M884.2-630.6c1.5,0,1.5-2.4,0-2.4C882.7-633,882.7-630.6,884.2-630.6L884.2-630.6z"/>
			</g>
		</g>
		<g>
			<g>
				<path class="st1" d="M1231.3-454.6c1.5,0,1.5-2.4,0-2.4C1229.7-457,1229.7-454.6,1231.3-454.6L1231.3-454.6z"/>
			</g>
		</g>
		<g>
			<g>
				<path class="st1" d="M1590.4-447.3c1.5,0,1.5-2.4,0-2.4C1588.9-449.7,1588.9-447.3,1590.4-447.3L1590.4-447.3z"/>
			</g>
		</g>
		<g>
			<g>
				<path class="st1" d="M1436.2-512.4c1.5,0,1.5-2.4,0-2.4C1434.6-514.8,1434.6-512.4,1436.2-512.4L1436.2-512.4z"/>
			</g>
		</g>
		<g>
			<g>
				<path class="st1" d="M1478.3-369c0-0.8,0-1.6,0-2.4c0-1.5-2.4-1.5-2.4,0c0,0.8,0,1.6,0,2.4
					C1475.9-367.5,1478.3-367.5,1478.3-369L1478.3-369z"/>
			</g>
		</g>
		<g>
			<g>
				<path class="st1" d="M761.3,1345.8c1.5,0,1.5-2.4,0-2.4C759.8,1343.4,759.8,1345.8,761.3,1345.8L761.3,1345.8z"/>
			</g>
		</g>
		<g>
			<g>
				<path class="st1" d="M443.2,1314.4c1.5,0,1.5-2.4,0-2.4C441.6,1312,441.6,1314.4,443.2,1314.4L443.2,1314.4z"/>
			</g>
		</g>
		<g>
			<g>
				<path class="st1" d="M1522.9,1263.8c1.5,0,1.5-2.4,0-2.4C1521.4,1261.4,1521.4,1263.8,1522.9,1263.8L1522.9,1263.8z"/>
			</g>
		</g>
		<g>
			<g>
				<path class="st1" d="M1339.8,1165c1.5,0,1.5-2.4,0-2.4C1338.2,1162.6,1338.2,1165,1339.8,1165L1339.8,1165z"/>
			</g>
		</g>
		<g>
			<g>
				<path class="st1" d="M1231.3,1389.1c1.5,0,1.5-2.4,0-2.4C1229.7,1386.7,1229.7,1389.1,1231.3,1389.1L1231.3,1389.1z"/>
			</g>
		</g>
		<g>
			<g>
				<path class="st1" d="M1703.7,1193.9c1.5,0,1.5-2.4,0-2.4C1702.1,1191.5,1702.1,1193.9,1703.7,1193.9L1703.7,1193.9z"/>
			</g>
		</g>
		<g>
			<g>
				<path class="st1" d="M231.1-148.8c1.1,0,1.2-1.8,0-1.8C229.9-150.6,229.9-148.8,231.1-148.8L231.1-148.8z"/>
			</g>
		</g>
		<g>
			<g>
				<path class="st1" d="M182.9,750.1c1.1,0,1.2-1.8,0-1.8C181.7,748.4,181.7,750.1,182.9,750.1L182.9,750.1z"/>
			</g>
		</g>
		<g>
			<g>
				<path class="st1" d="M1751.9-74.1c1.1,0,1.2-1.8,0-1.8C1750.7-75.9,1750.7-74.1,1751.9-74.1L1751.9-74.1z"/>
			</g>
		</g>
		<g>
			<g>
				<path class="st1" d="M1698.8-201.9c1.1,0,1.2-1.8,0-1.8C1697.7-203.6,1697.7-201.9,1698.8-201.9L1698.8-201.9z"/>
			</g>
		</g>
		<g>
			<g>
				<path class="st1" d="M1313.3-435.6c1.1,0,1.2-1.8,0-1.8S1312.1-435.6,1313.3-435.6L1313.3-435.6z"/>
			</g>
		</g>
		<g>
			<g>
				<path class="st1" d="M1200-589.8c1.1,0,1.2-1.8,0-1.8C1198.8-591.7,1198.8-589.8,1200-589.8L1200-589.8z"/>
			</g>
		</g>
		<g>
			<g>
				<path class="st1" d="M1108.3-505.5c1.1,0,1.2-1.8,0-1.8C1107.2-507.3,1107.2-505.5,1108.3-505.5L1108.3-505.5z"/>
			</g>
		</g>
		<g>
			<g>
				<path class="st1" d="M951.7-426c1.1,0,1.2-1.8,0-1.8C950.6-427.8,950.6-426,951.7-426L951.7-426z"/>
			</g>
		</g>
		<g>
			<g>
				<path class="st1" d="M828.8-553.7c1.1,0,1.2-1.8,0-1.8C827.7-555.5,827.7-553.7,828.8-553.7L828.8-553.7z"/>
			</g>
		</g>
		<g>
			<g>
				<path class="st1" d="M783-481.4c1.1,0,1.2-1.8,0-1.8C781.9-483.2,781.8-481.4,783-481.4L783-481.4z"/>
			</g>
		</g>
		<g>
			<g>
				<path class="st1" d="M737.2-389.8c1.1,0,1.2-1.8,0-1.8S736-389.8,737.2-389.8L737.2-389.8z"/>
			</g>
		</g>
		<g>
			<g>
				<path class="st1" d="M602.3-466.9c1.1,0,1.2-1.8,0-1.8C601.1-468.8,601.1-466.9,602.3-466.9L602.3-466.9z"/>
			</g>
		</g>
		<g>
			<g>
				<path class="st1" d="M597.4-592.3c1.1,0,1.2-1.8,0-1.8S596.2-592.3,597.4-592.3L597.4-592.3z"/>
			</g>
		</g>
		<g>
			<g>
				<path class="st1" d="M1091.5-650.1c1.1,0,1.2-1.8,0-1.8C1090.3-651.9,1090.3-650.1,1091.5-650.1L1091.5-650.1z"/>
			</g>
		</g>
		<g>
			<g>
				<path class="st1" d="M1742.2-52.4c1.1,0,1.1-1.8,0-1.8C1741.1-54.2,1741.1-52.4,1742.2-52.4L1742.2-52.4z"/>
			</g>
		</g>
		<g>
			<g>
				<path class="st1" d="M1820.1,187.1c1.1,0,1.2-1.8,0-1.8C1819,185.3,1818.9,187.1,1820.1,187.1L1820.1,187.1z"/>
			</g>
		</g>
		<g>
			<g>
				<path class="st1" d="M1980.8,318.8c1.1,0,1.2-1.8,0-1.8C1979.7,317.1,1979.6,318.8,1980.8,318.8L1980.8,318.8z"/>
			</g>
		</g>
		<g>
			<g>
				<path class="st1" d="M1984,593.6c1.1,0,1.2-1.8,0-1.8C1982.9,591.8,1982.8,593.6,1984,593.6L1984,593.6z"/>
			</g>
		</g>
		<g>
			<g>
				<path class="st1" d="M1712.5,993.6c1.1,0,1.2-1.8,0-1.8C1711.4,991.8,1711.3,993.6,1712.5,993.6L1712.5,993.6z"/>
			</g>
		</g>
		<g>
			<g>
				<path class="st1" d="M1691.6,889.2c1.1,0,1.2-1.8,0-1.8C1690.5,887.4,1690.4,889.2,1691.6,889.2L1691.6,889.2z"/>
			</g>
		</g>
		<g>
			<g>
				<path class="st1" d="M1889.2,972.7c1.1,0,1.2-1.8,0-1.8C1888.1,971,1888,972.7,1889.2,972.7L1889.2,972.7z"/>
			</g>
		</g>
		<g>
			<g>
				<path class="st1" d="M1264.3,1295.6c1.1,0,1.2-1.8,0-1.8C1263.1,1293.9,1263.1,1295.6,1264.3,1295.6L1264.3,1295.6z"/>
			</g>
		</g>
		<g>
			<g>
				<path class="st1" d="M944.6,1263.5c1.1,0,1.2-1.8,0-1.8C943.4,1261.7,943.3,1263.5,944.6,1263.5L944.6,1263.5z"/>
			</g>
		</g>
		<g>
			<g>
				<path class="st1" d="M901.2,1358.3c1.1,0,1.2-1.8,0-1.8C900,1356.5,900,1358.3,901.2,1358.3L901.2,1358.3z"/>
			</g>
		</g>
		<g>
			<g>
				<path class="st1" d="M901.2,1483.6c1.1,0,1.2-1.8,0-1.8C900,1481.8,900,1483.6,901.2,1483.6L901.2,1483.6z"/>
			</g>
		</g>
		<g>
			<g>
				<path class="st1" d="M679.5,1348.7c1.1,0,1.2-1.8,0-1.8C678.3,1346.9,678.3,1348.7,679.5,1348.7L679.5,1348.7z"/>
			</g>
		</g>
		<g>
			<g>
				<path class="st1" d="M517.2,1231.4c1.1,0,1.2-1.8,0-1.8C516.1,1229.6,516,1231.4,517.2,1231.4L517.2,1231.4z"/>
			</g>
		</g>
		<g>
			<g>
				<path class="st1" d="M374.2,1215.3c1.1,0,1.2-1.8,0-1.8C373.1,1213.5,373,1215.3,374.2,1215.3L374.2,1215.3z"/>
			</g>
		</g>
		<g>
			<g>
				<path class="st1" d="M706.8,1223.1c0.8,0,0.8-1.2,0-1.2S706,1223.1,706.8,1223.1L706.8,1223.1z"/>
			</g>
		</g>
		<g>
			<g>
				<path class="st1" d="M1203.2,1338.8c0.6,0,1,0,1.6,0c0.8,0,0.8-1.2,0-1.2c-0.6,0-1,0-1.6,0
					C1202.4,1337.6,1202.4,1338.8,1203.2,1338.8L1203.2,1338.8z"/>
			</g>
		</g>
		<g>
			<g>
				<path class="st1" d="M1269.1,1203.8c0.8,0,0.8-1.2,0-1.2C1268.3,1202.6,1268.3,1203.8,1269.1,1203.8L1269.1,1203.8z"/>
			</g>
		</g>
		<g>
			<g>
				<path class="st1" d="M1547,1213.5c0.8,0,0.8-1.2,0-1.2C1546.2,1212.3,1546.2,1213.5,1547,1213.5L1547,1213.5z"/>
			</g>
		</g>
		<g>
			<g>
				<path class="st1" d="M1829.8,913c0.8,0,0.8-1.2,0-1.2C1829,911.8,1829,913,1829.8,913L1829.8,913z"/>
			</g>
		</g>
		<g>
			<g>
				<path class="st1" d="M1987.2,726.7c0.8,0,0.8-1.2,0-1.2C1986.4,725.5,1986.4,726.7,1987.2,726.7L1987.2,726.7z"/>
			</g>
		</g>
		<g>
			<g>
				<path class="st1" d="M1825,540.3c0.8,0,0.8-1.2,0-1.2C1824.2,539.1,1824.2,540.3,1825,540.3L1825,540.3z"/>
			</g>
		</g>
		<g>
			<g>
				<path class="st1" d="M2009.7,516.2c0.8,0,0.8-1.2,0-1.2C2008.9,515,2008.9,516.2,2009.7,516.2L2009.7,516.2z"/>
			</g>
		</g>
		<g>
			<g>
				<path class="st1" d="M2033.8,379.7c0.8,0,0.8-1.2,0-1.2C2033,378.4,2033,379.7,2033.8,379.7L2033.8,379.7z"/>
			</g>
		</g>
		<g>
			<g>
				<path class="st1" d="M1866.7,376.4c0.8,0,0.8-1.2,0-1.2C1865.9,375.2,1865.9,376.4,1866.7,376.4L1866.7,376.4z"/>
			</g>
		</g>
		<g>
			<g>
				<path class="st1" d="M1794.4,104.9c0.8,0,0.8-1.2,0-1.2C1793.6,103.7,1793.6,104.9,1794.4,104.9L1794.4,104.9z"/>
			</g>
		</g>
		<g>
			<g>
				<path class="st1" d="M2017.7,166c0.8,0,0.8-1.2,0-1.2C2016.9,164.8,2016.9,166,2017.7,166L2017.7,166z"/>
			</g>
		</g>
		<g>
			<g>
				<path class="st1" d="M1908.5-124.8c0.8,0,0.8-1.2,0-1.2C1907.7-126,1907.7-124.8,1908.5-124.8L1908.5-124.8z"/>
			</g>
		</g>
		<g>
			<g>
				<path class="st1" d="M1792.8-266.2c0.8,0,0.8-1.2,0-1.2C1792-267.4,1792-266.2,1792.8-266.2L1792.8-266.2z"/>
			</g>
		</g>
		<g>
			<g>
				<path class="st1" d="M1012-470.3c0.8,0,0.8-1.2,0-1.2C1011.2-471.5,1011.2-470.3,1012-470.3L1012-470.3z"/>
			</g>
		</g>
		<g>
			<g>
				<path class="st1" d="M589.5-529.8c0.8,0,0.8-1.2,0-1.2S588.7-529.8,589.5-529.8L589.5-529.8z"/>
			</g>
		</g>
		<g>
			<g>
				<path class="st1" d="M452.9-353c0.8,0,0.8-1.2,0-1.2C452.1-354.2,452.1-353,452.9-353L452.9-353z"/>
			</g>
		</g>
		<g>
			<g>
				<path class="st1" d="M359.8-377c0.8,0,0.8-1.2,0-1.2C359-378.3,359-377,359.8-377L359.8-377z"/>
			</g>
		</g>
		<g>
			<g>
				<path class="st1" d="M133.2,143.5c0.8,0,0.8-1.2,0-1.2C132.4,142.3,132.4,143.5,133.2,143.5L133.2,143.5z"/>
			</g>
		</g>
		<g>
			<g>
				<path class="st1" d="M380.6,1280.9c0.8,0,0.8-1.2,0-1.2C379.8,1279.7,379.8,1280.9,380.6,1280.9L380.6,1280.9z"/>
			</g>
		</g>
		<g>
			<g>
				<path class="st1" d="M782.3,1444.8c0.8,0,0.8-1.2,0-1.2S781.5,1444.8,782.3,1444.8L782.3,1444.8z"/>
			</g>
		</g>
		<g>
			<g>
				<path class="st1" d="M698.7,1205.4c0.8,0,0.8-1.2,0-1.2C697.9,1204.2,697.9,1205.4,698.7,1205.4L698.7,1205.4z"/>
			</g>
		</g>
		<g>
			<g>
				<path class="st1" d="M1187.1,1472.1c0.8,0,0.8-1.2,0-1.2C1186.3,1470.9,1186.3,1472.1,1187.1,1472.1L1187.1,1472.1z"/>
			</g>
		</g>
		<g>
			<g>
				<path class="st1" d="M1230.5,1210.3c0.8,0,0.8-1.2,0-1.2C1229.7,1209.1,1229.7,1210.3,1230.5,1210.3L1230.5,1210.3z"/>
			</g>
		</g>
		<g>
			<g>
				<path class="st1" d="M1434.6,1324.3c0.8,0,0.8-1.2,0-1.2C1433.8,1323.1,1433.8,1324.3,1434.6,1324.3L1434.6,1324.3z"/>
			</g>
		</g>
		<g>
			<g>
				<path class="st1" d="M1609.7,1269.7c0.8,0,0.8-1.2,0-1.2C1608.9,1268.5,1608.9,1269.7,1609.7,1269.7L1609.7,1269.7z"/>
			</g>
		</g>
		<g>
			<g>
				<path class="st1" d="M1699.6,1067.3c0.8,0,0.8-1.2,0-1.2C1698.8,1066.1,1698.8,1067.3,1699.6,1067.3L1699.6,1067.3z"/>
			</g>
		</g>
		<g>
			<g>
				<path class="st1" d="M1548.6,1043.2c0.8,0,0.8-1.2,0-1.2C1547.8,1042,1547.8,1043.2,1548.6,1043.2L1548.6,1043.2z"/>
			</g>
		</g>
		<g>
			<g>
				<path class="st1" d="M1808.9,946.8c0.8,0,0.8-1.2,0-1.2C1808.1,945.6,1808.1,946.8,1808.9,946.8L1808.9,946.8z"/>
			</g>
		</g>
		<g>
			<g>
				<path class="st1" d="M1998.5,678.5c0.8,0,0.8-1.2,0-1.2C1997.7,677.3,1997.7,678.5,1998.5,678.5L1998.5,678.5z"/>
			</g>
		</g>
		<g>
			<g>
				<path class="st1" d="M1836.2,496.9c0.8,0,0.8-1.2,0-1.2C1835.4,495.7,1835.4,496.9,1836.2,496.9L1836.2,496.9z"/>
			</g>
		</g>

			<animateTransform  accumulate="none" additive="replace" attributeName="transform" attributeType="XML" calcMode="linear" dur="400s" fill="remove" from="0 970 440" repeatCount="indefinite" restart="always" to="-360 970 440" type="rotate">
			</animateTransform>
	</g>
	<g id="Camada_6_1_">
		<g>
			<g>
				<path class="st1" d="M-80.4-119.4c1.5,0,1.5-2.4,0-2.4C-82-121.8-82-119.4-80.4-119.4L-80.4-119.4z"/>
			</g>
		</g>
		<g>
			<g>
				<path class="st1" d="M9.5-222.3c1.5,0,1.5-2.4,0-2.4S8-222.3,9.5-222.3L9.5-222.3z"/>
			</g>
		</g>
		<g>
			<g>
				<path class="st1" d="M-67.6-280.1c1.5,0,1.5-2.4,0-2.4C-69.1-282.5-69.1-280.1-67.6-280.1L-67.6-280.1z"/>
			</g>
		</g>
		<g>
			<g>
				<path class="st1" d="M-93.3-550c1.5,0,1.5-2.4,0-2.4S-94.8-550-93.3-550L-93.3-550z"/>
			</g>
		</g>
		<g>
			<g>
				<path class="st1" d="M-6.5-395.8c1.5,0,1.5-2.4,0-2.4S-8.1-395.8-6.5-395.8L-6.5-395.8z"/>
			</g>
		</g>
		<g>
			<g>
				<path class="st1" d="M186.2-447.2c1.5,0,1.5-2.4,0-2.4C184.7-449.6,184.7-447.2,186.2-447.2L186.2-447.2z"/>
			</g>
		</g>
		<g>
			<g>
				<path class="st1" d="M449.7-627.1c1.5,0,1.5-2.4,0-2.4S448.2-627.1,449.7-627.1L449.7-627.1z"/>
			</g>
		</g>
		<g>
			<g>
				<path class="st1" d="M636.1-694.6c1.5,0,1.5-2.4,0-2.4C634.6-697,634.6-694.6,636.1-694.6L636.1-694.6z"/>
			</g>
		</g>
		<g>
			<g>
				<path class="st1" d="M301.9-620.7c1.5,0,1.5-2.4,0-2.4S300.4-620.7,301.9-620.7L301.9-620.7z"/>
			</g>
		</g>
		<g>
			<g>
				<path class="st1" d="M221.6-511.4c1.5,0,1.5-2.4,0-2.4S220.1-511.4,221.6-511.4L221.6-511.4z"/>
			</g>
		</g>
		<g>
			<g>
				<path class="st1" d="M112.3-614.3c1.5,0,1.5-2.4,0-2.4C110.8-616.7,110.8-614.3,112.3-614.3L112.3-614.3z"/>
			</g>
		</g>
		<g>
			<g>
				<path class="st1" d="M-83.7-685c1.5,0,1.5-2.4,0-2.4S-85.2-685-83.7-685L-83.7-685z"/>
			</g>
		</g>
		<g>
			<g>
				<path class="st1" d="M1439.4-652.8c1.5,0,1.5-2.4,0-2.4S1437.9-652.8,1439.4-652.8L1439.4-652.8z"/>
			</g>
		</g>
		<g>
			<g>
				<path class="st1" d="M1754.3-620.7c1.5,0,1.5-2.4,0-2.4C1752.7-623.1,1752.7-620.7,1754.3-620.7L1754.3-620.7z"/>
			</g>
		</g>
		<g>
			<g>
				<path class="st1" d="M1783.2-472.9c1.5,0,1.5-2.4,0-2.4C1781.7-475.3,1781.7-472.9,1783.2-472.9L1783.2-472.9z"/>
			</g>
		</g>
		<g>
			<g>
				<path class="st1" d="M1966.3-289.7c1.5,0,1.5-2.4,0-2.4C1964.8-292.1,1964.8-289.7,1966.3-289.7L1966.3-289.7z"/>
			</g>
		</g>
		<g>
			<g>
				<path class="st1" d="M2056.3-125.9c1.5,0,1.5-2.4,0-2.4C2054.8-128.3,2054.8-125.9,2056.3-125.9L2056.3-125.9z"/>
			</g>
		</g>
		<g>
			<g>
				<path class="st1" d="M2027.4-424.7c1.5,0,1.5-2.4,0-2.4C2025.9-427.1,2025.9-424.7,2027.4-424.7L2027.4-424.7z"/>
			</g>
		</g>
		<g>
			<g>
				<path class="st1" d="M2014.5-591.8c1.5,0,1.5-2.4,0-2.4C2013-594.2,2013-591.8,2014.5-591.8L2014.5-591.8z"/>
			</g>
		</g>
		<g>
			<g>
				<path class="st1" d="M2046.7-672.1c1.5,0,1.5-2.4,0-2.4S2045.1-672.1,2046.7-672.1L2046.7-672.1z"/>
			</g>
		</g>
		<g>
			<g>
				<path class="st1" d="M1844.2-678.5c1.5,0,1.5-2.4,0-2.4C1842.7-680.9,1842.7-678.5,1844.2-678.5L1844.2-678.5z"/>
			</g>
		</g>
		<g>
			<g>
				<path class="st1" d="M2085.2,815.6c1.5,0,1.5-2.4,0-2.4C2083.7,813.2,2083.7,815.6,2085.2,815.6L2085.2,815.6z"/>
			</g>
		</g>
		<g>
			<g>
				<path class="st1" d="M1995.3,960.2c1.5,0,1.5-2.4,0-2.4C1993.7,957.8,1993.7,960.2,1995.3,960.2L1995.3,960.2z"/>
			</g>
		</g>
		<g>
			<g>
				<path class="st1" d="M2056.3,1124.1c1.5,0,1.5-2.4,0-2.4C2054.8,1121.7,2054.8,1124.1,2056.3,1124.1L2056.3,1124.1z"/>
			</g>
		</g>
		<g>
			<g>
				<path class="st1" d="M1956.7,1207.6c1.5,0,1.5-2.4,0-2.4C1955.2,1205.2,1955.2,1207.6,1956.7,1207.6L1956.7,1207.6z"/>
			</g>
		</g>
		<g>
			<g>
				<path class="st1" d="M1943.8,1066.2c1.5,0,1.5-2.4,0-2.4C1942.3,1063.8,1942.3,1066.2,1943.8,1066.2L1943.8,1066.2z"/>
			</g>
		</g>
		<g>
			<g>
				<path class="st1" d="M1773.5,1300.8c1.5,0,1.5-2.4,0-2.4C1772,1298.4,1772,1300.8,1773.5,1300.8L1773.5,1300.8z"/>
			</g>
		</g>
		<g>
			<g>
				<path class="st1" d="M1484.4,1426.1c1.5,0,1.5-2.4,0-2.4C1482.8,1423.7,1482.8,1426.1,1484.4,1426.1L1484.4,1426.1z"/>
			</g>
		</g>
		<g>
			<g>
				<path class="st1" d="M1503.6,1490.4c1.5,0,1.5-2.4,0-2.4S1502.1,1490.4,1503.6,1490.4L1503.6,1490.4z"/>
			</g>
		</g>
		<g>
			<g>
				<path class="st1" d="M1841,1490.4c1.5,0,1.5-2.4,0-2.4C1839.5,1488,1839.5,1490.4,1841,1490.4L1841,1490.4z"/>
			</g>
		</g>
		<g>
			<g>
				<path class="st1" d="M2062.7,1490.4c1.5,0,1.5-2.4,0-2.4S2061.2,1490.4,2062.7,1490.4L2062.7,1490.4z"/>
			</g>
		</g>
		<g>
			<g>
				<path class="st1" d="M1992,1304c1.5,0,1.5-2.4,0-2.4C1990.5,1301.6,1990.5,1304,1992,1304L1992,1304z"/>
			</g>
		</g>
		<g>
			<g>
				<path class="st1" d="M1934.2,1374.7c1.5,0,1.5-2.4,0-2.4C1932.7,1372.3,1932.7,1374.7,1934.2,1374.7L1934.2,1374.7z"/>
			</g>
		</g>
		<g>
			<g>
				<path class="st1" d="M504.3,1500c1.5,0,1.5-2.4,0-2.4S502.8,1500,504.3,1500L504.3,1500z"/>
			</g>
		</g>
		<g>
			<g>
				<path class="st1" d="M369.4,1387.5c1.5,0,1.5-2.4,0-2.4C367.9,1385.1,367.9,1387.5,369.4,1387.5L369.4,1387.5z"/>
			</g>
		</g>
		<g>
			<g>
				<path class="st1" d="M234.4,1239.7c1.5,0,1.5-2.4,0-2.4C232.9,1237.3,232.9,1239.7,234.4,1239.7L234.4,1239.7z"/>
			</g>
		</g>
		<g>
			<g>
				<path class="st1" d="M231.2,1464.7c1.5,0,1.5-2.4,0-2.4S229.7,1464.7,231.2,1464.7L231.2,1464.7z"/>
			</g>
		</g>
		<g>
			<g>
				<path class="st1" d="M32,1458.2c1.5,0,1.5-2.4,0-2.4C30.5,1455.8,30.5,1458.2,32,1458.2L32,1458.2z"/>
			</g>
		</g>
		<g>
			<g>
				<path class="st1" d="M86.6,1329.7c1.5,0,1.5-2.4,0-2.4C85.1,1327.3,85.1,1329.7,86.6,1329.7L86.6,1329.7z"/>
			</g>
		</g>
		<g>
			<g>
				<path class="st1" d="M141.3,1281.5c1.5,0,1.5-2.4,0-2.4C139.7,1279.1,139.7,1281.5,141.3,1281.5L141.3,1281.5z"/>
			</g>
		</g>
		<g>
			<g>
				<path class="st1" d="M-32.3,1059.8c1.5,0,1.5-2.4,0-2.4C-33.8,1057.4-33.8,1059.8-32.3,1059.8L-32.3,1059.8z"/>
			</g>
		</g>
		<g>
			<g>
				<path class="st1" d="M-86.9,767.4c1.5,0,1.5-2.4,0-2.4C-88.4,765-88.4,767.4-86.9,767.4L-86.9,767.4z"/>
			</g>
		</g>
		<g>
			<g>
				<path class="st1" d="M-54.7,1329.7c1.5,0,1.5-2.4,0-2.4S-56.3,1329.7-54.7,1329.7L-54.7,1329.7z"/>
			</g>
		</g>
		<g>
			<g>
				<path class="st1" d="M-86.9,1496.8c1.5,0,1.5-2.4,0-2.4C-88.4,1494.4-88.4,1496.8-86.9,1496.8L-86.9,1496.8z"/>
			</g>
		</g>
		<g>
			<g>
				<path class="st1" d="M243.1,1345.4c1.1,0,1.2-1.8,0-1.8C242,1343.7,242,1345.4,243.1,1345.4L243.1,1345.4z"/>
			</g>
		</g>
		<g>
			<g>
				<path class="st1" d="M86.5,1135.8c1.1,0,1.2-1.8,0-1.8C85.3,1133.9,85.3,1135.8,86.5,1135.8L86.5,1135.8z"/>
			</g>
		</g>
		<g>
			<g>
				<path class="st1" d="M-77.4,904.4c1.1,0,1.2-1.8,0-1.8C-78.6,902.6-78.6,904.4-77.4,904.4L-77.4,904.4z"/>
			</g>
		</g>
		<g>
			<g>
				<path class="st1" d="M62.4-317.5c1.1,0,1.2-1.8,0-1.8C61.3-319.3,61.3-317.5,62.4-317.5L62.4-317.5z"/>
			</g>
		</g>
		<g>
			<g>
				<path class="st1" d="M9.4-601.9c1.1,0,1.2-1.8,0-1.8C8.2-603.7,8.2-601.9,9.4-601.9L9.4-601.9z"/>
			</g>
		</g>
		<g>
			<g>
				<path class="st1" d="M235.9-577.8c1.1,0,1.2-1.8,0-1.8C234.8-579.6,234.8-577.8,235.9-577.8L235.9-577.8z"/>
			</g>
		</g>
		<g>
			<g>
				<path class="st1" d="M404.7-683.8c1.1,0,1.2-1.8,0-1.8C403.5-685.7,403.5-683.8,404.7-683.8L404.7-683.8z"/>
			</g>
		</g>
		<g>
			<g>
				<path class="st1" d="M1896.5-483.8c1.1,0,1.2-1.8,0-1.8C1895.3-485.7,1895.3-483.8,1896.5-483.8L1896.5-483.8z"/>
			</g>
		</g>
		<g>
			<g>
				<path class="st1" d="M1612.1-621.2c1.1,0,1.2-1.8,0-1.8C1611-623,1611-621.2,1612.1-621.2L1612.1-621.2z"/>
			</g>
		</g>
		<g>
			<g>
				<path class="st1" d="M2019.4,998.4c1.1,0,1.2-1.8,0-1.8C2018.2,996.6,2018.2,998.4,2019.4,998.4L2019.4,998.4z"/>
			</g>
		</g>
		<g>
			<g>
				<path class="st1" d="M2041.1,846.6c1.1,0,1.2-1.8,0-1.8C2039.9,844.8,2039.9,846.6,2041.1,846.6L2041.1,846.6z"/>
			</g>
		</g>
		<g>
			<g>
				<path class="st1" d="M1896.5,1331c1.1,0,1.2-1.8,0-1.8C1895.3,1329.2,1895.3,1331,1896.5,1331L1896.5,1331z"/>
			</g>
		</g>
		<g>
			<g>
				<path class="st1" d="M1800.1,1222.5c1.1,0,1.2-1.8,0-1.8C1798.9,1220.8,1798.9,1222.5,1800.1,1222.5L1800.1,1222.5z"/>
			</g>
		</g>
		<g>
			<g>
				<path class="st1" d="M1648.2,1441.8c1.1,0,1.1-1.8,0-1.8C1647.1,1440.1,1647.1,1441.8,1648.2,1441.8L1648.2,1441.8z"/>
			</g>
		</g>
		<g>
			<g>
				<path class="st1" d="M3.1,1224.7c0.8,0,0.8-1.2,0-1.2S2.3,1224.7,3.1,1224.7L3.1,1224.7z"/>
			</g>
		</g>
		<g>
			<g>
				<path class="st1" d="M32,1014.3c0.8,0,0.8-1.2,0-1.2S31.2,1014.3,32,1014.3L32,1014.3z"/>
			</g>
		</g>
		<g>
			<g>
				<path class="st1" d="M-85.3,1227.9c0.8,0,0.8-1.2,0-1.2S-86.1,1227.9-85.3,1227.9L-85.3,1227.9z"/>
			</g>
		</g>
		<g>
			<g>
				<path class="st1" d="M70.6-410.9c0.8,0,0.8-1.2,0-1.2S69.8-410.9,70.6-410.9L70.6-410.9z"/>
			</g>
		</g>
		<g>
			<g>
				<path class="st1" d="M33.6-520.1c0.8,0,0.8-1.2,0-1.2C32.8-521.3,32.8-520.1,33.6-520.1L33.6-520.1z"/>
			</g>
		</g>
		<g>
			<g>
				<path class="st1" d="M231.2-680.8c0.8,0,0.8-1.2,0-1.2C230.4-682,230.4-680.8,231.2-680.8L231.2-680.8z"/>
			</g>
		</g>
		<g>
			<g>
				<path class="st1" d="M1889.2-361c0.8,0,0.8-1.2,0-1.2C1888.4-362.2,1888.4-361,1889.2-361L1889.2-361z"/>
			</g>
		</g>
		<g>
			<g>
				<path class="st1" d="M1595.2-680.8c0.8,0,0.8-1.2,0-1.2C1594.4-682,1594.4-680.8,1595.2-680.8L1595.2-680.8z"/>
			</g>
		</g>
		<g>
			<g>
				<path class="st1" d="M1914.9-574.7c0.8,0,0.8-1.2,0-1.2C1914.1-575.9,1914.1-574.7,1914.9-574.7L1914.9-574.7z"/>
			</g>
		</g>
		<g>
			<g>
				<path class="st1" d="M2065.9-14c0.8,0,0.8-1.2,0-1.2S2065.1-14,2065.9-14L2065.9-14z"/>
			</g>
		</g>
		<g>
			<g>
				<path class="st1" d="M2080.4,148.3c0.8,0,0.8-1.2,0-1.2S2079.6,148.3,2080.4,148.3L2080.4,148.3z"/>
			</g>
		</g>
		<g>
			<g>
				<path class="st1" d="M2075.6,710.6c0.8,0,0.8-1.2,0-1.2C2074.8,709.4,2074.8,710.6,2075.6,710.6L2075.6,710.6z"/>
			</g>
		</g>
		<g>
			<g>
				<path class="st1" d="M2051.5,1409.5c0.8,0,0.8-1.2,0-1.2S2050.7,1409.5,2051.5,1409.5L2051.5,1409.5z"/>
			</g>
		</g>
		<g>
			<g>
				<path class="st1" d="M1800.9,1422.3c0.8,0,0.8-1.2,0-1.2C1800.1,1421.1,1800.1,1422.3,1800.9,1422.3L1800.9,1422.3z"/>
			</g>
		</g>
		<g>
			<g>
				<path class="st1" d="M1629,1403c0.8,0,0.8-1.2,0-1.2C1628.2,1401.8,1628.2,1403,1629,1403L1629,1403z"/>
			</g>
		</g>
		<g>
			<g>
				<path class="st1" d="M1312.5,1504.3c0.8,0,0.8-1.2,0-1.2C1311.7,1503.1,1311.7,1504.3,1312.5,1504.3L1312.5,1504.3z"/>
			</g>
		</g>
		<g>
			<g>
				<path class="st1" d="M556.6,1464.4c0.8,0,0.8-1.2,0-1.2S555.8,1464.4,556.6,1464.4L556.6,1464.4z"/>
			</g>
		</g>
		<g>
			<g>
				<path class="st1" d="M765.1,1509c0.8,0,0.8-1.2,0-1.2S764.3,1509,765.1,1509L765.1,1509z"/>
			</g>
		</g>
		<g>
			<g>
				<path class="st1" d="M1620.5,1339.2c0.8,0,0.8-1.2,0-1.2C1619.7,1338,1619.7,1339.2,1620.5,1339.2L1620.5,1339.2z"/>
			</g>
		</g>
	</g>
</g>

</svg>
