<?xml version="1.0" encoding="utf-8"?>
<!-- Generator: Adobe Illustrator 21.0.0, SVG Export Plug-In . SVG Version: 6.00 Build 0)  -->
<svg version="1.1" xmlns="http://www.w3.org/2000/svg" xmlns:xlink="http://www.w3.org/1999/xlink" x="0px" y="0px"
	 viewBox="0 0 1920 930" style="enable-background:new 0 0 1920 930;" xml:space="preserve">
<style type="text/css">
	.st0{opacity:0.5;}
	.st1{fill:#FFFFFF;}
	.st2{fill:#4569A8;}
	.st3{fill:#3C5B95;}
	.st4{fill:none;stroke:#3C5B95;stroke-width:0.5;stroke-miterlimit:10;}
	.st5{fill:#2D4581;}
	.st6{fill:#0E2359;}
	.st7{fill:#000130;}
	.st8{fill:none;stroke:#000130;stroke-width:0.1;stroke-miterlimit:10;}
	.st9{opacity:0.11;fill:#FFFFFF;}
	.st10{fill:#CEDEF8;}
	.st11{fill:none;stroke:#CEDEF8;stroke-miterlimit:10;}
</style>

<g id="Camada_3">
	<g id="XMLID_2_">
		<g>
			<path class="st6" d="M1315.5,609.9c-0.3,0.3-0.5,0.6-0.8,0.9c-0.3,0.3-0.6,0.5-0.9,0.8c-0.2,0.2-0.3,0.3-0.3,0.5
				c-0.1,0.2-0.2,0.5-0.2,0.6c0,0.4,0.3,0.7,0.6,1c0.3,0.4,0.7,0.8,1,1.3c0.6,0.6,1.2,0.9,1.9,1.4c0.9,0.7,1.9,1.4,2.8,2.1
				c0.7,0.5,1.1,1.1,1,2c-0.2,1.3-1.4,2.1-2.3,2.9c-0.6,0.4-1.2,1-1.7,1.5c-0.3,0.4-0.8,0.9-1,1.4c-0.1,0.2-0.2,0.6-0.1,0.7
				c0.1,0.1,0.5,0,0.5,0c0.5-0.1,1-0.3,1.5-0.4c1.7-0.4,3.8-0.5,5.2,0.7c0.5,0.4,0.6,0.7,0.5,1.3c-0.1,0.5-0.5,1.5,0.1,1.8
				c0.2,0,0.4,0,0.5,0.1c0.6,0,1.2,0.1,1.7,0.1c1.1,0,2.2,0.1,3.2,0.1c0.6,0,1.2,0,1.8,0c0.4,0,1,0.1,1.4,0c0.4-0.1,0.5-0.4,0.4-0.8
				c-0.1-0.3-0.3-0.7-0.4-1c-0.2-0.6-0.4-1.1-0.7-1.7c-0.4-0.7-0.8-1.5-0.9-2.4c-0.2-1,0.1-1.7,0.5-2.5c0.7-1.4,1.7-2.6,2.2-4.1
				c0.3-1,0.4-1.9,0.5-2.9c0.1-1.2,0.4-2.6,1.1-3.6c0.4-0.7,0.9-1.3,1.3-2c0.6-1,1.2-2.1,1.8-3.1c0.6-1.3,1.2-2.6,1.8-3.8
				c0.1-0.3,0.3-0.6,0.4-0.9c0.2-0.5,0.3-0.9,0.4-1.4c0-0.3,0.1-0.5,0.3-0.6c0.5,0.7,0.8,1.5,1.2,2.2c0.5,0.9,1.2,1.8,1.8,2.6
				c0.9,1.3,1.9,2.4,2.8,3.5c0.8,1,1.6,2.2,1.8,3.4c0.2,1-0.3,2.2,0.4,2.9c0.3,0.3,0.7,0.6,1.1,0.9c0.2,0.2,0.7,0.3,0.8,0.6
				c0.4,0.5-0.1,1.5-0.2,2.1c-0.3,1-0.6,2.1-0.2,3.2c0.1,0.3,0.3,0.7,0.6,0.9c0.1,0.1,0.3,0.2,0.4,0.2l0,0c0.4-0.1,0.5,0.3,0.8-0.1
				c0.2-0.2,0.4-0.5,0.5-0.8c0.4-0.6,0.5-1.3,0.8-2c0.2-0.5,0.3-1,0.3-1.5c0-0.3,0-0.6-0.1-0.9c-0.2-0.4-0.4-0.9-0.4-1.4
				c0-0.6,0.1-1.2,0.6-1.6c0.2-0.2,0.5-0.3,0.7-0.5c0.3-0.3,0.6-0.7,0.8-1.1c0.4-0.7,0.5-1.2,0.3-1.9c-0.1-0.5-0.3-1.1-0.4-1.6
				c0-0.1-0.1-0.3-0.1-0.4c0-0.3,0.5-0.7,0.7-0.8c1.5-0.9,4.1-1,4.6-3.1c0.2-0.8-0.4-1.3-0.8-1.9c-0.1-0.2-0.3-0.4-0.4-0.6
				c-0.2-0.6,0.4-1.2,0.7-1.6c1-1.5,2-3,2.9-4.5c0.5-0.9,0.9-2,1.4-2.9c0.6-1.3,1.3-2.5,1.7-3.9c0.1-0.1,0.1-0.4,0.3-0.5
				c0.4-0.2,1,0.1,1.3,0.2c0.8,0.3,1.5,0.7,2,1.4c1.3,1.6,2,3.6,2.9,5.5c0.4,0.8,0.7,1.5,1,2.3c0.3,0.7,0.8,1.4,1.1,2.1
				c0.4,0.9,1,1.7,1.7,2.4c0.7,0.7,1.6,1.2,2.3,1.8c0.6,0.5,1.2,1,1.1,1.8c-0.1,0.8-0.7,1.5-0.6,2.3c0.1,0.8,0.6,1.4,1,2
				c0.8,1.1,1.4,2.2,2,3.4l-0.1,0.1c0.1,0.1,0.1,0.1,0.2,0.2c0.3,0.3,0.5,0.5,0.8,0.8c0.3,0.3,0.7,0.8,1.1,1c0.6,0.5,1.1,1,1.7,1.5
				c0.2,0.2,0.5,0.6,0.6,0.8c0.2,0.3,0.4,0.7,0.4,1.1c0,0.4,0.1,1.2-0.1,1.5c-0.3,0.5-1.1,0.6-1.3,1.2c-0.2,0.6,0.4,0.7,0.8,0.9
				c0.7,0.3,2.3,1,1.8,2c-0.4,0.9-2.1,1.7-1.5,3c0.2,0.5,0.6,0.7,1.1,0.9c0.8,0.4,1.7,0.9,2.4,1.5c0.5,0.4,1.4,0.9,1.1,1.7
				c-0.2,0.5-0.8,0.9-1.3,1.2c-0.9,0.7,0.9,1.6,1.4,1.9c0.7,0.3,1.6,0.6,1.7,1.5c0.1,0.6-0.3,1.3-0.6,1.8c-0.1,0.3-0.3,0.6-0.4,0.9
				c-0.3,0.5-1,2.2,0,2.4c0.2,0,0.6-0.1,0.8-0.1c0.6-0.1,1.2-0.4,1.8-0.5c1.4-0.2,2.7-0.2,4.1-0.1c1.2,0.1,2.4,0.2,3.6,0
				c0.4-0.1,0.7-0.1,1-0.4c0.4-0.4,0.7-1,1.1-1.4c0.5-0.6,1-1.3,1.7-1.9c0.9-0.8,2-1.5,2.7-2.4c0.4-0.4,0.7-1,0.6-1.6
				c0-0.2-0.2-0.4-0.3-0.5c-0.3-0.5-0.5-0.9-0.6-1.4c-0.1-0.2-0.1-0.5-0.2-0.7c-0.1-0.6,0-0.8,0.3-1.3c0.7-1.3,1.4-2.6,1.8-4
				c0.2-1.1,0.3-2.2,0.1-3.3c-0.2-1.3-0.3-3.2,0.8-4.1c0.3-0.3,0.8-0.5,1.2-0.6c0.7-0.3,1.8-0.5,2.1-1.4c0.3-1-0.7-2-1.3-2.7
				c0.1-0.3,0.3-0.4,0.6-0.6c0.6-0.4,1.2-0.7,1.8-0.9c1.9-0.9,3.9-1.6,5.8-2.4c1-0.4,1.9-0.8,2.8-1.3c0.9-0.6,1.9-1.1,2.9-1.5
				l0.1,0.3c0,0.6-0.1,1.2,0.4,1.6c0.4,0.4,0.9,0.6,1.2,1c0.2,0.2,0.3,0.3,0.5,0.5c0.3,0.2,0.5,0.5,0.8,0.7c0.3,0.2,0.6,0.4,0.9,0.5
				c0.3,0.2,0.6,0.4,0.9,0.6c0.2,0.1,0.4,0.3,0.7,0.3c0.3,0,0.5-0.3,0.7-0.5c0.6-0.5,1.4-0.9,2.1-1.2c0.6-0.4,1.2-0.6,1.9-0.8
				c0.5-0.1,1-0.3,1.6-0.3c0.3,0,0.4,0,0.5,0.2c0.3,0.5,0.2,1.1,0.3,1.7c0.1,0.6,0.2,1.1,0.4,1.7c0.6,1.4,1.6,2.7,3,3.5
				c0.7,0.4,1.4,0.5,2,0.1c1.1-0.7,1.6-2,2.1-3c0.3-0.6,0.6-1.1,0.9-1.7c0.1-0.2,0.1-0.8,0.5-0.7c0.4,0.1,0.5,0.7,0.6,0.9
				c0.2,0.4,0.4,0.7,0.5,1.2c0.1,0.4,0.2,0.8,0.4,1.2c0.2,0.4,0.3,0.8,0.5,1.2c0.5,1.2,1,2.2,1.1,3.5c0.1,0.9-0.3,2-0.1,3
				c0.4,0.2,1.1-1.4,1.4-2l-0.2-0.1c0.3-0.5,0.4-1,0.5-1.5c0.2-0.5,0.3-0.9,0.4-1.4c0.2-0.9,0.7-1.8,1.3-2.4
				c0.6-0.6,1.4-1.1,2.2-1.3c0.6-0.2,1.4,0.3,1.4-0.7c0-0.4-0.4-0.8-0.7-1.1c-0.3-0.3-0.8-0.6-0.7-1c0.3-1,1.2-1.7,1.8-2.5
				c0.4-0.6,0.7-1.2,1-1.8c0.4-0.9,0.8-1.7,1.2-2.6c0.2-0.5,0.3-1,0.6-1.5c0.2-0.4,0.3-0.7,0.5-1.1c0.3-0.7,0.5-1.4,0.7-2.1
				c0.1-0.4,0.2-0.9,0.4-1.3c0.2-0.4,0.4-0.7,0.5-1.1c0.1-0.3,0.1-1,0.4-1c0.7,0.6,1.3,1.3,1.9,2c0.7,0.6,1.4,1.3,2,2
				c0.4,0.5,0.7,0.9,1.1,1.3c0.3,0.3,0.8,0.6,0.9,1c-0.1,0.3-0.5,0.2-0.8,0.3c-0.4,0.1-0.8,0.1-1.3,0.1c-0.3,0-1.8,0.2-1.8,0.8
				c0.3,0.3,0.8,0.5,1.1,0.7c0.6,0.4,1.2,0.8,1.7,1.3c0.4,0.4,0.8,0.8,1.2,1.2c0.6,0.7,0.7,1.5,1,2.3c0.3,0.7,0.6,1.7,1.3,2.1
				c0.4,0.2,0.9,0.3,1.3,0.3c0.8,0.1,1.5,0.1,2.3,0.2c0.5,0,1,0.1,1.4,0.2c0.6,0.2,0.1,1-0.1,1.4c-0.4,0.8-0.9,1.7-0.6,2.6
				c0.5,1.2,1.8,2,1.7,3.4c0,0.9-0.9,1.4-1.5,2c-0.3,0.3-1,0.9-1.1,1.4c0.2,0.2,0.5,0.2,0.7,0.3c0.3,0.1,0.7,0.1,1,0.3
				c0.6,0.2,1.3,0.7,1.9,1c0.3,0.2,1.1,0.8,1.1,1.2c0,0.2-0.2,0.5-0.3,0.7c-0.1,0.4-0.2,0.8-0.1,1.1c0,0.2,0,0.4,0.2,0.5
				c0.2,0.2,1.1,0.1,1.4,0.2c0.6,0,1.1,0.1,1.7,0c0.3,0,0.6-0.2,0.8,0c0.3,0.3,0.3,0.9,0.2,1.2c0,0.6-0.1,1.3-0.3,1.9
				c-0.2,0.8-0.7,1.5-1,2.2c-0.3,0.8-0.6,1.5-0.9,2.3h0c-0.1,0.5-0.4,0.9-0.5,1.4c-0.1,0.8,0.3,1,0.9,1.3c1.1,0.4,2.1,1.2,3.1,1.7
				c0.5,0.3,1.1,0.6,1.5,1c0.5,0.5,1.1,1.1,1.6,1.6c0.4,0.4,0.8,0.6,1.3,0.4c0.5-0.2,1.1-0.4,1.6-0.5c0.5,0,0.9,0,1.4,0
				c0.5,0,0.8,0.1,1.3,0.3c0.5,0.2,1.1,0.3,1.6,0.4c0.4,0.1,0.8,0.4,1.3,0.4c0.9,0.1,1.4-1.1,1.3-1.9c-0.1-0.5-0.4-0.9-0.4-1.4
				c0-0.5-0.1-1-0.1-1.6c0-1,0-2,0.2-2.9c0.1-0.7,0.5-1.4,0.6-2.1c0.2-0.7,0.6-1.1,1.3-1.2c0.4-0.1,0.9-0.1,1.4-0.2
				c0.4,0,0.8,0.1,1.2,0c0.6-0.2,1.2-0.8,1.5-1.4c0.1-0.2,0.3-0.4,0.1-0.6c-0.2-0.2-0.8-0.2-1.1-0.3c-0.3-0.1-0.5-0.2-0.7-0.3
				c-0.2-0.1-0.4-0.2-0.6-0.3c-0.4-0.4-0.6-0.9-0.7-1.4c-0.2-0.5-0.3-1-0.5-1.5c-0.1-0.5-0.4-1.1-0.4-1.6c0-0.9,1.6-0.9,2.3-1
				c0.7-0.1,1.5-0.6,1.9-1.1c0.2-0.2,0.7-0.7,0.6-0.9c0-0.4-0.7-0.3-1-0.3c-0.2,0-0.4,0-0.6,0c-0.2,0-0.4,0.2-0.6,0.1
				c0.3-0.9,0.9-1.7,1.4-2.5c0.6-0.9,1.2-1.8,1.8-2.7c0.8-1.1,1.6-2.2,2.3-3.4c0.9-1.7,1.6-3.5,2.4-5.3c0.2-0.5,0.4-1.1,0.6-1.6
				c0.1-0.3,0.2-0.6,0.3-0.9c0.4,1,0.7,1.9,1.2,2.8c1,1.8,2.3,3.4,3.6,5c0.7,0.9,1.3,2,2,2.9c0.6,0.8,1.3,1.6,1.7,2.5
				c0.1,0.1,0.2,0.1,0.3,0.2c0.2,0.2,0.4,0.4,0.6,0.5c0.5,0.3,1,0.5,1.5,0.9c0.2,0.2,0.4,0.3,0.6,0.5c0.3,0.1,0.6,0.2,0.9,0.3
				c0.3,0.1,0.6,0.1,0.8,0.3c0.4,0.2,0.2,0.5-0.1,0.8c-0.5,0.5-1.3,0.9-1.6,1.7c-0.1,0.4-0.5,0.9-0.4,1.4c0.1,0.7,0.8,1.1,1.2,1.5
				c0.3,0.2,0.4,0.5,0.7,0.8c0.2,0.2,0.4,0.4,0.6,0.6c0.5,0.6,0.8,1.3,1,1.9c0.1,0.2,0.2,0.3,0.1,0.5c-0.2,0.3-0.8,0.6-1.2,0.8
				c-0.2,0.2-0.8,0.5-0.8,0.9c-0.1,0.4,0.4,0.9,0.6,1.1c0.9,0.9,2.1,1.5,3.1,2.3c0.4,0.3,1.2,0.8,1.1,1.5c-0.1,0.9-0.7,1.7-0.7,2.5
				c0,0.4,0.1,0.8,0.3,1.1c0.3,0.3,0.7,0.3,1,0.4c0.5,0.1,0.8,0.1,1.3,0.1c0.3-0.1,0.6,0,0.9,0l0.4,0c0.4-0.3,0.6-1.2,0.6-1.5
				c0-0.3,0-0.7,0-1c0-0.5-0.1-0.9-0.1-1.3c-0.1-0.7,0-1.4,0-2c0-0.7-0.2-1.6,0.2-2.2c0.1-0.3,0.4-0.6,0.6-0.8
				c0.3-0.4,0.5-0.8,0.8-1.1c0.2-0.4,0.5-0.7,0.7-1.1c0.2-0.3,0.3-0.8,0.4-1.1c0.2-0.5,0.2-1.1,0.2-1.7c0-0.3,0-0.6,0.1-1
				c0.2-0.6,0.7-0.9,1.2-1.3c0.8-0.7,1.2-1.7,1.6-2.6c0.2-0.5,0.4-1.1,0.5-1.6c0.1-0.3,0.2-0.6,0.3-0.8c0.3-0.6,0.7-1.1,1-1.6
				c0.3-0.7,0.6-1.3,1.1-1.9c0.5-0.7,0.9-1.4,1.3-2.2c0.4-0.9,0.2-2.1,1.1-2.8c0.3-0.2,0.6-0.6,0.8-0.3c0.3,0.3,0.5,1.1,0.6,1.5
				c0.1,0.3,0.1,0.5,0.2,0.8c0.4,1,1,1.9,1.6,2.8c1.2,1.8,2.6,3.4,4.2,4.8c0.7,0.6,1.5,1.1,2.2,1.8c0.7,0.6,0.8,1.2,1,2.1
				c0.2,0.8,0,1.5-0.2,2.3c-0.2,1-0.2,1.8,0.3,2.7c0.6,1.2,1.7,2.1,2.6,3c0.2,0.2,0.4,0.5,0.6,0.7c0.4,0.3,0.8,0.3,1.2,0.3
				c0.8,0,1.5-0.3,2.2-0.7c0.8-0.4,0.8-1.3,1.1-2.1c0.2-0.6,0.4-1.3,0.5-1.9c0.1-0.6,0-1.1,0.1-1.7c0.2-1.2,0.4-2.3,1.2-3.3
				c0.9-1.3,1.8-2.7,2.4-4.1c0.2-0.4,0.3-0.8,0.5-1.2c0.1-0.3,0.4-0.6,0.4-0.9c0.3-0.1,0.5-0.3,0.7-0.5c0.2-0.1,0.4-0.2,0.6-0.3
				c0.3-0.1,0.5-0.4,0.7-0.5c0.7-0.5,1.4-1,2.2-1.4c0.8-0.4,1.6-0.8,2.4-1.3c0.3-0.2,0.6-0.4,0.9-0.5c0.3-0.1,0.6-0.7,0.9-0.4
				c0.1,0.1,0.3,0.6,0.4,0.8c0.1,0.3,0.2,0.5,0.3,0.7c0.1,0.5,0.3,1,0.5,1.5c0.7,1.6,1.9,2.3,3.4,3c0.3,0.1,0.7,0.3,1,0.2
				c0.3-0.1,0.8-0.6,1-0.8c0.3-0.3,0.4-0.8,0.7-1.1c0.6-0.8,1.1-1.6,1.6-2.4c0.3-0.4,0.6-0.7,0.9-1.1c0.2-0.3,0.4-0.9,0.8-0.9
				c0.6,0.8,0.7,1.8,1.1,2.8c0.4,1,0.9,2,1.5,2.9c0.6,0.8,1.2,1.4,1.8,2.1c0.6,0.6,1.3,1.3,2,1.8c0.4,0.3,0.8,0.5,1.1,0.8
				c0.2,0.2,0.2,0.2,0.4,0.2c0.3,0,0.6-0.2,0.8-0.3c0.4-0.2,0.7-0.5,1-0.8c0.7-0.5,1.2-1,1.8-1.7c1.2-1.3,2.4-2.6,3.8-3.8
				c0.5,0.1,0.4,1.5,0.4,1.9c0.1,1,0.1,1.8,0.5,2.7c0.2,0.4,0.4,0.8,0.6,1.2c0.1,0.1,0.1,0.3,0.3,0.4s0.5,0,0.6,0
				c0.6-0.1,1.2-0.3,1.7-0.4c0.8-0.2,1.8-0.4,2.4-1.1c0.6-0.6,0.8-1.6,0.8-2.4c0.1-1.3-0.2-2.4-0.6-3.6c-0.2-0.5-0.3-0.9-0.5-1.4
				c-0.1-0.2-0.4-0.5-0.4-0.8c0.9-0.5,1.9,0,2.8,0.4c0.8,0.4,1.8,0.9,2.3,1.6c0.6,0.6,1,1.3,1.4,2.1c0.7,1.3,1.6,2.5,2.2,3.8
				c0.2,0.4,0.4,0.9,0.5,1.3c0,0,0,0.1,0.1,0.2l-0.2,0.1c0.1,0.3,0.4,0.7,0.7,0.9c0.2,0.1,0.5,0.2,0.7,0.3c0.3,0.2,0.5,0.2,0.9,0.2
				c0.6-0.1,1-0.4,1.5-0.7c0.2-0.1,0.3-0.1,0.5-0.2c0.1-0.1,0.2-0.2,0.3-0.3c0.2-0.1,0.4-0.2,0.6-0.4c0.3-0.4,0.7-0.8,1-1.3
				c0.3-0.4,0.4-0.7,0.7-1.1c0.3-0.4,0.7-0.8,1-1.3c0.2-0.4,0.5-0.6,0.8-1c0.2-0.3,0.4-0.7,0.6-1c0.5-0.7,0.9-1.3,1.3-2
				c0.5-0.8,1.1-1.6,1.5-2.5c0.1-0.2,0.2-0.7,0.5-0.7c0.2,0,0.4,0.5,0.5,0.6c0.2,0.2,0.3,0.4,0.5,0.6c0.3,0.3,0.3,0.6,0.5,1
				c0.2,0.4,0.5,0.8,0.7,1.2c0.2,0.4,0.3,0.7,0.5,1.1c0.3,0.5,0.5,1.1,0.8,1.7c0.5,1,1.2,1.9,1.7,2.9c0.3,0.7,0.7,1.3,1,2
				c0.3,0.7,0.8,1.2,1.6,1.3c1.2,0.2,2.4,0.3,3.6,0.3c0.7,0,1.4,0,2.1,0c0.4,0,0.8,0,1.1-0.3c0.6-0.7-0.8-1.3-1.3-1.5
				c-0.2-0.1-0.4-0.2-0.7-0.2c-0.4,0-1,0.1-1.3-0.2c0-0.3,0.3-0.5,0.4-0.8c0.1-0.3,0.2-0.5,0.4-0.7c0.4-0.4,0.7-0.8,1-1.2
				c0.4-0.5,0.8-1.1,1.2-1.6c1.2-1.6,1.9-3.5,2.5-5.4c0.3-0.9,0.7-1.8,1-2.8c0.1-0.1,0.1-0.5,0.2-0.6c0.3-0.2,0.8,0.2,1,0.3
				c0.6,0.3,1.3,0.4,1.8,0.9c0.5,0.5,0.8,1.2,1.2,1.8c0.2,0.3,0.4,0.6,0.6,0.8c0.2,0.3,0.5,0.5,0.7,0.8c0.2,0.6-0.5,1.2-0.3,1.8
				c0.1,0.3,0.5,0.6,0.8,0.9c0.3,0.3,0.7,0.7,1,1c0.7,0.8,1.1,1.8,1.7,2.6c0.6,0.8,1.3,1.1,2.2,1.4c0.6,0.2,1.2,0.3,1.3,1
				c0.1,0.4,0.1,0.8,0,1.2c0,0.3-0.1,0.6-0.1,0.9c0.1,0.5,0.4,0.9,0.7,1.3c0.2,0.3,0.4,0.7,0.7,1h0c0,0.2,0.2,0.2,0.4,0.2
				c0.2-0.1,0.4-0.6,0.5-0.7c0.3-0.5,0.5-1,0.8-1.5c0.1-0.2,0.2-0.5,0.3-0.7c0.1-0.2,0.3-0.4,0.4-0.6c0.2-0.4,0.4-0.8,0.6-1.3
				c0.5-0.9,1-1.8,1.6-2.6c0.3-0.4,0.5-0.9,0.8-1.3c0.1-0.2,0.3-0.3,0.5-0.5c0.2-0.2,0.2-0.5,0.3-0.7c0.1-0.1,0.2-0.2,0.3-0.4
				c0-0.1,0-0.2,0.1-0.3c0.6,0.9,0.6,2.2,1,3.2c0.2,0.4,0.4,0.8,0.7,1.3c0.1,0.3,0.3,0.6,0.5,0.9c0.5,0.7,1,1.4,1.7,1.9
				c0.6,0.4,1,1,1.6,1.3c0.5,0.3,0.9,0.5,1.1,1.1c0.2,0.4,0.1,0.9,0.2,1.4c0,0.4,0.1,0.8,0.1,1.3c0,0.6,0.1,1.2,0.3,1.8
				c0.1,0.5,0.3,0.9,0.7,1.2c0.8,0.5,1.3,1.2,1.8,1.9c0.7,1,1.1,2.2,1.9,3c0.8,0.8,1.9,1.3,3,1.6c0.9,0.2,1.8,0.5,2.7,0.5
				c0.7,0,1.4-0.5,2.1-0.8c0.9-0.3,1.6-0.9,2.3-1.5c0.3-0.3,0.5-0.7,0.7-1.1c0.5-1,1-2,1.4-3c0.3-0.7,0.5-1.5,0.8-2.2
				c0.4-0.9,0.8-1.6,1-2.5l-0.1,0c0.1-0.4,0.2-0.8,0.3-1.1c0.1-0.4,0.2-0.7,0.2-1.1c0.2-1,0.8-1.8,1.2-2.7c0.4-1,1.2-2,1.8-3
				c0.3-0.5,0.7-1,0.8-1.5c0.1-0.4,0.3-0.6,0.4-1c0.1-0.3,0.2-0.6,0.3-0.9c0.3,0,0.4,0.9,0.5,1.1c0.2,0.4,0.2,0.9,0.4,1.3
				c0.3,0.9,1,1.9,1.7,2.5c0.7,0.6,2,1,2.9,0.6c1.2-0.5,2-1.6,2.7-2.6c0.6-0.8,1.3-1.6,1.9-2.4c0.7-0.9,1.6-1.6,2.3-2.5
				c0.5-0.6,1.2-1.2,1.9-1.6c1-0.5,2.3-0.5,3.4-0.6c1.4-0.1,2.3,1,2.8,2.2c0.1,0.1,0.3,0.5,0.3,0.6c-0.1,0.2-0.2,0.2-0.4,0.2
				c-0.3,0.1-0.8,0.2-1,0.5c0.5,0.5,1.8,0.5,2.4,0.5c0.8,0,1.6,0,2.3-0.2c2.3-0.4,4.3-1.6,6-3.1c1.1-1,2.1-2,3-3.1
				c0.3-0.5,0.7-1,1-1.4c0.1-0.2,0.3-0.4,0.5-0.5c0.3,0.4,0.4,0.8,0.5,1.2c0,0.2-0.1,0.6,0.1,0.8c0.3,0.3,0.8,0.2,1.1,0.2
				c0.5,0,0.8,0,1.3-0.3c1.3-0.8,1.5-2.2,1.3-3.6c-0.1-0.8-0.3-1.6-0.9-2.2c-0.2-0.2-0.8-0.3-0.8-0.5c0.5-1,1.4-1.7,2.2-2.4
				c1-1,1.7-1.9,2.4-3.1c0.7-1.1,1.3-2.3,1.8-3.5c0.4-1,0.5-2.3,1-3.2c0.3,0.3,0.4,0.7,0.6,1.1c0.5,1,1,2,1.7,3
				c0.9,1.4,1.8,2.9,2.8,4.2c0.9,1.2,2.1,2.1,3.5,2.5l-0.1,0.2c0.1,0.1,0.3,0.1,0.4,0.2c0.4,0.2,0.7,0.3,1.1,0.4
				c0.4,0.1,0.7,0.3,1.1,0.4c0.3,0.1,0.7,0.3,1,0.4c0.3,0.1,0.8,0.1,1.1,0c0.3-0.1,0.5-0.4,0.7-0.6c0.5-0.5,0.9-1.2,1.3-1.8
				c0.4-0.6,0.5-1.5,0.7-2.2c0.3-0.8,0.3-1.7,0.4-2.5c0.1-0.7,0.3-1.4,0.2-2.1c0-0.4-0.2-0.7-0.4-1.1c-0.1-0.3-0.1-0.6-0.2-0.8
				c-0.1-0.4-0.3-0.5-0.6-0.7c-0.3-0.2-0.7-0.3-0.9-0.5c0.4,0,0.7,0.2,1.1,0.3c0.3,0.1,0.5,0.1,0.8,0.2c0.4,0.1,0.9,0.2,1.3,0.3
				c1.1,0.1,2.3,0.3,3.4,0.2c1.5-0.1,2.9-0.5,4.4-0.7c1.1-0.1,2.2-0.6,3.1-1.3c0.8-0.6,1.4-1.3,2-2c0.2-0.3,0.5-0.6,0.7-0.9
				c0.1-0.2,0.3-0.5,0.5-0.5c0.3,0,0.5,0.5,0.6,0.7c0.3,0.4,0.5,0.7,0.7,1.1c0.4,0.7,0.8,1.1,1.5,1.5c0.6,0.3,1.1,0.5,1.6,0
				c0.4-0.4,0.4-0.9,0.6-1.3c0.5-0.8,0.7-1.7,1-2.6c0.2-0.4,0.3-0.9,0.5-1.4c0.3-0.8,0.3-1.4,0-2.2c-0.3-1-0.9-1.7-1.4-2.6
				c-0.2-0.3-1.1-1.5-0.8-1.9c0.1-0.2,1-0.3,1.2-0.5c1.3-0.8,2-2.5,2.3-3.9c0.1-0.7,0.1-1.6-0.1-2.3c-0.1-0.5-0.3-1-0.3-1.5l0.3-0.3
				c0.2,0.3,1.1,0,1.2-0.1c0.5-0.2,1-0.3,1.5-0.6c0.2-0.1,0.4-0.3,0.6-0.5c0.5-0.3,1-0.6,1.4-0.9c0.6-0.4,1.3-0.8,1.7-1.4
				c0.3-0.4,0.7-0.7,1-1.1c0.3-0.4,0.6-1,0.7-1.5c0.3-0.9-0.1-1.8-0.5-2.6c-0.1-0.2-0.1-0.3,0.1-0.4c0.4-0.3,1.1-0.3,1.6-0.5
				c1-0.2,1.9-0.6,2.9-1c1.2-0.5,2.4-1,3.4-1.7c0.6-0.5,1-1.1,1.4-1.6c0.4-0.5,0.8-1,1.3-1.5c0.7-0.8,1.3-1.5,1.9-2.4
				c0.7-1,1.2-2.2,1.7-3.3c0.2-0.4,0.3-0.8,0.4-1.2c0.1-0.5,0.3-0.9,0.4-1.4c0.1-0.5,0.1-0.9,0.2-1.4c0-0.4,0.1-0.8,0.1-1.1
				c0.2,1.5,0.9,4.6,1.1,5.2c0.7,1.7,1.6,3.5,2.7,5c0.9,1.3,2,2.5,3.2,3.5c1,0.8,2.1,1.5,3.3,2.1c0.4,0.2,0.8,0.4,1.3,0.7
				c0.2,0.1,0.5,0.2,0.7,0.4c-0.1,0.3-0.5,0.5-0.7,0.6c-0.6,0.4-1.1,0.8-1.5,1.4c-0.3,0.5-0.6,0.9-0.9,1.4c-0.2,0.5-0.7,1-0.6,1.5
				c0.1,0.6,0.7,1.3,1.1,1.7c0.4,0.5,0.9,1,1.3,1.5c1.6,1.5,3.4,2.9,5.3,4c0.9,0.5,2,0.9,2.9,1.3c0.3,0,0.6,0.2,0.7,0.5
				c-0.1,0.3-0.3,0.7-0.5,1c-0.3,0.6-0.7,1.1-1.1,1.6c-0.7,1-1.3,2-1.8,3.2c-0.4,0.8-0.8,1.6-0.9,2.5c-0.2,1.3-0.2,2.8-0.2,4.1
				c0.1,1.2,0.3,2.3,0.6,3.4c0.2,0.9,0.3,1.8,0.6,2.7l0.3,0.5c0,71.5,0,143,0,214.6c-438.5,0-877,0-1315.6,0
				c-72.7,0-145.5,0-218.2,0V807c0-10.8,0-21.5,0-32.3h0.3c0-10.7,0-21.4,0-32.1c0-55.7,0-111.5,0-167.2c3.2,0.6,6.2,1.6,9.2,2.9
				c2.9,1.2,5.8,2.5,8.4,4.2c1.4,0.9,2.5,1.8,3.6,2.9c0.9,0.9,1.9,1.8,3.3,1.3c0.7-0.3,1.4-0.7,2-1.2c0.6-0.6,0.5-1.1,0.3-1.9
				c-0.2-1.1,0-2.5,1.2-3c1.2-0.5,2.5,0,2.8-1.8c0.3-2-1.3-3.7-1-5.8c0.2-1.2,1-2.1,1.7-3.1c0.9-1.2,1.8-2.5,2.7-3.8
				c0.7-1,1.4-2.1,2.1-3.1c0.4-0.5,0.7-1.4,1.4-1.7c0.3,0.3,0.3,0.8,0.4,1.1c0.1,0.3,0.3,0.6,0.4,0.9c0.4,0.8,0.9,1.5,1.5,2.2
				c1.3,1.5,3.1,2.3,3.6,4.5c0.3,1,0.2,2,0.4,3c0.1,0.7,0.4,1.5,1.2,1.7c0.6,0.2,1.4,0,2,0c0.7,0,1.2,0,1.5-0.7
				c0.2-0.5,0.1-1.1,0.2-1.6c0.2-0.6,0.3-1.1,0.8-1.6c0.9-0.8,2.2-0.1,3,0.6c1,0.8,1.7,1.8,2,3.1c0.1,0.6,0.2,1,0.6,1.5
				c0.4,0.5,0.8,0.8,1.2,1.3c0.6,0.8,1.5,1.4,2,2.3c0.3,0.4,0.5,0.9,0.8,1.3c0.3,0.5,0.7,0.5,1.2,0.7c0.6,0.2,1.1,0.5,1.7,0.7
				c0.4,0.1,1,0.2,1.3,0.4c0.8,0.5,0.5,1.5,0.5,2.2c0,1,0,1.8-0.3,2.7c-0.2,0.8-0.4,1.5-0.5,2.3c-0.1,0.7-0.3,1.3-0.3,2
				c0,0.6,0.2,1,0.4,1.5c0.4,0.9,1,0.9,1.8,1.1c0.8,0.2,1.3,0.6,1.8,1.2c0.6,0.7,0.7,1.6,1.2,2.3c0.5,0.7,2.1,1.3,2.9,0.8
				c0.5-0.4,0.3-1,0-1.6h0c-0.4-0.5-1-0.7-1.3-1.2c-0.3-0.6-0.1-1.2,0.1-1.8c0.5-1.6,2-3,3-4.4c0.8-1.1,1.5-2.2,2.2-3.3
				c0.4-0.6,0.8-1.1,0.5-1.8c-0.4-0.9-1.4-0.6-2.1-0.7c-0.5,0-2.1-0.1-2.3-0.7c0.5-0.4,1.1-0.7,1.6-1c1.1-0.8,2.3-1.5,3.3-2.5
				c0.9-0.9,1.6-2.1,2.2-3.2c0.3-0.6,0.6-1.9,1.2-2.3c0.4,0.2,0.6,0.9,0.8,1.2c0.5,1,1.2,1.9,1.8,2.9c0.6,0.9,1.3,2,2.2,2.7
				c0.8,0.5,1.7,0.9,2.5,1.3c0.8,0.5,2.5,1,2.9,1.9c-0.5,0.8-1.5,1.3-2,2.2c-0.4,0.8-0.2,1.7,0,2.5c0.3,1,1.4,2.1,2.2,2.8
				c0.4,0.3,0.8,0.7,1.3,1c0.5,0.4,1.3,0.3,1.7,0.7c0.1,1.9-1.5,3.1-2.5,4.5c-0.4,0.6-1.3,2,0,1.6c0.9-0.2,1.6-0.3,2.4-0.8
				c0.9-0.5,1.7-1.2,2.6-1.9c0.3-0.2,0.6-0.5,0.8-0.7c0.3-0.4,0.4-0.8,0.7-1.2c0.3-0.4,0.8-0.8,1.1-1.3c0.3-0.6,0.5-1.2,0.9-1.8
				c0.5-0.7,0.6-1.9,0.5-2.7l0.3-0.3c0.5-0.9,0.6-1.3,0.4-2.2c-0.1-0.6-0.4-1.4-0.4-2c0-1.1,1.3-2.7,1.9-3.5
				c0.9-1.1,2.3-2.3,2.7-3.8c0.2-0.5,0.3-1,0.5-1.5c0.3-0.6,0.2-1.2,0.3-1.8c0.3-1.3,0.5-2.8,2-3.3c1.4-0.4,1.9,1.8,2.2,2.8
				c0.2,0.6,0.4,1.2,0.7,1.7c0.3,0.8,0.7,1.7,1.3,2.3c0.4,0.4,0.8,1,1.4,0.8c0.2,0,0.3-0.2,0.4-0.3l0.6,0c0.8-0.7,2.3-2.3,2.3-3.5
				c0-1.1-1-2.6,0-3.5c1-1,2.5-0.8,3.5-1.6c0.6-0.5,1.2-0.8,1.7-1.4c0.4-0.5,1.1-1.2,1.2-1.8c-1.1-0.4-5.2,0.6-3.9-1.8
				c0.8-1.5,1.9-2.7,2.9-4.1c0.7-1,1.8-1.8,2.4-2.9c0.5-0.8,0.9-1.7,1.4-2.5c0.6-1,1.3-2,1.8-3.1c0.3-0.6,0.8-2.1,1.6-2.3
				c1.1-0.3,1.4,2.3,1.6,3c0.4,1.4,1.2,2.8,1.9,4.1c0.7,1.4,1.8,2.6,2.4,4.2c0.5,1.2,1,2.5,1.9,3.4c0.9,0.9,2,1.2,3.1,1.6
				c0.5,0.2,2.4-0.1,2.1,0.7c-0.1,0.4-0.8,0.6-1,0.9c-0.2,0.2-0.3,0.4-0.4,0.5c-0.6,0.6-1.2,0.9-0.9,1.8c0.3,0.9,1.2,1.4,1.5,2.3
				c0.7,2,1.2,4.3,1.7,6.4c0.2,1,0.9,1.8,1.9,2.1c0.5,0.2,1.1,0.2,1.3,0.9c0.1,0.4-0.1,0.6-0.2,0.9c-0.3,0.7-0.4,1.2-0.9,1.7
				c-0.4,0.5-0.9,0.7-1.5,1.1c-0.8,0.5-1.9,1.2-1.6,2.3c0.3,0.9,1.3,1.6,1.9,2.2c0.3,0.3,0.5,0.9,0.9,1c0.4,0.1,1-0.1,1.4-0.4l0.9,0
				c0.5-0.6,0.9-1.2,1.2-1.9c0.4-0.8,0.5-1.7,0.8-2.5c0.4-0.8,0.8-1.4,1.6-1.9c0.5-0.3,0.9-0.5,1.1-1c0.4-0.8,0.4-2,0.7-2.9
				c0.2-0.7,0.6-1.2,0.9-1.8c0.9-1.6,1.5-3.7,2.9-4.9c0.5,0.1,0.4,1,0.5,1.4c0.2,0.5,0.5,1,0.7,1.5c0.6,1.3,1.2,2.6,1.7,3.9
				c0.3,0.8,0.6,1.5,1.3,2.1c0.6,0.6,1,0.9,1.1,1.7c0.2,1.7-0.7,4.1,1,5.3c1,0.7,2.4,0.8,1.5,2.3c-0.4,0.7-0.9,1.3-1.5,1.8
				c-0.3,0.3-1.3,0.9-0.9,1.4c0.1,0.2,1,0.4,1.2,0.5c0.6,0.2,1.1,0.4,1.7,0.7c0.6,0.3,1.5,0.6,1.6,1.3c0.1,0.5-0.4,1.2-0.5,1.7
				c-0.1,0.4-0.3,1.1-0.1,1.5c0.3,0.5,1.1,0.4,1.6,0.5c0.7,0,1.8,0.1,2.4,0.3c0.6,0.2,0.6,0.5,0.8,1c0.4,1.2,1.2,1.4,2.3,1.2
				c0.7-0.1,1.3-0.5,1.9-0.7c0.7-0.3,1.4-0.4,2-0.7c1.2-0.6,2.6-1,3.5-2c0.9-1,1.1-2.6,1.7-3.8c0.5-1,1.3-2.4,1-3.5
				c-0.3-0.8-1.2-1.2-0.8-2.1c0.2-0.4,0.7-0.8,0.9-1.2c0.6-0.7,1.9-1.5,2.3-2.4c0.3-0.6-0.3-1.1-0.6-1.7c-0.4-0.6-0.4-1.1-0.3-1.8
				c0-0.5,0-1,0-1.5c0-0.8,0.1-1.1,0.5-1.8c0.4-0.7,0.6-1.1,1.3-1.6c0.3-0.2,0.7-0.4,1-0.7c0.5-0.3,1.1-0.9,1.4-1.6l0.3,0.1
				c0.9-2,1.8-4.1,2.8-6.1c1.1-2.3,1.6-4.8,2.8-7.1c0.4-0.8,2-3,3.1-2.1c0.4,0.3,0.9,2.2,1.4,1.8c0.2-1.5,1.5-4,3.4-3.8
				c0.4-0.1,0.7,0,0.9,0.4c0.3,0.6,0.4,1.3,0.5,1.9c0.1,0.6,0.2,1.3,0.4,1.9c0.6,1.9,2.1,3.6,3.1,5.3c0.7,1.1,1.4,2.2,2.3,3.2
				c0.6,0.7,1.2,1.4,1.7,2.2c0.4,0.7,0.5,1.2,0.5,1.9c0,1.3,0,2.5,0.3,3.9c0.3,1.3,0.9,3,2.2,3.6c1.8,0.9,4.2,0.6,6.1,0.4
				c1.7-0.2,3.3-0.9,5-1.3c1.8-0.4,3.8-0.6,5.6-0.7c1.1-0.1,2.2-0.9,3-1.6c0.9-0.7,2.2-1.6,2.5-2.8c0.3-0.8-0.4-1.2-0.6-1.9
				c-0.3-1.1,0-1.9,0.9-2.6c0.6-0.5,1.5-0.6,2.2-0.9c0.3-0.1,0.8-0.2,0.9-0.4c0.4-0.4,0-0.7-0.2-1.1c-0.3-0.8-0.3-1.4,0-2.2
				c0.3-1.1,1-2.2,1.7-3.1c0.6-0.8,1.5-1.4,2-2.3c1.1-2.1,1.5-4.8,2.9-6.8c1-1.5,1.4-0.1,2.3,0.6c1,0.8,2,1.7,2.8,2.7
				c0.6,0.8,0.7,1.7,1.1,2.6c0.3,0.5,0.5,1,0.8,1.5c0.1,0.4,0.3,1.2,0.6,1.5c0.6,0.4,0.8-0.2,1.4-0.3c0.7-0.2,1.3,0.3,1.8,0.8
				c1.1,1.3,2,3,3.6,3.8c0.8,0.4,1.8,0,2.6-0.3c0.8-0.3,1.2-0.7,1.6-1.5c0.2-0.3,0.3-0.5,0.5-0.7c0.6-0.7,1-1.3,1.4-2.1
				c0.5-0.9,1.3-1.5,1.9-2.3c0.5-0.6,0.9-1.3,1.2-2c0.3-0.7,0.8-1.3,1.3-2c0.3-0.6,0.8-1.1,1.2-1.7c0.5-0.7,0.8-1.4,1.3-2
				c0.7-1.1,1.3-2.4,2.2-3.3c1.3-1.3,2.9,0.8,3,2.2c0.6,0.5,1.1,1.2,1.7,1.8c1,0.9,2.4,1.4,3.6,2.1c1.7,1,3.4,2.2,5.2,3
				c0.8,0.3,1,0.3,1.7,0c1.1-0.4,2.4-0.5,3.6-0.5c3.3,0,6.4,0.5,9.6,1.3c1.7,0.4,3.4,1,5.1,1.5c1.8,0.5,3.7,0.6,5.5,0.7
				c3.1,0.2,6.3,0,9.4,0.1c1.3,0,2.5-0.3,3.7-0.3c1,0,2,0,3-0.2c1-0.2,2-0.3,3-0.6c0.9-0.2,1.7-0.6,2.6-0.9c1.4-0.4,2.7-0.2,4.1-0.4
				c2-0.3,4-0.5,6-0.9c2.5-0.5,5-0.6,7.5-0.6c1.8,0,3.5-0.1,5.3,0.2c0.6,0.1,1,0.2,1.5,0.3c0.7,0.2,1.3,0.5,2,0.7
				c1.6,0.5,3.2,0.8,4.7,1.6c0.7,0.4,1.5,0.8,2.2,1.2c0.5,0.3,1.1,0.5,1.5,0.8h0.1c0.3,0.3,0.7,0.4,1,0.6c0.3,0.3,0.4,0.5,0.5,0.8
				c0.1,0.3,0.3,0.7,0,0.9c-0.2,0.1-0.4,0.1-0.6,0.2c-0.3,0.2-0.4,0.6-0.4,0.9c0,0.4,0.4,0.5,0.6,0.7s0.6,0.4,0.9,0.6
				c0.2,0.2,0.5,0.5,0.6,0.8c0.1,0.2,0.3,0.4,0.3,0.6c0.1,0.3-0.1,0.5-0.1,0.8c-0.1,0.5,0.4,1.2,0.8,1.5c0.7,0.7,1.7,1,2.6,1.2
				c0.4,0.1,0.8,0.3,1.3,0.4c0.2,0,0.5,0.1,0.6,0.3c0.2,0.3,0.1,0.4,0,0.7c-0.2,0.9-0.5,1.8-0.7,2.8c-0.1,0.6-0.1,1.2-0.1,1.8
				c0,0.7-0.1,1.5,0.1,2.1c0.3,0.9,0.3,2,1,2.6c0.3,0.2,1,0.5,1.4,0.5c0.5,0,0.8-0.4,1.2-0.6c0.4-0.3,0.7-0.5,1.2-0.6
				c0.4-0.1,0.8-0.1,1.1-0.1c1.4-0.1,2.6,0.3,3.9,0.8c1.5,0.6,2.7,1.6,4,2.5c0.9,0.6,1.8,1.3,2.6,2c0.7,0.5,1.7,1.1,2.5,1.1
				c1,0.1,1.5-0.8,2-1.4c0.2-0.3,0.4-0.6,0.3-1c-0.2-0.6-0.6-1-0.9-1.5c-0.2-0.3-0.3-0.7-0.4-1.1c-0.1-0.5-0.3-1-0.2-1.5
				c0.2-0.7,0.8-1.1,1.5-1.2c0.4-0.1,0.8-0.1,1.2-0.1c0.2,0,0.5,0.1,0.7-0.1c0.1-0.2-0.2-0.6-0.3-0.7c-0.3-0.5-0.7-1-0.9-1.6
				c-0.3-0.8,0-1.2,0.6-1.8c0.4-0.4,0.8-0.7,1.3-0.9c0.3-0.1,0.5-0.3,0.8-0.4c0.3-0.2,0.5-0.3,0.5-0.6c0-0.5-0.2-0.9-0.3-1.4
				c-0.1-1.1,0.7-1.9,1.2-2.8c0.3-0.5,0.4-1.1,0.7-1.6c0.4-0.9,1.2-1.4,2-1.8c0.5-0.3,1.1-0.5,1.7-0.6c0.4-0.1,0.6-0.2,1,0.1
				c0.5,0.4,0.9,1,1.2,1.5c0.3,0.4,0.5,1,0.9,1.3c0.5-0.8,0.7-1.5,1.5-2.1c0.6-0.5,1.3-1,2.1-0.6c0.8,0.4,1.1,1.4,1.5,2.2
				c0.3,0.8,0.6,1.7,1,2.4c1,1.8,3.4,1.3,4.8,2.4c1.4,1-0.1,2.1-0.2,3.3c-0.1,0.8,0.4,1.2,0.9,1.6c0.7,0.6,1.5,1.1,2.2,1.8
				c0.6,0.6,1.1,1.5,1.9,2c0.4,0.3,1,0.5,1.5,0.6c0.6,0.2,1.3,0.3,1.6,0.8c0.3,0.5,0.2,1,0,1.5c-0.5,1.6-1.4,3.2-1.3,4.9
				c1.3,0.6,2.8,0.7,4.3,0.8l0,0.1c0.2,0,0.4,0.2,0.6,0.3c0.2,0.1,0.4,0.1,0.7,0.2c0.3,0.1,0.4,0.1,0.7,0c0.3-0.1,0.5-0.2,0.8-0.3
				c0.5-0.1,0.9-0.4,1.4-0.6c0.5-0.2,1-0.4,1.6-0.7c0.3-0.2,0.7-0.2,1.1-0.4c0.3-0.2,0.4-0.4,0.6-0.6c0.3-0.2,0.6-0.3,0.8-0.5
				c0.4-0.3,1.1-0.4,1.4-0.8c0.4-0.4,0.5-1.1,0.7-1.6c0.1-0.5,0.1-1.1,0.1-1.7c0-1.1,0.4-1.5,1.3-2c0.3-0.2,0.7-0.4,1-0.5
				c0.4-0.2,0.8-0.2,1.1-0.3c0.3-0.2,0.5-0.4,0.8-0.6c0.2-0.2,0.5-0.5,0.5-0.8c0-0.3-0.2-0.3-0.4-0.5c-0.2-0.2-0.4-0.4-0.6-0.5
				c-0.6-0.3-0.8-1-0.9-1.6c-0.2-0.7-0.4-1.5-0.1-2.3c0.3-0.8,0.9-1.3,1.7-1.5c0.5-0.1,1-0.2,1.4-0.3c0.2-0.1,0.6-0.1,0.8-0.3
				c0.6-0.5,0.1-1.1,0-1.6c-0.1-0.4-0.3-0.8-0.5-1.2c-0.4-0.8,0-1.7,0.3-2.4c0.5-1,0.9-2,1.6-2.9c1.1-1.6,1.8-3.5,2.8-5.2
				c0.4-0.7,1-1.4,1.4-2.2c0.3-0.5,0.5-1,0.9-1.5c0.3-0.4,0.9-1.6,1.5-1.2c0.5,0.3,0.9,1.2,1.3,1.7c0.5,0.7,1,1.5,1.5,2.2
				c0.5,0.6,1,1.2,1.4,1.8c0.5,0.8,0.9,1.7,1.3,2.6c0.7,1.3,1.2,2.5,1.7,3.9c0.1,0.2,0.2,0.5,0.2,0.7c0,0,0.1,0.6,0.1,0.7
				c0.3,0.4,1.5-0.4,1.9-0.5c0.4-0.2,0.8-0.5,1.3-0.7c0.4-0.2,0.9-0.3,1.4-0.5c0.2-0.1,0.4-0.2,0.6-0.3c0.5-0.3,0-0.9-0.2-1.3
				c-0.5-1-1.2-2.2-0.7-3.3c0.4-0.9,1.1-1.6,1.7-2.3c0.8-0.9,1.7-1.7,2.5-2.7c0.7-0.9,1.4-1.7,2-2.7c0.5-0.8,0.9-1.6,1.5-2.3
				c0.4-0.4,1-0.7,1.5-0.4c0.7,0.3,1,1.6,1.3,2.3c0.3,0.8,0.7,1.7,1,2.5c0.2,0.5,0.1,1,0.2,1.5c0.1,0.5,0.5,0.9,0.9,1.3
				c0.6,0.6,1.3,1,1.9,1.6c0.5,0.6,0.8,1.2,1.1,1.9c0.1,0.2,0.2,0.4,0.3,0.6c0.2,0.4,0.4,0.5,0.9,0.5c1.4,0.1,2.7,0,4.1-0.1
				c2.7-0.1,5.3,1,7.8,1.6c2.3,0.6,4.7,1.5,6.5,3.1c1,0.9,2,1.6,3,2.5c0.6,0.5,1.2,1.1,1.8,1.6l-0.1,0.1c0,0.3,0.3,0.4,0.5,0.5
				c0.3,0.2,0.5,0.4,1,0.4c0.8-0.1,1.5-0.8,2-1.4c0.2-0.3,0.5-0.5,0.2-0.9c-0.1-0.2-0.3-0.3-0.4-0.4c-0.1-0.1-0.1-0.2-0.1-0.3
				c-0.4-0.9-1-1.6-1.4-2.5c-0.2-0.5-0.4-0.9-0.2-1.4c0.3-0.9,1.8-1.1,2.5-1.6c0.4-0.3,1.1-0.9,1.2-1.4c0-0.4-0.1-0.7-0.2-1
				c-0.1-0.4-0.2-0.8-0.2-1.3c0-0.5,0-1,0.3-1.5c0.2-0.5,0.5-0.9,0.7-1.3c0.2-0.5,0.5-0.8,0.8-1.2c0.4-0.5,0.6-1.1,0.9-1.7
				c0.6-1.1,1.2-2.2,1.8-3.3c0.9-1.5,1.7-3.1,2.6-4.6c0.3-0.5,1.3-2.3,1.9-1.3c0.5,0.8,1.2,1.5,2,2.2c0.8,0.6,1.7,1.1,2.3,1.9
				c1.1,1.3,2,3.1,2.3,4.8c0.1,0.7,0.2,1.3,0.3,2c0.1,0.9-0.2,1.8-0.4,2.7c-0.2,0.7-0.3,1.3,0.3,1.8c0.8,0.6,1.9,0.6,2.8,0.9
				c0.4,0.1,0.8,0.2,1.2,0.3c0.3,0.1,1,0,1.3,0.2c0.4,0.3-0.7,1.6-0.9,1.9c-0.4,0.6-0.5,1.4-0.1,2c0.3,0.4,0.7,0.7,1,1.1
				c0.5,0.7,1,1.3,1.4,2c0.9,1.3,1.3,2.8,1.8,4.2c0.3,0.8,0.7,1.7,0.7,2.6h-0.3c0,0.3-0.1,0.7,0.2,0.9c0.3,0.2,0.8,0.1,1.1,0.1
				c0.3,0,0.6,0,1,0c0.4,0,0.8-0.1,1.3-0.1c0.7,0,1.6-0.1,2.3,0c0.4,0.1,0.9,0.3,1.3,0.4c0.2,0.1,0.3,0.1,0.5,0.2
				c0.4,0.2,0.8,0.2,1.1,0.3c0.5,0.2,1,0.4,1.6,0.6c0.4,0.2,0.9,0.3,1.3,0.5c0.6,0.3,1.2,0.5,1.8,0.8c0.7,0.3,1.3,0.7,2,1.2
				c0.4,0.3,0.9,0.6,1.4,1c0.4,0.3,0.8,0.7,1.2,1.1c0.8,0.6,1.5,1.3,2.3,2c0.4,0.3,0.9,0.6,1.2,1c0.2,0.2,0.4,0.6,0.7,0.6
				c0.3,0,0.8-0.7,0.9-1c0.2-0.3,0.5-0.7,0.7-1.1c0.6-1.3,1.1-2.8,1.8-4.1c0.3-0.5,0.7-1,1-1.6s0.6-1,1-1.5c0.8-1.1,1.8-2,2.2-3.3
				c0.2-0.8,0.3-1.7,0.6-2.5c0.1-0.4,0.3-0.7,0.5-1c0.4-0.5,1.1-0.9,1.6-1.3c0.6-0.5,1.7-0.9,2.3-0.2c0.3,0.4,0.6,0.9,0.8,1.3
				c0.2,0.3,0.5,0.8,0.6,1.2c0.1,0.7-0.3,1.4-0.2,2c0,0.3,0,0.6,0.1,0.9c0.1,0.5,0.5,0.6,1,0.8c1.4,0.8,2.7,1.6,4,2.5
				c0.4,0.3,0.7,0.6,1.1,1c0.5,0.5,1,0.9,1.4,1.4c0.5,0.5,0.7,1.1,1.1,1.7c0.2,0.4,0.5,0.8,0.6,1.2c0.3,1,0.5,1.9,0.8,2.9
				c0.3,0.9,0.7,1.7,0.8,2.6c0.1,0.2,0.2,0.3,0.4,0.4c0.4,0.2,0.6,0,1-0.2c0.1-0.1,0.3-0.2,0.4-0.3c0.3-0.2,0.3-0.4,0.4-0.7
				c0.2-0.4,0.5-0.6,0.8-0.8c0.3-0.2,0.7-0.4,1-0.6c0.3-0.1,1.4-0.3,1.3-0.6c-0.1-0.4-0.8-0.6-1-0.9c-0.3-0.3-0.6-0.5-0.8-0.9
				c-0.3-0.5-0.6-1.6-0.1-2c0.2-0.1,0.7-0.3,0.8-0.3c0.3-0.1,0.5-0.3,0.8-0.4c0.5-0.2,0.9-0.2,1.4-0.6c0.2-0.2,0.7-0.4,0.8-0.7
				c0.2-0.5-0.3-0.8-0.6-1.1c-0.1-0.2-0.2-0.5-0.3-0.7c-0.1-0.2-0.3-0.6-0.3-0.8c0.1-0.3,0.4-0.5,0.6-0.8c0.3-0.3,0.6-0.6,0.8-0.9
				c0.4-0.6,0.8-1.2,1.2-1.8c0.7-1,1-2.2,1.6-3.2c0.4-0.6,0.7-1.3,1.1-1.9c0.4-0.6,0.7-1.2,1.2-1.6c0.3-0.3,0.7-0.7,1.1-0.8
				c0.4,0,0.9,0.3,1.2,0.6c0.4,0.4,0.6,0.8,0.9,1.3c0.2,0.3,0.4,0.6,0.6,0.9c0.3,0.5,0.6,1.2,0.9,1.7c0.4,0.7,0.8,1.4,1.1,2.1
				c0.3,0.6,0.6,1.2,0.7,1.9c0.1,0.9-0.3,1.6-0.6,2.4c0,0.1-0.1,0.3,0,0.4c0.2,0.3,1,0.5,1.3,0.5c1.1,0.3,2.1,0.6,3.2,1
				c0.2,0.1,0.7,0.2,0.9,0.3c0.1,0,0.2,0.1,0.2,0.2c-0.2,0.3-0.3,0.6-0.6,0.9c-0.4,0.6-0.8,1-0.7,1.7c0,0.9,0.2,1.6,0.7,2.3
				c0.4,0.6,0.8,1.3,1.2,1.8c0.4,0.6,0.7,1.4,1.2,2c0.3,0.4,0.8,0.6,1.2,0.8c0.5,0.3,1.1,0.6,1.6,0.9l-0.1,0.3c0.1,0,0.2,0,0.3,0.1
				c0.4,0,0.5-0.1,0.6-0.5c0.2-0.4,0.2-0.7,0.2-1.2c0-0.8,0-1.5-0.3-2.2c-0.1-0.3-0.1-0.6-0.1-0.9c0-0.2-0.1-0.4-0.1-0.7
				c0-0.3-0.1-0.8,0-1.1c0.1-0.3,0.7-0.5,1-0.8c0.2-0.2,0.5-0.4,0.7-0.6c0.5-0.5,0.8-1,1-1.6c0.2-0.5,0.3-0.9,0.3-1.5
				c0-0.5,0.1-1,0.1-1.5c0-0.3,0.2-0.5,0.3-0.8c0.2-0.3,0.2-0.5,0.4-0.8c0.4-0.6,0.9-1.2,1.4-1.7c0.6-0.6,1.1-1.2,1.7-1.9
				c0.8-1,1.6-2.2,2-3.4c0.2-0.7,0.1-1.5,0.8-2c0.7-0.4,1.3-0.9,2.1-1c0.4,0,0.8,0,1.2,0.1c0.8,0.1,0.7,0.6,0.8,1.3
				c0.2,1.5,0.5,3,1,4.4c0.5,1.3,1.4,2.5,2.1,3.8c0.6,1.1,0.4,2.8,1.6,3.4c0.8,0.4,1.6,0.5,2.5,0.6c0.4,0.1,0.7,0.2,1.1,0.3
				c0.5,0.1,1,0.1,1.3,0.4c-0.1,0.3-0.3,0.5-0.5,0.8c-0.2,0.3-0.4,0.7-0.5,1.1c-0.2,0.6-0.2,1.1,0,1.7c0.1,0.4,0.3,0.7,0.5,1
				c0.5,0.5,1,1,1.1,1.7c0,0.2,0,0.4,0,0.7s0.1,0.5,0.2,0.7c0.2,0.4,0.4,0.7,0.8,0.8c0.4,0.1,0.9,0.1,1.1-0.3c0.4-0.5,0-1.4-0.1-2
				c-0.4-1.3-1.3-3.6,0-4.8c0.4-0.4,0.9-0.6,1.4-0.9c0.5-0.4,1-0.9,1.5-1.4c0.3-0.3,1-0.7,1-1.2c0-0.3-0.8-0.8-1-1
				c-0.5-0.4-0.8-0.8-1.1-1.4c-0.3-0.9-0.1-1.5,0.7-2c0.9-0.5,1.9-0.7,2.8-1.2l0,0c0.3,0,0.7-0.4,0.9-0.7c0.1-0.2,0.5-0.7,0.4-1
				c-0.1-0.2-0.6-0.4-0.8-0.5c-0.3-0.2-0.6-0.3-0.8-0.5c-0.6-0.5-0.8-1.5-0.3-2.1c0.5-0.7,1-1.3,1.4-2c0.1-0.2,0.2-0.4,0.3-0.6
				c0.2-0.3,0.5-0.5,0.8-0.8c0.3-0.5,0.6-1,1-1.5c0.4-0.5,0.5-1.1,0.9-1.6c0.4-0.6,0.7-1.2,1-1.8c0.5-0.9,1.1-1.8,1.7-2.6
				c0.3-0.4,0.5-0.9,0.8-1.3c0.1-0.2,0.2-0.3,0.3-0.5c0.1-0.2,0.2-0.4,0.3-0.6c0.4,0.2,0.5,0.6,0.7,1c0.3,0.4,0.5,0.9,0.7,1.4
				c0.3,0.7,0.8,1.3,1.2,2c0.6,0.9,1.3,1.8,1.9,2.6c0.4,0.5,1,1,1.5,1.4c0.8,0.7,1.6,1.3,2.2,2.2c0.4,0.6,0.2,1.1-0.1,1.7
				c-0.2,0.4-0.6,0.7-0.8,1.1c-0.3,0.5-0.5,0.8-1,1.2c0.4,0.4,1.1,0.5,1.6,0.6c0.6,0.2,1.2,0.3,1.7,0.5c0.6,0.3,1.2,0.5,1.8,0.8
				c0.2,0.1,0.4,0.2,0.6,0.3c0.1,0.1,0.2,0.2,0.3,0.2c0.1,0.1,0.1,0.3,0.1,0.4c0,0.2,0,0.4,0,0.5c0,0.2-0.2,0.3-0.2,0.4
				c-0.1,0.4,0,0.9,0,1.3c0,0.4,0,0.6,0.3,0.9c0.6,0.5,1.2,0.7,1.9,1.1c0.8,0.4,1.8,0.6,2.5,1.1c0.3,0.2,0.7,0.3,1,0.6
				c0.3,0.2,0.5,0.5,0.7,0.7c0.3,0.3,0.5,0.4,0.7,0.8c0.3,0.4,0.5,0.9,0.7,1.4c0.2,0.6,0.3,1.2,0.4,1.7c0.1,0.3,0.2,0.7,0.2,1
				c0,0.6,0.2,1,0.3,1.6c0.1,0.5,0.3,0.4,0.7,0.6c0.5,0.2,0.9,0.6,1.3,0.9c0.4,0.4,0.8,0.8,1.2,1.2c0.4,0.5,0.7,0.9,0.9,1.5
				c0.2,0.5,0.1,0.9,0.2,1.4c0.1,0.6,0.2,1.3,0.3,1.9c0.2,1,0.5,1.9,1,2.8c0.4,0.6,0.7,0.9,1.4,1.1c0.1,0,0.3,0.1,0.4,0.1
				c0.3,0,0.3-0.1,0.6-0.2c0.1,0,0.2,0,0.3-0.1c0.3-0.1,0.6-0.4,0.8-0.6c0.4-0.3,0.6-0.6,0.7-1c0.1-0.5,0.1-0.7-0.1-1.2
				c-0.2-0.6-0.3-1.3-0.4-2c-0.3-1.5-0.5-2.9-0.5-4.4c0-1.3,0.4-2.4,1.3-3.4c0.5-0.5,1.2-0.9,1.5-1.5c0.4-0.6,0.4-1.6,0.4-2.4
				c0-0.5-0.1-0.9-0.2-1.4c-0.1-0.5-0.4-1.3-0.1-1.8c0.1-0.3,0.5-0.7,0.7-0.9c0.5-0.5,1.1-0.9,1.7-1.3c0.5-0.4,1-0.7,1.5-1
				c0.3-0.2,0.5-0.3,0.3-0.6c-0.1-0.2-0.3-0.3-0.5-0.4c-0.4-0.3-0.7-0.6-1-1c-0.3-0.4-0.6-0.9-0.5-1.4c0.3-1.1,2-1.9,2.8-2.5
				c0.8-0.5,1.6-0.9,2.3-1.5l0-0.4c-0.7,0-1.4,0.1-2.1,0c-0.3,0-0.6-0.1-0.9-0.4c-0.5-0.4-0.4-0.7,0-1.1c0.5-0.6,1-1.2,1.5-1.8
				c0.5-0.5,1.1-1.1,1.6-1.6c0.3-0.3,0.6-0.5,0.9-0.8c0.3-0.3,0.6-0.7,0.8-1c0.3-0.4,0.4-0.7,0.6-1.1c0.1-0.3,0.2-0.5,0.3-0.8
				c0.2-0.3,0.4-0.4,0.4-0.8c0.1-0.3,0.2-0.7,0.4-1c0.2-0.3,0.3-0.6,0.4-1c0.1-0.3,0.2-0.5,0.3-0.8c0.1-0.3,0.2-0.9,0.6-0.9
				c0.3,0,0.7,0.7,0.8,0.9c0.3,0.5,0.7,1,1.1,1.4c0.3,0.3,0.6,0.8,0.9,1.2c0.3,0.5,0.8,0.9,1.1,1.4c0.4,0.6,0.8,1.2,1.5,1.5
				c0.4,0.2,0.8,0.5,1.2,0.8c0.4,0.3,0.6,0.5,0.7,1c0.1,0.6,0,1.1-0.2,1.7c-0.1,0.3-0.2,0.8-0.2,1.2c0.1,0.4,0.5,0.5,0.8,0.7
				c1.4,0.8,3.2,0.4,4.7,1.1c0.5,0.2,0.3,0.5,0.1,0.9c-0.3,0.5-0.5,0.9-0.6,1.4c-0.1,0.7-0.1,1.5,0.2,2.1c0.1,0.5,0.4,0.9,0.6,1.3
				c0.3,0.6,0.5,1.3,0.5,1.9c0,0.4,0,0.8,0,1.2c0,0.4-0.1,0.7,0,1.1c0.3,0.6,0.9,1,1.3,1.5c0.4,0.5,0.7,1.3,0.7,1.9
				c0,0.6-0.5,1.2-0.7,1.7c-0.1,0.2-0.1,0.3-0.2,0.5c-0.1,0.2-0.3,0.4-0.4,0.6c-0.1,0.3,0.1,0.5,0.2,0.8c0.4,0.8,0.9,1.5,1.4,2.1
				c0.5,0.7,1,1.5,1.8,1.8c0.6,0.3,1.4,0.1,2.1-0.1c0.9,0,1.5-0.2,2.2-0.8c0.3-0.3,0.5-0.6,0.9-0.8c0.2-0.1,0.3-0.4,0.5-0.6
				c0.2-0.2,0.4-0.3,0.6-0.5c0.3-0.3,0.7-0.4,1-0.7c0.2-0.2,0.6-0.4,0.9-0.5c0.9-0.3,1.9-0.7,2.8-0.8c0.4,0,0.8-0.1,1.2-0.1
				c0.6,0,1.1,0,1.7,0.2c1.6,0.3,3.2,1.1,4.5,2.1c0.4,0.3,0.8,0.6,1.2,0.8c0.3,0.1,0.5,0.3,0.7,0.4c0.4,0.4,0.9,0.5,1.4,0.8
				c0.4,0.2,0.9,0.6,1.3,0.6c0.5,0,0.5-0.5,0.6-0.9c0.1-0.5,0.5-1.1,0.8-1.5c0.4-0.5,1.1-0.7,1.7-1c0.2-0.1,0.4-0.3,0.7-0.4
				c0.2-0.1,0.5-0.2,0.7-0.4c0.1-0.2,0.2-0.4,0.2-0.6c0-0.5-0.2-1-0.3-1.5c-0.2-0.9-0.3-1.7-0.2-2.5c0.1-1,0.2-2,0.8-2.8
				c0.6-0.8,1.5-1.2,2.2-1.8c0.4-0.4,0.8-0.9,1-1.4c0.1-0.1,0.2-0.4,0.2-0.5c-0.1-0.2-0.5-0.4-0.6-0.6c-0.2-0.2-0.4-0.5-0.6-0.7
				c-0.2-0.2-0.4-0.4-0.6-0.6c-0.3-0.5,0.3-0.9,0.6-1.3c0.6-0.7,1.1-1.3,1.5-2.1c0.8-1.4,2-2.7,2.6-4.3c0.5-1.5,1-2.9,1.7-4.3
				c0.2-0.5,0.4-0.9,0.7-1.3c0.2-0.3,0.4-0.8,0.6-1c0.2-0.2,0.3-0.2,0.6,0c0.1,0.1,0.2,0.3,0.3,0.5c0.3,0.5,0.6,1,0.9,1.4
				c1,1.3,2.1,2.6,3.4,3.6c0.7,0.6,1.4,1.3,2.1,1.8c0.7,0.6,1.6,1,2.3,1.5c0.3,0.3,0.9,0.5,1.2,0.9c0.2,0.2,0.1,0.6,0.1,0.9
				c-0.2,1.2-0.9,2.3-1.1,3.6c-0.3,1.8,0.5,3.3,1.5,4.7c0.8,1,1.5,2.1,1.6,3.4c0,0,0,0,0,0c0.1,0.2,0.2,0.5,0.3,0.7
				c0.1,0.4,0.1,0.9,0.5,1.1c0.4-0.1,0.6-1.1,0.7-1.5c0.1-0.4,0.1-0.8,0.1-1.1c0-0.3,0.2-0.5,0.2-0.8c0.2-0.6,0.7-1.1,1.3-1.4
				c0.2-0.1,0.4-0.3,0.7-0.4c0.2-0.1,0.4-0.1,0.6-0.1c0.3,0,0.6,0,0.9,0.1c0.2,0.1,0.5,0.3,0.7,0.4c0.5,0.2,1.2,0.5,1.5,1
				c0.3,0.7-0.4,1-0.4,1.6c0,0.4,0.8,0.7,1.1,0.9c0.5,0.3,1.2,0.4,1.6,0.7c0.1,0.2-0.4,0.4-0.5,0.5c-0.2,0.3-0.3,0.5-0.1,0.8
				c0.2,0.5,0.7,0.9,1.2,1.2c0.8,0.5,1.7,0.8,2.4,1.4c0.6,0.5,0.8,1.2,1.2,1.9c0.3,0.5,0.6,0.9,1,1.3c0.6,0.5,1.3,0.6,2.1,0.9
				c1.2,0.4,2.4,0.5,3.7,0.7c0.9,0.1,1.9,0.3,2.8,0.4c0.7,0.1,1.4,0.2,2.1,0.1c0.6-0.1,1.2-0.3,1.8-0.5c0.5-0.1,0.9-0.2,1.3-0.4
				c0.4-0.2,0.9-0.5,1.3-0.7c0.5-0.2,0.9-0.2,1.3-0.4c0.6-0.3,1.1-0.7,1.6-1c0.8-0.5,1.5-1,2.2-1.6c1-0.8,2-1.9,2.8-3
				c0.4-0.6,0.9-1.2,1.3-1.8c0.5-0.6,1-1,1.6-1.5c1.3-1.1,2.4-2.1,3.8-2.9c1.2-0.7,2.4-1.5,3.7-2.2c0.3-0.2,0.9-0.4,1.1-0.8
				c0.1-0.4-0.1-0.3-0.3-0.5l-0.7-0.1c-0.1,0-0.2,0-0.3,0c-0.3,0-0.5-0.2-0.7-0.2c-0.3,0-0.5,0-0.8,0c-0.7-0.1-0.7-0.5-0.9-1
				c-0.1-0.2-0.2-0.3-0.2-0.5c0-0.3,0-0.5,0-0.8c0-0.3-0.1-0.5-0.1-0.8c0-0.4,0-0.5,0.3-0.8c0.4-0.4,0.9-0.7,1.3-1.1
				c0.3-0.3,0.6-0.5,0.9-0.7c0.5-0.3,1.1-0.6,1.4-1c0.1-0.1,0.3-0.3,0.2-0.5c-0.1-0.2-0.3-0.1-0.5-0.1c-0.5,0-1.7,0.2-1.3-0.7
				c0.1-0.3,0.4-0.4,0.6-0.7c0.2-0.3,0.4-0.5,0.7-0.8c0.7-0.6,1.2-1.4,1.8-2.1c0.7-0.9,1.3-1.7,1.8-2.6c0.2-0.4,0.4-0.8,0.5-1.2
				c0.2-0.5,0.5-0.9,0.8-1.3c0.3-0.4,0.5-0.9,0.7-1.3c0.3-0.6,0.8-1.3,1.1-1.9c0.4-0.6,0.8-1.1,1.2-1.7c0.2-0.3,0.4-0.7,0.7-1
				c0.2,0.1,0.2,0.4,0.3,0.6c0.3,0.5,0.5,1,0.8,1.5c0.3,0.6,0.7,0.9,1.3,1.3c0.2,0.2,0.5,0.3,0.6,0.5c0.1,0.2,0.2,0.5,0.3,0.7
				c0.2,0.6,0.1,0.9-0.3,1.5c-0.2,0.3-0.6,0.8-0.6,1.2c0,0.3,0.3,0.5,0.5,0.6c0.4,0.2,0.8,0.4,1.2,0.7c0.6,0.4,1.3,0.9,1.7,1.6
				c0.4,0.6,0.3,1.1,0.2,1.8c-0.1,0.8-0.1,1.9,0.6,2.5c0.5,0.4,1.3,0.4,1.9,0.6c0.2,0,0.5,0,0.7,0.1c0.4,0.1,0.4,0.6,0.5,0.9
				c0,0.3,0,0.6,0,0.9c0,0.3-0.1,0.6-0.1,0.9c0,0.3,0.3,0.8,0.6,0.9c0.4,0.2,1.1-0.6,1.4-0.8c0.8-0.7,1.7-1.3,2.6-2
				c1.3-1,2.8-1.8,4.3-2.5c1.3-0.6,2.9-1.1,4.3-1.2l0,0c0.2-0.1,0.3-0.1,0.5-0.2c0.6-0.2,1.2-0.4,1.8-0.6c0.5-0.1,0.9-0.4,1.4-0.5
				c0.5-0.1,1-0.1,1.6-0.1c1.8,0,3.6-0.1,5.3,0.4c0.9,0.2,1.8,0.4,2.7,0.8c0.5,0.2,1,0.4,1.6,0.5c0.3,0,0.5,0.2,0.8,0.3
				c0.5,0.2,1.1,0.3,1.6,0.5c0.6,0.3,1.2,0.5,1.8,0.8c0.7,0.3,1.4,0.5,2.1,0.8c0.5,0.2,1,0.5,1.4,0.7c0.6,0.3,1.2,0.6,1.8,0.9
				c1.1,0.5,2.3,0.8,3.5,1.2c0.7,0.3,1.3,0.5,1.9-0.1c0.7-0.8,1.1-1.9,1.6-2.8c0.4-0.6,0.6-1.3,0.9-2c0.3-0.8,0.7-1.6,1-2.4
				c0.3-0.9,0.8-1.7,1.1-2.6c0.1-0.3,0.2-0.6,0.2-0.8c0.1-0.2,0.1-0.3,0.2-0.4c0.6-0.3,1.4,1,1.7,1.2c0.5,0.5,1.1,0.8,1.7,1.3
				c0.3,0.2,0.7,0.4,0.8,0.7c0.2,0.4,0,0.8-0.2,1.2c-0.2,0.5,0,0.5,0.4,0.9c0.4,0.4,0.8,0.7,1.3,1c1.8,0.9,3.8,1.6,5.7,2.2
				c0.9,0.3,1.8,0.3,2.7,0.4c1.7,0.2,3.3,0.5,4.9,0.9c1.3,0.3,2.4,0.9,3.7,1.4c0.4,0.5,0.7,1.2,0.8,1.4c0.2,0.3,0.2,0.9,0.1,1.2
				c-0.1,0.3-0.2,0.5-0.3,0.8c-0.1,0.2-0.2,0.5-0.3,0.7c-0.2,0.5-0.5,1.1-0.8,1.6c-0.9,1.4-2,2.8-2.5,4.4c-0.2,0.6-0.9,1.6-0.1,2
				c0.3,0.1,0.7,0.2,0.9,0.2c0.4,0,0.7,0,1.1,0.1c0.7,0.2,1.4,0.3,2,0.4c0.6,0.1,1.3,0.2,0.9,0.9c-0.6,0.9-1.4,1.7-2.1,2.4
				c-0.9,1-2.1,2.1-2.2,3.5c-0.1,2.4,2.8,2.2,4.3,3.1c1.2,0.8,2.4,1.6,3.4,2.6c0.4,0.3,0.6,0.7,0.7,1.2c0.3,0.8,0.6,1.6,1,2.3
				c0.6,1,1.4,2,2.8,1.6c2.3-0.7,4.7-2.3,7.2-1.9c1,0.2,2,0.8,2.8,1.4c0.6,0.4,1.1,0.9,1.9,1c0.7,0.2,1.6,0.2,2.3,0.2
				c0.5-0.1,1.6-0.5,1.6-1.2c-0.2-0.2-0.5-0.2-0.8-0.3c-0.6-0.1-1-0.4-1.4-0.8c-0.7-0.7-1.1-1.7-1.2-2.8c0-1.3,1.2-2.1,2.1-2.8
				c0.3-0.2,0.7-0.4,0.9-0.6c0.3-0.4,0.6-1,0.6-1.5c0.1-1.2-0.2-2.4-0.5-3.6c-0.3-1-0.3-1.9,0.1-2.9c0.4-1.1,1.1-2.1,1.7-3.2
				c0.6-1,0.7-2.2,1.3-3.2c0.4-0.8,0.8-1.6,1.2-2.3c0.4-0.8,0.6-1.6,0.9-2.4c0.7-1.7,1.5-3.4,2.1-5.2c0.4-1.3,1.1-2.5,2.5-2.8
				c0.4-0.1,0.8-0.3,1.2-0.2c0.4,0.1,0.7,0.8,0.9,1.2c0.3,0.6,0.8,1.1,1.1,1.7c1.2,1.8,2.3,3.8,4,5.3c0.5,0.5,1.2,0.9,1.9,1.2
				c0.3,0.1,0.6,0.2,0.8,0.4l-0.1,0.2c0.2,0.1,0.4,0.1,0.5,0.2c0.3,0.1,0.5,0.2,0.9,0.2c0.4,0,0.5-0.1,0.6-0.5
				c0.1-0.3,0.2-0.8,0.3-1.1c0-0.3,0.1-0.7,0.2-1c0.1-0.3,0.3-0.5,0.5-0.8c0.2-0.5,0.4-1,0.8-1.5c0.3-0.3,0.5-0.8,0.9-1.1
				c0.3-0.3,0.3-0.5,0.7-0.2c0.4,0.3,0.7,0.8,1,1.2c0.5,0.5,0.9,1.1,1.5,1.5c0.9,0.7,1.8,1.5,2.7,2c0.7,0.5,1.6,0.9,1.9,1.8
				c0.1,0.2,0.2,0.5,0.2,0.8c0,0.3-0.3,0.5-0.4,0.8c-0.1,0.7,0.9,0.7,1.3,0.9c0.5,0.2,0.9,0.6,1.4,0.9c0.3,0.2,0.4,0.3,0.4,0.6
				c-0.1,0.9-0.3,1.8-0.4,2.6c-0.2,1.2-0.1,2.2,0.5,3.2c0.4,0.6,0.8,1.2,1.4,1.7c0.3,0.3,0.7,0.7,0.9,1.1c0.5,1.3,0.3,2.6-0.2,3.8
				c-0.4,0.8-0.7,1.7-1.2,2.5c-0.3,0.5-0.5,1-0.6,1.5c0,0.2-0.1,0.2,0,0.3c0.1,0.3,0.6,0.7,0.9,0.8c0.6,0.4,1.4,0.5,2,0.7
				c0.5,0.1,1.1,0.4,1.4,0.7c0.4,0.3,0.5,0.8,0.6,1.3c0.2,1.6-1.5,2.2-2.4,3.1l0,0.4c0.7-0.1,1.4-0.2,2.2-0.2c0.8,0,1.5,0.1,2.3,0.2
				c0.8,0.1,1.5,0.4,2.3,0.6c0.4,0.1,0.7,0.3,1.1,0.4c0.7,0.3,1.3,0.8,2,1.1c0.6,0.3,0.9,0.5,1.4,1c0.4,0.4,0.7,0.9,1.1,1.3
				c0.3,0.4,0.6,0.8,0.9,1.3c0.1,0.2,0.2,0.4,0.3,0.6c0.3,0.4,0.8,0.8,1.2,1.2c0.6,0.6,1.4,1,2.1,1.5c0.7,0.4,1.3,0.9,2,1.3
				c1.2,0.7,2.4,1.5,3.7,2.1c0.3,0.1,0.7,0.3,1.1,0.3c0.4,0.1,1.1,0.1,1.4-0.1c0.4-0.3,0.7-1,0.9-1.4c0.2-0.3,0.4-0.5,0.5-0.8
				c0.2-0.4,0.2-1,0.2-1.4c0.1-0.5-0.1-1-0.2-1.4c-0.1-0.5-0.1-1.1-0.1-1.7c0-0.9,0.2-1.8,0.6-2.6c0.3-0.6,0.7-1.3,1-1.9
				c0.3-0.7,0.6-1.4,0.8-2.1c0.2-0.5,0.2-1.1,0.2-1.7c0.1-0.8-0.2-1.6,0.3-2.3c0.6-0.8,1.3-1,2.1-1.4c0.5-0.2,1-0.4,1.3-0.9
				c0.4-0.6,0.2-0.9,0-1.5c-0.2-0.4-0.3-0.7-0.6-1c-0.4-0.4-0.7-0.8-0.6-1.4c0.3-1.4,1.6-2.4,2.5-3.4c0.9-1.1,1.6-2.4,2.3-3.7
				c0.4-0.7,0.7-1.3,1.2-1.9c0.2-0.3,0.5-0.6,0.7-1c0.4-0.4,0.9-0.8,1.5-1c0.7-0.3,1.3-0.7,2-1c0.5-0.2,1-0.3,1.5-0.5
				c0.3-0.1,0.6-0.2,0.9-0.2c0.6,0.1,0.5,1.1,0.6,1.5c0.1,0.6,0.2,1.2,0.5,1.8c0.2,0.5,0.4,0.9,0.7,1.4c0.4,0.8,0.9,1.5,1.3,2.3
				c0.3,0.6,0.5,1.1,0.9,1.6c0.4,0.5,0.8,1,1.3,1.5c0.5,0.6,1,1.2,1.6,1.7c0.7,0.7,1.4,1.3,1.9,2.1c0.4,0.7,0.7,1.3,1,2.1
				c0.3,0.8,0.5,1.8,0.5,2.7c0,0.7-0.2,1.3-0.4,2c-0.2,0.7-0.4,1.4-0.5,2c0,0.6-0.1,1.2,0.3,1.5c0.3,0.3,0.8,0.6,1.2,0.9
				c0.3,0.2,0.7,0.3,1,0.6c0.6,0.6,1.2,1.2,1.7,1.9c0.2,0.4,0.4,0.7,0.6,1.1c0.2,0.3,0.4,0.6,0.4,0.9
				C1316.1,609.3,1315.8,609.6,1315.5,609.9z M975.7,607.6c0.1-0.3,0.2-0.7,0-1c-0.1-0.2-0.3-0.4-0.5-0.6c0,0,0,0,0,0c0,0,0,0,0,0
				c-0.2-0.3-0.3-0.7-0.6-0.9c-0.3-0.3-0.7-0.5-1-0.8c-0.2-0.2-0.3-0.2-0.6-0.3c-0.2-0.1-0.3-0.2-0.5-0.3c-0.3-0.1-0.9,0.1-1.2,0.3
				c-0.3,0.2-0.7,0.3-0.9,0.6c-0.3,0.4-0.5,0.8-0.6,1.3c-0.3,0.8,0,1.5,0.6,2.1c0.2,0.2,0.4,0.5,0.7,0.7c0.3,0.2,0.6,0.1,0.9,0.3
				c0.2,0.1,0.3,0.1,0.4,0.2c0.3,0.1,0.7,0.1,1.1,0.1c0.3-0.1,0.6-0.1,0.9-0.1C975.2,609,975.5,608.3,975.7,607.6z M963.6,625.5
				c0.2-0.4,0.3-1.2,0.1-1.6c-0.2-0.4-0.6-0.6-1-0.7c-0.4-0.2-0.9-0.5-1.3-0.6c-0.8-0.2-1.5-0.1-2.3-0.1c-0.2,0-0.4,0-0.5,0
				c-0.3,0-0.4,0.1-0.7,0.1l0.1,0.3c-0.3,0.1-0.7,0.4-0.9,0.6c-0.5,0.4-0.9,0.8-1.2,1.3c-0.3,0.4-0.7,0.6-0.9,1.1
				c-0.2,0.5-0.3,0.9-0.4,1.4c-0.1,0.4-0.2,0.8-0.3,1.2c-0.1,0.5-0.1,0.9-0.1,1.5c0,0.8-0.3,2.3,0.6,2.8c0.3,0.2,0.7,0.1,1.1,0
				c0.6-0.2,1.1-0.7,1.5-1.1c0.5-0.5,0.7-1.1,0.9-1.8c0.2-0.5,0.3-1,0.5-1.5c0-0.2,0.1-0.4,0.2-0.6c0.1-0.2,0-0.4,0-0.7
				c0.1-0.5,0.6-0.4,1-0.4c0.7,0,1.3,0,2-0.2C962.3,626.3,963.3,626,963.6,625.5z M357.3,606.8c0.2-0.6,0.4-1.1,0.3-1.8
				c-0.1-0.7-0.6-1.3-1.2-1.6c-0.5-0.3-1.1-0.3-1.5-0.7c-0.8,0.7-1.6,2.3-1.1,3.3c0.3,0.6,0.8,0.7,1.3,1.1c0.4,0.3,1,1,1.6,0.9
				C357,608,357.1,607.2,357.3,606.8z"/>
		</g>
		<g>
		</g>
	</g>
</g>

</svg>
